IntelOneMono-Light-mstr.ufo
<glyph name="exclam" format="2">
  <advance width="614"/>
  <unicode hex="0021"/>
  <outline>
    <contour>
      <point x="290" y="227" type="line"/>
      <point x="324" y="227" type="line"/>
      <point x="367" y="710" type="line"/>
      <point x="248" y="710" type="line"/>
    </contour>
    <contour>
      <point x="306" y="-15" type="curve" smooth="yes"/>
      <point x="344.0" y="-15.0"/>
      <point x="368.0" y="4"/>
      <point x="368" y="37" type="curve" smooth="yes"/>
      <point x="368.0" y="71"/>
      <point x="348.0" y="92.0"/>
      <point x="308" y="92" type="curve" smooth="yes"/>
      <point x="270.0" y="92.0"/>
      <point x="246.0" y="68"/>
      <point x="246" y="40" type="curve" smooth="yes"/>
      <point x="246.0" y="3"/>
      <point x="273.0" y="-15.0"/>
    </contour>
  </outline>
</glyph>
<glyph name="numbersign" format="2">
  <advance width="614"/>
  <unicode hex="0023"/>
  <outline>
    <contour>
      <point x="251" y="666" type="line"/>
      <point x="120" y="-12" type="line"/>
      <point x="170" y="-12" type="line"/>
      <point x="213" y="211" type="line"/>
      <point x="213" y="211" type="line"/>
      <point x="259" y="447" type="line"/>
      <point x="259" y="447" type="line"/>
      <point x="302" y="666" type="line"/>
    </contour>
    <contour>
      <point x="445" y="666" type="line"/>
      <point x="403" y="451" type="line"/>
      <point x="403" y="451" type="line"/>
      <point x="357" y="213" type="line"/>
      <point x="357" y="213" type="line"/>
      <point x="313" y="-12" type="line"/>
      <point x="365" y="-12" type="line"/>
      <point x="496" y="666" type="line"/>
    </contour>
    <contour>
      <point x="420" y="428" type="line"/>
      <point x="440" y="428" type="line"/>
      <point x="439" y="424" type="line"/>
      <point x="571" y="424" type="line"/>
      <point x="571" y="475" type="line"/>
      <point x="443" y="475" type="line"/>
      <point x="442" y="471" type="line"/>
      <point x="433" y="471" type="line"/>
    </contour>
    <contour>
      <point x="390" y="190" type="line"/>
      <point x="389" y="186" type="line"/>
      <point x="542" y="186" type="line"/>
      <point x="542" y="236" type="line"/>
      <point x="398" y="236" type="line"/>
      <point x="397" y="232" type="line"/>
      <point x="380" y="232" type="line"/>
      <point x="372" y="190" type="line"/>
    </contour>
    <contour>
      <point x="73" y="424" type="line"/>
      <point x="224" y="424" type="line"/>
      <point x="224" y="428" type="line"/>
      <point x="420" y="428" type="line"/>
      <point x="433" y="471" type="line"/>
      <point x="235" y="471" type="line"/>
      <point x="235" y="475" type="line"/>
      <point x="73" y="475" type="line"/>
    </contour>
    <contour>
      <point x="43" y="186" type="line"/>
      <point x="170" y="186" type="line"/>
      <point x="171" y="190" type="line"/>
      <point x="388" y="190" type="line"/>
      <point x="395" y="232" type="line"/>
      <point x="178" y="232" type="line"/>
      <point x="179" y="236" type="line"/>
      <point x="43" y="236" type="line"/>
    </contour>
  </outline>
</glyph>
<glyph name="dollar" format="2">
  <advance width="614"/>
  <unicode hex="0024"/>
  <outline>
    <contour>
      <point x="343" y="-142" type="line"/>
      <point x="343" y="19" type="line"/>
      <point x="290" y="19" type="line"/>
      <point x="290" y="-142" type="line"/>
    </contour>
    <contour>
      <point x="310.0" y="50" type="curve" smooth="yes"/>
      <point x="257.0" y="50.0"/>
      <point x="175.0" y="71.0"/>
      <point x="94.0" y="102" type="curve"/>
      <point x="75.0" y="49" type="line"/>
      <point x="163.0" y="16"/>
      <point x="237.0" y="0"/>
      <point x="310.0" y="0" type="curve" smooth="yes"/>
      <point x="448.0" y="0"/>
      <point x="535.0" y="64"/>
      <point x="535.0" y="179" type="curve" smooth="yes"/>
      <point x="535.0" y="267"/>
      <point x="487" y="314"/>
      <point x="364.0" y="354" type="curve" smooth="yes"/>
      <point x="290.0" y="378" type="line" smooth="yes"/>
      <point x="199" y="408"/>
      <point x="166.0" y="442"/>
      <point x="166.0" y="503" type="curve" smooth="yes"/>
      <point x="166.0" y="559"/>
      <point x="209.0" y="605.0"/>
      <point x="318.0" y="605" type="curve" smooth="yes"/>
      <point x="367.0" y="605"/>
      <point x="426.0" y="595"/>
      <point x="504.0" y="570" type="curve"/>
      <point x="519.0" y="623" type="line"/>
      <point x="438.0" y="645"/>
      <point x="387.0" y="655"/>
      <point x="318.0" y="655" type="curve" smooth="yes"/>
      <point x="170.0" y="655"/>
      <point x="103.0" y="578"/>
      <point x="103.0" y="499" type="curve" smooth="yes"/>
      <point x="103.0" y="417"/>
      <point x="151" y="358"/>
      <point x="278.0" y="319" type="curve" smooth="yes"/>
      <point x="352.0" y="296" type="line" smooth="yes"/>
      <point x="438" y="269"/>
      <point x="472.0" y="232"/>
      <point x="472.0" y="177" type="curve" smooth="yes"/>
      <point x="472" y="100"/>
      <point x="418.0" y="50.0"/>
    </contour>
    <contour>
      <point x="343" y="630" type="line"/>
      <point x="343" y="797" type="line"/>
      <point x="290" y="797" type="line"/>
      <point x="290" y="630" type="line"/>
    </contour>
  </outline>
</glyph>
<glyph name="percent" format="2">
  <advance width="614"/>
  <unicode hex="0025"/>
  <outline>
    <contour>
      <point x="47.0" y="493" type="curve" smooth="yes"/>
      <point x="47.0" y="384"/>
      <point x="93" y="317"/>
      <point x="187" y="317" type="curve" smooth="yes"/>
      <point x="282" y="317"/>
      <point x="331" y="385"/>
      <point x="331" y="494" type="curve" smooth="yes"/>
      <point x="331" y="604"/>
      <point x="282" y="670.0"/>
      <point x="188" y="670.0" type="curve" smooth="yes"/>
      <point x="95" y="670.0"/>
      <point x="47.0" y="602"/>
    </contour>
    <contour>
      <point x="187" y="624" type="curve" smooth="yes"/>
      <point x="248.3953488372093" y="624.0"/>
      <point x="275.0" y="576.2713178294574"/>
      <point x="275" y="493" type="curve" smooth="yes"/>
      <point x="275.0" y="409.6984126984127"/>
      <point x="249.41176470588235" y="365.0"/>
      <point x="188" y="365" type="curve" smooth="yes"/>
      <point x="127.5952380952381" y="365.0"/>
      <point x="102.0" y="410.70866141732284"/>
      <point x="102" y="494" type="curve" smooth="yes"/>
      <point x="102.0" y="576.265625"/>
      <point x="126.57831325301206" y="624.0"/>
    </contour>
    <contour>
      <point x="227.0" y="279.0" type="line"/>
      <point x="32.0" y="1.0" type="line"/>
      <point x="32.0" y="-5.0" type="line"/>
      <point x="109.0" y="-5.0" type="line"/>
      <point x="262.0" y="279.0" type="line"/>
    </contour>
    <contour>
      <point x="283" y="161" type="curve" smooth="yes"/>
      <point x="283" y="52"/>
      <point x="332" y="-15.0"/>
      <point x="426" y="-15.0" type="curve" smooth="yes"/>
      <point x="519" y="-15.0"/>
      <point x="567.0" y="53"/>
      <point x="567.0" y="162" type="curve" smooth="yes"/>
      <point x="567.0" y="271"/>
      <point x="521" y="338"/>
      <point x="427" y="338" type="curve" smooth="yes"/>
      <point x="332" y="338"/>
      <point x="283" y="270"/>
    </contour>
    <contour>
      <point x="427" y="31" type="curve" smooth="yes"/>
      <point x="365.6046511627907" y="31.0"/>
      <point x="339.0" y="78.72868217054263"/>
      <point x="339" y="162" type="curve" smooth="yes"/>
      <point x="339.0" y="245.3015873015873"/>
      <point x="364.5882352941176" y="290.0"/>
      <point x="426" y="290" type="curve" smooth="yes"/>
      <point x="486.4047619047619" y="290.0"/>
      <point x="512.0" y="244.29133858267716"/>
      <point x="512" y="161" type="curve" smooth="yes"/>
      <point x="512.0" y="79.75"/>
      <point x="487.4216867469879" y="31.0"/>
    </contour>
    <contour>
      <point x="387.0" y="376.0" type="line"/>
      <point x="582.0" y="654.0" type="line"/>
      <point x="582.0" y="660.0" type="line"/>
      <point x="505.0" y="660.0" type="line"/>
      <point x="352.0" y="376.0" type="line"/>
    </contour>
  </outline>
</glyph>
<glyph name="ampersand" format="2">
  <advance width="614"/>
  <unicode hex="0026"/>
  <outline>
    <contour>
      <point x="472" y="647" type="line"/>
      <point x="397" y="662"/>
      <point x="353" y="669"/>
      <point x="316" y="669" type="curve" smooth="yes"/>
      <point x="211" y="669"/>
      <point x="161" y="610"/>
      <point x="161" y="540" type="curve" smooth="yes"/>
      <point x="161.0" y="508.0"/>
      <point x="175" y="471"/>
      <point x="221" y="407" type="curve" smooth="yes"/>
      <point x="395" y="162" type="line"/>
      <point x="399" y="162" type="line"/>
      <point x="517" y="0" type="line"/>
      <point x="592" y="0" type="line"/>
      <point x="425" y="224" type="line"/>
      <point x="421" y="224" type="line"/>
      <point x="273" y="429" type="line" smooth="yes"/>
      <point x="228" y="492"/>
      <point x="219.0" y="522.0"/>
      <point x="219" y="546" type="curve" smooth="yes"/>
      <point x="219" y="587"/>
      <point x="250" y="618"/>
      <point x="307" y="618" type="curve" smooth="yes"/>
      <point x="344" y="618"/>
      <point x="385" y="613"/>
      <point x="461" y="596" type="curve"/>
    </contour>
    <contour>
      <point x="437" y="166" type="line"/>
      <point x="531" y="417" type="line"/>
      <point x="481" y="435" type="line"/>
      <point x="403" y="209" type="line"/>
      <point x="396" y="209" type="line"/>
      <point x="345.0" y="76.0"/>
      <point x="303.0" y="47.0"/>
      <point x="230" y="47" type="curve" smooth="yes"/>
      <point x="169.0" y="47"/>
      <point x="121.0" y="88.0"/>
      <point x="121" y="166" type="curve" smooth="yes"/>
      <point x="121.0" y="256.0"/>
      <point x="139.0" y="288.0"/>
      <point x="323" y="344" type="curve"/>
      <point x="304" y="383" type="line"/>
      <point x="101.0" y="331.0"/>
      <point x="61" y="276.0"/>
      <point x="61" y="162" type="curve" smooth="yes"/>
      <point x="61" y="58.0"/>
      <point x="131.0" y="-5"/>
      <point x="222" y="-5" type="curve" smooth="yes"/>
      <point x="325.0" y="-5.0"/>
      <point x="375.0" y="34.0"/>
      <point x="430" y="166" type="curve"/>
    </contour>
  </outline>
</glyph>
<glyph name="parenleft" format="2">
  <advance width="614"/>
  <unicode hex="0028"/>
  <outline>
    <contour>
      <point x="123" y="326" type="curve" smooth="yes"/>
      <point x="123" y="148"/>
      <point x="233" y="-9"/>
      <point x="484" y="-145" type="curve"/>
      <point x="509" y="-102" type="line"/>
      <point x="268" y="35"/>
      <point x="185.0" y="180.0"/>
      <point x="185" y="329" type="curve" smooth="yes"/>
      <point x="185.0" y="478.0"/>
      <point x="268" y="623"/>
      <point x="509" y="760" type="curve"/>
      <point x="484" y="803" type="line"/>
      <point x="232" y="667"/>
      <point x="123" y="506"/>
    </contour>
  </outline>
</glyph>
<glyph name="parenright" format="2">
  <advance width="614"/>
  <unicode hex="0029"/>
  <outline>
    <contour>
      <point x="491" y="332" type="curve" smooth="yes"/>
      <point x="491" y="510"/>
      <point x="381" y="667"/>
      <point x="130" y="803" type="curve"/>
      <point x="105" y="760" type="line"/>
      <point x="346" y="623"/>
      <point x="429.0" y="478.0"/>
      <point x="429" y="329" type="curve" smooth="yes"/>
      <point x="429.0" y="180.0"/>
      <point x="346" y="35"/>
      <point x="105" y="-102" type="curve"/>
      <point x="130" y="-145" type="line"/>
      <point x="382" y="-9"/>
      <point x="491" y="152"/>
    </contour>
  </outline>
</glyph>
<glyph name="asterisk" format="2">
  <advance width="614"/>
  <unicode hex="002A"/>
  <outline>
    <contour>
      <point x="288" y="361" type="line"/>
      <point x="325" y="361" type="line"/>
      <point x="325" y="398" type="line"/>
      <point x="288" y="398" type="line"/>
    </contour>
    <contour>
      <point x="355.0" y="630.0" type="curve"/>
      <point x="260.0" y="630.0" type="line"/>
      <point x="260.0" y="562.0"/>
      <point x="291.0" y="468.0"/>
      <point x="291" y="397" type="curve"/>
      <point x="323" y="397" type="line"/>
      <point x="323.0" y="467.0"/>
      <point x="355.0" y="562.0"/>
    </contour>
    <contour>
      <point x="61" y="420" type="line"/>
      <point x="125" y="397"/>
      <point x="224" y="395"/>
      <point x="291" y="371" type="curve"/>
      <point x="302" y="402" type="line"/>
      <point x="236" y="425"/>
      <point x="157" y="487"/>
      <point x="93" y="510" type="curve"/>
    </contour>
    <contour>
      <point x="111" y="225" type="curve"/>
      <point x="183" y="163" type="line"/>
      <point x="227" y="214"/>
      <point x="266" y="305"/>
      <point x="312" y="359" type="curve"/>
      <point x="288" y="380" type="line"/>
      <point x="243" y="327"/>
      <point x="156" y="277"/>
    </contour>
    <contour>
      <point x="503" y="225" type="line"/>
      <point x="458" y="277"/>
      <point x="371" y="327"/>
      <point x="326" y="380" type="curve"/>
      <point x="302" y="359" type="line"/>
      <point x="348" y="305"/>
      <point x="387" y="214"/>
      <point x="431" y="163" type="curve"/>
    </contour>
    <contour>
      <point x="521" y="510" type="line"/>
      <point x="457" y="487"/>
      <point x="378" y="425"/>
      <point x="312" y="402" type="curve"/>
      <point x="323" y="371" type="line"/>
      <point x="390" y="395"/>
      <point x="489" y="397"/>
      <point x="553" y="420" type="curve"/>
    </contour>
  </outline>
</glyph>
<glyph name="plus" format="2">
  <advance width="614"/>
  <unicode hex="002B"/>
  <outline>
    <contour>
      <point x="277" y="561" type="line"/>
      <point x="277" y="90" type="line"/>
      <point x="336" y="90" type="line"/>
      <point x="336" y="561" type="line"/>
    </contour>
    <contour>
      <point x="73" y="301" type="line"/>
      <point x="541" y="301" type="line"/>
      <point x="541" y="352" type="line"/>
      <point x="73" y="352" type="line"/>
    </contour>
  </outline>
</glyph>
<glyph name="comma" format="2">
  <advance width="614"/>
  <unicode hex="002C"/>
  <outline>
    <contour>
      <point x="172" y="-144" type="line"/>
      <point x="235" y="-144" type="line"/>
      <point x="344" y="-41"/>
      <point x="359" y="-12"/>
      <point x="372" y="120" type="curve"/>
      <point x="272" y="120" type="line"/>
      <point x="262" y="6"/>
      <point x="254" y="-18"/>
      <point x="172" y="-142" type="curve"/>
    </contour>
  </outline>
</glyph>
<glyph name="period" format="2">
  <advance width="614"/>
  <unicode hex="002E"/>
  <outline>
    <contour>
      <point x="307" y="-15" type="curve" smooth="yes"/>
      <point x="351" y="-15.0"/>
      <point x="378.0" y="10.421052631578952"/>
      <point x="378" y="54" type="curve" smooth="yes"/>
      <point x="378.0" y="95.77142857142857"/>
      <point x="354" y="122.0"/>
      <point x="307" y="122" type="curve" smooth="yes"/>
      <point x="263.0" y="122.0"/>
      <point x="236.0" y="97.0"/>
      <point x="236" y="53" type="curve" smooth="yes"/>
      <point x="236.0" y="11.0"/>
      <point x="260.0" y="-15.0"/>
    </contour>
  </outline>
</glyph>
<glyph name="slash" format="2">
  <advance width="614"/>
  <unicode hex="002F"/>
  <outline>
    <contour>
      <point x="572.0" y="755.0" type="line"/>
      <point x="507.0" y="755.0" type="line"/>
      <point x="42.0" y="-100.0" type="line"/>
      <point x="109.0" y="-100.0" type="line"/>
    </contour>
  </outline>
</glyph>
<glyph name="zero" format="2">
  <advance width="614"/>
  <unicode hex="0030"/>
  <outline>
    <contour>
      <point x="546" y="329" type="curve" smooth="yes"/>
      <point x="546" y="547"/>
      <point x="452" y="670"/>
      <point x="307" y="670" type="curve" smooth="yes"/>
      <point x="164" y="670"/>
      <point x="68" y="543"/>
      <point x="68" y="325" type="curve" smooth="yes"/>
      <point x="68" y="105"/>
      <point x="163" y="-15"/>
      <point x="307" y="-15" type="curve" smooth="yes"/>
      <point x="450" y="-15"/>
      <point x="546" y="108"/>
    </contour>
    <contour>
      <point x="131" y="327" type="curve" smooth="yes"/>
      <point x="131" y="518"/>
      <point x="197" y="619"/>
      <point x="307" y="619" type="curve" smooth="yes"/>
      <point x="415" y="619"/>
      <point x="483" y="520"/>
      <point x="483" y="327" type="curve" smooth="yes"/>
      <point x="483" y="137"/>
      <point x="416" y="36"/>
      <point x="307" y="36" type="curve" smooth="yes"/>
      <point x="199" y="36"/>
      <point x="131" y="135"/>
    </contour>
    <contour>
      <point x="122" y="219" type="line"/>
      <point x="122" y="165" type="line"/>
      <point x="496" y="435" type="line"/>
      <point x="496" y="489" type="line"/>
    </contour>
  </outline>
</glyph>
<glyph name="one" format="2">
  <advance width="614"/>
  <unicode hex="0031"/>
  <outline>
    <contour>
      <point x="346" y="667" type="line"/>
      <point x="294" y="618" type="line"/>
      <point x="294" y="0" type="line"/>
      <point x="355" y="0" type="line"/>
      <point x="355" y="667" type="line"/>
    </contour>
    <contour>
      <point x="121" y="480" type="line"/>
      <point x="346" y="601" type="line"/>
      <point x="346" y="667.0" type="line"/>
      <point x="121" y="546.0" type="line"/>
    </contour>
    <contour>
      <point x="123" y="0.0" type="line"/>
      <point x="526" y="0.0" type="line"/>
      <point x="526" y="51" type="line"/>
      <point x="123" y="51" type="line"/>
    </contour>
  </outline>
</glyph>
<glyph name="two" format="2">
  <advance width="614"/>
  <unicode hex="0032"/>
  <outline>
    <contour>
      <point x="91" y="0.0" type="line"/>
      <point x="538" y="0.0" type="line"/>
      <point x="538" y="51" type="line"/>
      <point x="151" y="51" type="line"/>
      <point x="91" y="22" type="line"/>
    </contour>
    <contour>
      <point x="521" y="496" type="curve" smooth="yes"/>
      <point x="521" y="600"/>
      <point x="442" y="670"/>
      <point x="330" y="670" type="curve" smooth="yes"/>
      <point x="243" y="670"/>
      <point x="180" y="642"/>
      <point x="78" y="542" type="curve"/>
      <point x="114" y="501" type="line"/>
      <point x="207" y="590"/>
      <point x="254" y="619"/>
      <point x="328" y="619" type="curve" smooth="yes"/>
      <point x="412" y="619"/>
      <point x="458" y="568"/>
      <point x="458" y="495" type="curve" smooth="yes"/>
      <point x="458" y="437"/>
      <point x="436" y="407"/>
      <point x="312" y="274" type="curve" smooth="yes"/>
      <point x="91" y="37" type="line"/>
      <point x="91" y="12" type="line"/>
      <point x="175" y="14" type="line"/>
      <point x="175" y="81" type="line"/>
      <point x="151" y="29" type="line"/>
      <point x="347" y="234" type="line" smooth="yes"/>
      <point x="490" y="384"/>
      <point x="521" y="422"/>
    </contour>
  </outline>
</glyph>
<glyph name="three" format="2">
  <advance width="614"/>
  <unicode hex="0033"/>
  <outline>
    <contour>
      <point x="287" y="357" type="line"/>
      <point x="287" y="410" type="line"/>
      <point x="261" y="358" type="line"/>
      <point x="501" y="618" type="line"/>
      <point x="501" y="639" type="line"/>
      <point x="412" y="639" type="line"/>
      <point x="412" y="574" type="line"/>
      <point x="435" y="627" type="line"/>
      <point x="194" y="353" type="line"/>
      <point x="204" y="328" type="line"/>
      <point x="227" y="332"/>
      <point x="251" y="335"/>
      <point x="283" y="335" type="curve" smooth="yes"/>
      <point x="418" y="335"/>
      <point x="468" y="284"/>
      <point x="468" y="207" type="curve" smooth="yes"/>
      <point x="468" y="122"/>
      <point x="405" y="65"/>
      <point x="216" y="51" type="curve" smooth="yes"/>
      <point x="97" y="42" type="line"/>
      <point x="102" y="-10" type="line"/>
      <point x="218" y="-2" type="line" smooth="yes"/>
      <point x="444" y="14"/>
      <point x="531" y="95"/>
      <point x="531" y="210" type="curve" smooth="yes"/>
      <point x="531" y="297"/>
      <point x="471" y="385"/>
      <point x="316" y="385" type="curve" smooth="yes"/>
      <point x="287" y="385"/>
      <point x="259" y="379"/>
      <point x="233" y="368" type="curve"/>
    </contour>
    <contour>
      <point x="79" y="604" type="line"/>
      <point x="457" y="604" type="line"/>
      <point x="501" y="634" type="line"/>
      <point x="501" y="655" type="line"/>
      <point x="79" y="655" type="line"/>
    </contour>
  </outline>
</glyph>
<glyph name="four" format="2">
  <advance width="614"/>
  <unicode hex="0034"/>
  <outline>
    <contour>
      <point x="59" y="186" type="line"/>
      <point x="578" y="186" type="line"/>
      <point x="578" y="237" type="line"/>
      <point x="420" y="237" type="line"/>
      <point x="414" y="235" type="line"/>
      <point x="98" y="235" type="line"/>
      <point x="59" y="220" type="line"/>
    </contour>
    <contour>
      <point x="59" y="208" type="line"/>
      <point x="126" y="208" type="line"/>
      <point x="126" y="265" type="line"/>
      <point x="106" y="211" type="line"/>
      <point x="407" y="634" type="line"/>
      <point x="401" y="655" type="line"/>
      <point x="358" y="655" type="line"/>
      <point x="59" y="233" type="line"/>
    </contour>
    <contour>
      <point x="446" y="655.0" type="line"/>
      <point x="387" y="655.0" type="line"/>
      <point x="387" y="209" type="line"/>
      <point x="383" y="199" type="line"/>
      <point x="383" y="0.0" type="line"/>
      <point x="446" y="0.0" type="line"/>
    </contour>
  </outline>
</glyph>
<glyph name="five" format="2">
  <advance width="614"/>
  <unicode hex="0035"/>
  <outline>
    <contour>
      <point x="147" y="655" type="line"/>
      <point x="147" y="615" type="line"/>
      <point x="164" y="604" type="line"/>
      <point x="496.0" y="604" type="line"/>
      <point x="496.0" y="655" type="line"/>
    </contour>
    <contour>
      <point x="138" y="655" type="line"/>
      <point x="111" y="316" type="line"/>
      <point x="114" y="311" type="line"/>
      <point x="154" y="307" type="line"/>
      <point x="170" y="360" type="line"/>
      <point x="196" y="655" type="line"/>
    </contour>
    <contour>
      <point x="534" y="229" type="curve" smooth="yes"/>
      <point x="534.0" y="353.01421800947867"/>
      <point x="442" y="420"/>
      <point x="338" y="420" type="curve" smooth="yes"/>
      <point x="270.4153846153846" y="420.0"/>
      <point x="209" y="397"/>
      <point x="147" y="351" type="curve"/>
      <point x="154" y="307" type="line"/>
      <point x="212" y="348"/>
      <point x="272.3551912568306" y="368.0"/>
      <point x="333" y="368" type="curve" smooth="yes"/>
      <point x="404.48201438848923" y="368.0"/>
      <point x="471.0" y="317.2049689440994"/>
      <point x="471" y="227" type="curve" smooth="yes"/>
      <point x="471.0" y="132.1923076923077"/>
      <point x="408.08297927346814" y="70.47825858830377"/>
      <point x="219" y="53" type="curve" smooth="yes"/>
      <point x="100" y="42" type="line"/>
      <point x="105" y="-10" type="line"/>
      <point x="221" y="0" type="line" smooth="yes"/>
      <point x="446.8141328833527" y="19.46673559339247"/>
      <point x="534.0" y="105.27488151658767"/>
    </contour>
  </outline>
</glyph>
<glyph name="six" format="2">
  <advance width="614"/>
  <unicode hex="0036"/>
  <outline>
    <contour>
      <point x="145.0" y="233.0" type="curve" smooth="yes"/>
      <point x="145.0" y="345.0"/>
      <point x="189.0" y="428.0"/>
      <point x="305.0" y="530.0" type="curve" smooth="yes"/>
      <point x="445.0" y="653.0" type="line"/>
      <point x="444.0" y="655.0" type="line"/>
      <point x="355.0" y="655.0" type="line"/>
      <point x="249.0" y="557.0" type="line" smooth="yes"/>
      <point x="127.0" y="444.0"/>
      <point x="82.0" y="367.0"/>
      <point x="82.0" y="229.0" type="curve" smooth="yes"/>
      <point x="82.0" y="60.0"/>
      <point x="203.0" y="-15.0"/>
      <point x="309.0" y="-15.0" type="curve" smooth="yes"/>
      <point x="439.0" y="-15.0"/>
      <point x="534.0" y="80.0"/>
      <point x="534.0" y="211.0" type="curve" smooth="yes"/>
      <point x="534.0" y="337.0"/>
      <point x="444.0" y="421.0"/>
      <point x="318.0" y="421.0" type="curve" smooth="yes"/>
      <point x="262.0" y="421.0"/>
      <point x="211.0" y="411.0"/>
      <point x="141.0" y="380.0" type="curve"/>
      <point x="125.0" y="329.0" type="line"/>
      <point x="186.0" y="356.0"/>
      <point x="248.0" y="370.0"/>
      <point x="308.0" y="370.0" type="curve" smooth="yes"/>
      <point x="411.0" y="370.0"/>
      <point x="471.0" y="303.0"/>
      <point x="471.0" y="213.0" type="curve" smooth="yes"/>
      <point x="471.0" y="115.0"/>
      <point x="409.0" y="36.0"/>
      <point x="311.0" y="36.0" type="curve" smooth="yes"/>
      <point x="218.0" y="36.0"/>
      <point x="145.0" y="110.0"/>
    </contour>
  </outline>
</glyph>
<glyph name="seven" format="2">
  <advance width="614"/>
  <unicode hex="0037"/>
  <outline>
    <contour>
      <point x="530" y="655.0" type="line"/>
      <point x="59" y="655.0" type="line"/>
      <point x="59" y="600" type="line"/>
      <point x="491" y="600" type="line"/>
      <point x="530" y="621" type="line"/>
    </contour>
    <contour>
      <point x="241" y="0" type="line"/>
      <point x="530" y="607" type="line"/>
      <point x="530" y="631" type="line"/>
      <point x="462" y="631" type="line"/>
      <point x="462" y="570" type="line"/>
      <point x="479" y="627" type="line"/>
      <point x="167" y="2" type="line"/>
      <point x="167" y="0" type="line"/>
    </contour>
  </outline>
</glyph>
<glyph name="eight" format="2">
  <advance width="614"/>
  <unicode hex="0038"/>
  <outline>
    <contour>
      <point x="381" y="338" type="line"/>
      <point x="381" y="343" type="line"/>
      <point x="458" y="367"/>
      <point x="510" y="425"/>
      <point x="510" y="494" type="curve" smooth="yes"/>
      <point x="510" y="601"/>
      <point x="426" y="670"/>
      <point x="309" y="670" type="curve" smooth="yes"/>
      <point x="191" y="670"/>
      <point x="104" y="600"/>
      <point x="104" y="492" type="curve" smooth="yes"/>
      <point x="104" y="422"/>
      <point x="157" y="366"/>
      <point x="234" y="343" type="curve"/>
    </contour>
    <contour>
      <point x="308.0" y="365" type="curve" smooth="yes"/>
      <point x="233.8978102189781" y="365.0"/>
      <point x="167.0" y="419.0"/>
      <point x="167.0" y="494" type="curve" smooth="yes"/>
      <point x="167.0" y="572.0"/>
      <point x="225.6764705882353" y="619.0"/>
      <point x="307.0" y="619" type="curve" smooth="yes"/>
      <point x="387.2941176470588" y="619.0"/>
      <point x="447.0" y="571.0"/>
      <point x="447.0" y="496" type="curve" smooth="yes"/>
      <point x="447.0" y="420.0"/>
      <point x="381.1037037037037" y="365.0"/>
    </contour>
    <contour>
      <point x="306" y="-15" type="curve" smooth="yes"/>
      <point x="435" y="-15"/>
      <point x="531" y="59"/>
      <point x="531" y="175" type="curve" smooth="yes"/>
      <point x="531" y="254"/>
      <point x="470" y="316"/>
      <point x="381" y="338" type="curve"/>
      <point x="234" y="343" type="line"/>
      <point x="234" y="338" type="line"/>
      <point x="145" y="315"/>
      <point x="83" y="252"/>
      <point x="83" y="173" type="curve" smooth="yes"/>
      <point x="83" y="58"/>
      <point x="178" y="-15"/>
    </contour>
    <contour>
      <point x="308.0" y="36" type="curve" smooth="yes"/>
      <point x="215.72151898734177" y="36.0"/>
      <point x="146.0" y="89.0"/>
      <point x="146.0" y="171" type="curve" smooth="yes"/>
      <point x="146.0" y="255.0"/>
      <point x="219.8343949044586" y="312.0"/>
      <point x="307.0" y="312" type="curve" smooth="yes"/>
      <point x="394.1656050955414" y="312.0"/>
      <point x="468.0" y="257.0"/>
      <point x="468.0" y="173" type="curve" smooth="yes"/>
      <point x="468.0" y="88.0"/>
      <point x="399.28205128205127" y="36.0"/>
    </contour>
  </outline>
</glyph>
<glyph name="nine" format="2">
  <advance width="614"/>
  <unicode hex="0039"/>
  <outline>
    <contour>
      <point x="471.0" y="422.0" type="curve" smooth="yes"/>
      <point x="471.0" y="310.0"/>
      <point x="427" y="227"/>
      <point x="311.0" y="125.0" type="curve" smooth="yes"/>
      <point x="171.0" y="2.0" type="line"/>
      <point x="172.0" y="0.0" type="line"/>
      <point x="261.0" y="0.0" type="line"/>
      <point x="367.0" y="98.0" type="line" smooth="yes"/>
      <point x="484" y="207"/>
      <point x="534.0" y="297.0"/>
      <point x="534.0" y="426.0" type="curve" smooth="yes"/>
      <point x="534.0" y="595.0"/>
      <point x="419" y="670.0"/>
      <point x="315" y="670.0" type="curve" smooth="yes"/>
      <point x="177" y="670"/>
      <point x="82.0" y="575.0"/>
      <point x="82.0" y="444.0" type="curve" smooth="yes"/>
      <point x="82.0" y="317.6018957345972"/>
      <point x="172.0" y="234.0"/>
      <point x="298.0" y="234.0" type="curve" smooth="yes"/>
      <point x="354.0" y="234.0"/>
      <point x="405.27054486312426" y="244.1198127250979"/>
      <point x="475.0" y="275.0" type="curve"/>
      <point x="491.0" y="326.0" type="line"/>
      <point x="430.0" y="299.0"/>
      <point x="368.0" y="285.0"/>
      <point x="308.0" y="285.0" type="curve" smooth="yes"/>
      <point x="205.0" y="285.0"/>
      <point x="145.0" y="352.0"/>
      <point x="145.0" y="442.0" type="curve" smooth="yes"/>
      <point x="145.0" y="540.0"/>
      <point x="207" y="619.0"/>
      <point x="305.0" y="619.0" type="curve" smooth="yes"/>
      <point x="398.0" y="619.0"/>
      <point x="471.0" y="545.0"/>
    </contour>
  </outline>
</glyph>
<glyph name="colon" format="2">
  <advance width="614"/>
  <unicode hex="003A"/>
  <outline>
    <contour>
      <point x="306" y="-15" type="curve" smooth="yes"/>
      <point x="350" y="-15"/>
      <point x="378" y="10"/>
      <point x="378" y="52" type="curve" smooth="yes"/>
      <point x="378" y="95"/>
      <point x="355" y="122"/>
      <point x="308" y="122" type="curve" smooth="yes"/>
      <point x="264" y="122"/>
      <point x="236" y="91"/>
      <point x="236" y="55" type="curve" smooth="yes"/>
      <point x="236" y="8"/>
      <point x="268" y="-15"/>
    </contour>
    <contour>
      <point x="306" y="335" type="curve" smooth="yes"/>
      <point x="350" y="335"/>
      <point x="378" y="360"/>
      <point x="378" y="402" type="curve" smooth="yes"/>
      <point x="378" y="445"/>
      <point x="355" y="472"/>
      <point x="308" y="472" type="curve" smooth="yes"/>
      <point x="264" y="472"/>
      <point x="236" y="441"/>
      <point x="236" y="405" type="curve" smooth="yes"/>
      <point x="236" y="358"/>
      <point x="268" y="335"/>
    </contour>
  </outline>
</glyph>
<glyph name="semicolon" format="2">
  <advance width="614"/>
  <unicode hex="003B"/>
  <outline>
    <contour>
      <point x="314" y="335" type="curve" smooth="yes"/>
      <point x="358" y="335"/>
      <point x="386" y="360"/>
      <point x="386" y="402" type="curve" smooth="yes"/>
      <point x="386" y="445"/>
      <point x="363" y="472"/>
      <point x="316" y="472" type="curve" smooth="yes"/>
      <point x="272" y="472"/>
      <point x="244" y="441"/>
      <point x="244" y="405" type="curve" smooth="yes"/>
      <point x="244" y="358"/>
      <point x="276" y="335"/>
    </contour>
    <contour>
      <point x="164" y="-144" type="line"/>
      <point x="227" y="-144" type="line"/>
      <point x="335.848607316975" y="-41.198537533968064"/>
      <point x="350.99813636699616" y="-12.018923042808154"/>
      <point x="364" y="120" type="curve"/>
      <point x="264" y="120" type="line"/>
      <point x="254" y="6"/>
      <point x="246" y="-18"/>
      <point x="164" y="-142" type="curve"/>
    </contour>
  </outline>
</glyph>
<glyph name="less" format="2">
  <advance width="614"/>
  <unicode hex="003C"/>
  <outline>
    <contour>
      <point x="73" y="300" type="line"/>
      <point x="536" y="497" type="line"/>
      <point x="536" y="552" type="line"/>
      <point x="73" y="349" type="line"/>
    </contour>
    <contour>
      <point x="73" y="343" type="line"/>
      <point x="73" y="294" type="line"/>
      <point x="536" y="91" type="line"/>
      <point x="536" y="146" type="line"/>
    </contour>
  </outline>
</glyph>
<glyph name="question" format="2">
  <advance width="614"/>
  <unicode hex="003F"/>
  <outline>
    <contour>
      <point x="260" y="227" type="line"/>
      <point x="267" y="310"/>
      <point x="272" y="317"/>
      <point x="298" y="331" type="curve" smooth="yes"/>
      <point x="389" y="379" type="line" smooth="yes"/>
      <point x="499" y="437"/>
      <point x="531.0" y="475.0"/>
      <point x="531" y="556" type="curve" smooth="yes"/>
      <point x="531.0" y="664.0"/>
      <point x="459.0" y="725.0"/>
      <point x="338" y="725.0" type="curve" smooth="yes"/>
      <point x="259" y="725"/>
      <point x="200" y="712"/>
      <point x="68" y="655" type="curve"/>
      <point x="91" y="604" type="line"/>
      <point x="225" y="661"/>
      <point x="282" y="674"/>
      <point x="330" y="674" type="curve" smooth="yes"/>
      <point x="415.0" y="674.0"/>
      <point x="468.0" y="638.0"/>
      <point x="468" y="557" type="curve" smooth="yes"/>
      <point x="468.0" y="503.0"/>
      <point x="445" y="469"/>
      <point x="364" y="428" type="curve" smooth="yes"/>
      <point x="257" y="374" type="line" smooth="yes"/>
      <point x="221" y="356"/>
      <point x="213.0" y="350.0"/>
      <point x="213" y="328" type="curve" smooth="yes"/>
      <point x="213.0" y="317"/>
      <point x="216" y="292"/>
      <point x="224" y="227" type="curve"/>
    </contour>
    <contour>
      <point x="237" y="-15" type="curve" smooth="yes"/>
      <point x="275.0" y="-15.0"/>
      <point x="299.0" y="4.0"/>
      <point x="299" y="37" type="curve" smooth="yes"/>
      <point x="299.0" y="71"/>
      <point x="279.0" y="92.0"/>
      <point x="239" y="92" type="curve" smooth="yes"/>
      <point x="201.0" y="92.0"/>
      <point x="177.0" y="68"/>
      <point x="177" y="40" type="curve" smooth="yes"/>
      <point x="177.0" y="3.0"/>
      <point x="204.0" y="-15.0"/>
    </contour>
  </outline>
</glyph>
<glyph name="at" format="2">
  <advance width="614"/>
  <unicode hex="0040"/>
  <outline>
    <contour>
      <point x="279" y="322" type="curve" smooth="yes"/>
      <point x="279.0" y="431.0"/>
      <point x="322.0" y="469.0"/>
      <point x="401" y="469" type="curve" smooth="yes"/>
      <point x="520.0" y="469.0" type="line"/>
      <point x="520.0" y="515.0" type="line"/>
      <point x="403" y="515" type="line" smooth="yes"/>
      <point x="290" y="515"/>
      <point x="224.0" y="461.0"/>
      <point x="224" y="323" type="curve" smooth="yes"/>
      <point x="224.0" y="187.0"/>
      <point x="276" y="129.0"/>
      <point x="394.0" y="129.0" type="curve" smooth="yes"/>
      <point x="501" y="129.0"/>
      <point x="560" y="179"/>
      <point x="560" y="358" type="curve" smooth="yes"/>
      <point x="560.0" y="661.0"/>
      <point x="484.0" y="725.0"/>
      <point x="334" y="725" type="curve" smooth="yes"/>
      <point x="165.0" y="725.0"/>
      <point x="60.0" y="627.0"/>
      <point x="60" y="315" type="curve" smooth="yes"/>
      <point x="60.0" y="24.0"/>
      <point x="152" y="-79.0"/>
      <point x="341" y="-79" type="curve" smooth="yes"/>
      <point x="390" y="-79"/>
      <point x="432" y="-73"/>
      <point x="492" y="-60" type="curve"/>
      <point x="485" y="-15" type="line"/>
      <point x="426" y="-29"/>
      <point x="382" y="-34"/>
      <point x="346" y="-34" type="curve" smooth="yes"/>
      <point x="189" y="-34"/>
      <point x="107" y="55"/>
      <point x="107" y="320" type="curve" smooth="yes"/>
      <point x="107" y="603"/>
      <point x="191" y="680"/>
      <point x="328" y="680" type="curve" smooth="yes"/>
      <point x="468" y="680"/>
      <point x="513" y="618"/>
      <point x="513" y="356" type="curve" smooth="yes"/>
      <point x="513" y="220"/>
      <point x="477" y="175"/>
      <point x="398.0" y="175.0" type="curve" smooth="yes"/>
      <point x="318" y="175.0"/>
      <point x="279.0" y="211.0"/>
    </contour>
  </outline>
</glyph>
<glyph name="A" format="2">
  <advance width="614"/>
  <unicode hex="0041"/>
  <anchor x="307" y="691" name="aboveUC"/>
  <anchor x="307" y="651" name="aboveUCx"/>
  <anchor x="534" y="-10" name="belowogonek"/>
  <anchor x="307" y="-30" name="below"/>
  <anchor x="307" y="0" name="belowx"/>
  <outline>
    <contour>
      <point x="126" y="201" type="line"/>
      <point x="475" y="201" type="line"/>
      <point x="446" y="252" type="line"/>
      <point x="145" y="252" type="line"/>
    </contour>
    <contour>
      <point x="109" y="0" type="line"/>
      <point x="182" y="222" type="line"/>
      <point x="182" y="222" type="line"/>
      <point x="315" y="627" type="line"/>
      <point x="311" y="655" type="line"/>
      <point x="271" y="655" type="line"/>
      <point x="46" y="0" type="line"/>
    </contour>
    <contour>
      <point x="568" y="0" type="line"/>
      <point x="345" y="655" type="line"/>
      <point x="300" y="655" type="line"/>
      <point x="293" y="631" type="line"/>
      <point x="429" y="224" type="line"/>
      <point x="429" y="224" type="line"/>
      <point x="504" y="0" type="line"/>
    </contour>
  </outline>
</glyph>
<glyph name="B" format="2">
  <advance width="614"/>
  <unicode hex="0042"/>
  <anchor x="301" y="-35" name="below"/>
  <outline>
    <contour>
      <point x="113" y="655" type="line"/>
      <point x="113" y="606" type="line"/>
      <point x="328" y="606" type="line" smooth="yes"/>
      <point x="415" y="606"/>
      <point x="461" y="569"/>
      <point x="461" y="496" type="curve" smooth="yes"/>
      <point x="461" y="426"/>
      <point x="401" y="364"/>
      <point x="272" y="358" type="curve" smooth="yes"/>
      <point x="113" y="351" type="line"/>
      <point x="113" y="312" type="line"/>
      <point x="365" y="337" type="line"/>
      <point x="484" y="366"/>
      <point x="523" y="425"/>
      <point x="523" y="502" type="curve" smooth="yes"/>
      <point x="523" y="596"/>
      <point x="462" y="655"/>
      <point x="330" y="655" type="curve" smooth="yes"/>
    </contour>
    <contour>
      <point x="103" y="655" type="line"/>
      <point x="103" y="0" type="line"/>
      <point x="162" y="0" type="line"/>
      <point x="162" y="655" type="line"/>
    </contour>
    <contour>
      <point x="139" y="342" type="line"/>
      <point x="139" y="309" type="line"/>
      <point x="302" y="304" type="line" smooth="yes"/>
      <point x="435" y="300"/>
      <point x="499" y="239"/>
      <point x="499" y="165" type="curve" smooth="yes"/>
      <point x="499" y="98"/>
      <point x="450" y="49"/>
      <point x="349" y="49" type="curve" smooth="yes"/>
      <point x="139" y="49" type="line"/>
      <point x="139" y="0" type="line"/>
      <point x="347" y="0" type="line" smooth="yes"/>
      <point x="506" y="0"/>
      <point x="560" y="78"/>
      <point x="560" y="161" type="curve" smooth="yes"/>
      <point x="560" y="254"/>
      <point x="494" y="317"/>
      <point x="365" y="333" type="curve"/>
      <point x="365" y="337" type="line"/>
    </contour>
  </outline>
</glyph>
<glyph name="C" format="2">
  <advance width="614"/>
  <unicode hex="0043"/>
  <anchor x="330" y="691" name="aboveUC"/>
  <anchor x="330" y="656" name="aboveUCx"/>
  <anchor x="331" y="-40" name="below"/>
  <anchor x="325" y="-15" name="belowcedilla"/>
  <outline>
    <contour>
      <point x="319.0" y="-15.0" type="curve" smooth="yes"/>
      <point x="394.0" y="-15.0"/>
      <point x="460" y="10"/>
      <point x="556" y="88" type="curve"/>
      <point x="525" y="128" type="line"/>
      <point x="436" y="57"/>
      <point x="380.0" y="36.0"/>
      <point x="327.0" y="36.0" type="curve" smooth="yes"/>
      <point x="206" y="36"/>
      <point x="121" y="130"/>
      <point x="121" y="328" type="curve" smooth="yes"/>
      <point x="121.0" y="510.0"/>
      <point x="209.26699029126215" y="619.0"/>
      <point x="330.0" y="619.0" type="curve" smooth="yes"/>
      <point x="376.0" y="619.0"/>
      <point x="425" y="603"/>
      <point x="516" y="529" type="curve"/>
      <point x="551" y="576" type="line"/>
      <point x="451" y="650"/>
      <point x="402" y="670.0"/>
      <point x="330.0" y="670.0" type="curve" smooth="yes"/>
      <point x="174.2825278810409" y="670.0"/>
      <point x="58.0" y="535.0"/>
      <point x="58" y="326" type="curve" smooth="yes"/>
      <point x="58" y="115"/>
      <point x="149" y="-15"/>
    </contour>
  </outline>
</glyph>
<glyph name="D" format="2">
  <advance width="614"/>
  <unicode hex="0044"/>
  <anchor x="273" y="691" name="aboveUC"/>
  <anchor x="274" y="-35" name="below"/>
  <outline>
    <contour>
      <point x="100" y="655" type="line"/>
      <point x="100" y="0" type="line"/>
      <point x="152" y="0" type="line"/>
      <point x="161" y="27" type="line"/>
      <point x="161" y="622" type="line"/>
      <point x="161" y="655" type="line"/>
    </contour>
    <contour>
      <point x="200" y="655" type="curve" smooth="yes"/>
      <point x="149" y="655" type="line"/>
      <point x="149" y="604" type="line"/>
      <point x="213" y="604" type="line" smooth="yes"/>
      <point x="382.0" y="604.0"/>
      <point x="496.0" y="513.0"/>
      <point x="496" y="335" type="curve" smooth="yes"/>
      <point x="496.0" y="150.0"/>
      <point x="382.0" y="51.0"/>
      <point x="182" y="51" type="curve" smooth="yes"/>
      <point x="149" y="51" type="line"/>
      <point x="149" y="0" type="line"/>
      <point x="160" y="0" type="line" smooth="yes"/>
      <point x="411.0" y="0.0"/>
      <point x="559.0" y="120.0"/>
      <point x="559" y="337" type="curve" smooth="yes"/>
      <point x="559.0" y="542.0"/>
      <point x="419.0" y="655.0"/>
    </contour>
  </outline>
</glyph>
<glyph name="E" format="2">
  <advance width="614"/>
  <unicode hex="0045"/>
  <anchor x="335" y="691" name="aboveUC"/>
  <anchor x="457" y="-10" name="belowogonek"/>
  <anchor x="335" y="-35" name="below"/>
  <outline>
    <contour>
      <point x="103" y="655" type="line"/>
      <point x="103" y="0" type="line"/>
      <point x="164" y="0" type="line"/>
      <point x="164" y="655" type="line"/>
    </contour>
    <contour>
      <point x="116" y="604" type="line"/>
      <point x="533" y="604" type="line"/>
      <point x="533" y="655" type="line"/>
      <point x="116" y="655" type="line"/>
    </contour>
    <contour>
      <point x="116" y="0" type="line"/>
      <point x="542" y="0" type="line"/>
      <point x="542" y="51" type="line"/>
      <point x="116" y="51" type="line"/>
    </contour>
    <contour>
      <point x="116" y="306" type="line"/>
      <point x="469" y="306" type="line"/>
      <point x="469" y="357" type="line"/>
      <point x="116" y="357" type="line"/>
    </contour>
  </outline>
</glyph>
<glyph name="F" format="2">
  <advance width="614"/>
  <unicode hex="0046"/>
  <outline>
    <contour>
      <point x="103" y="655" type="line"/>
      <point x="103" y="0" type="line"/>
      <point x="164" y="0" type="line"/>
      <point x="164" y="655" type="line"/>
    </contour>
    <contour>
      <point x="116" y="604" type="line"/>
      <point x="529" y="604" type="line"/>
      <point x="529" y="655" type="line"/>
      <point x="116" y="655" type="line"/>
    </contour>
    <contour>
      <point x="116" y="275" type="line"/>
      <point x="493" y="275" type="line"/>
      <point x="493" y="326" type="line"/>
      <point x="116" y="326" type="line"/>
    </contour>
  </outline>
</glyph>
<glyph name="G" format="2">
  <advance width="614"/>
  <unicode hex="0047"/>
  <anchor x="352" y="696" name="aboveUC"/>
  <anchor x="352" y="661" name="aboveUCx"/>
  <anchor x="365" y="-40" name="below"/>
  <outline>
    <contour>
      <point x="500" y="603" type="curve"/>
      <point x="505" y="655" type="line"/>
      <point x="455" y="662"/>
      <point x="427" y="664.0"/>
      <point x="395" y="664" type="curve" smooth="yes"/>
      <point x="201.0" y="664.0"/>
      <point x="58.0" y="543.4269005847952"/>
      <point x="58" y="326" type="curve" smooth="yes"/>
      <point x="58.0" y="110.8452380952381"/>
      <point x="155.0" y="-15.0"/>
      <point x="371.0" y="-15.0" type="curve" smooth="yes"/>
      <point x="429.0" y="-15.0"/>
      <point x="485" y="-7"/>
      <point x="548" y="10" type="curve"/>
      <point x="548" y="343" type="line"/>
      <point x="312" y="343" type="line"/>
      <point x="312" y="292" type="line"/>
      <point x="523" y="292" type="line"/>
      <point x="488" y="307" type="line"/>
      <point x="488" y="17" type="line"/>
      <point x="516" y="57" type="line"/>
      <point x="474" y="43"/>
      <point x="420.0" y="36.0"/>
      <point x="374.0" y="36.0" type="curve" smooth="yes"/>
      <point x="208.0" y="36.0"/>
      <point x="121.0" y="140.79442508710804"/>
      <point x="121" y="328" type="curve" smooth="yes"/>
      <point x="121.0" y="516.3564013840831"/>
      <point x="237.0" y="613.0"/>
      <point x="393" y="613" type="curve" smooth="yes"/>
      <point x="430" y="613.0"/>
      <point x="454" y="611"/>
    </contour>
  </outline>
</glyph>
<glyph name="H" format="2">
  <advance width="614"/>
  <unicode hex="0048"/>
  <anchor x="307" y="691" name="aboveUC"/>
  <anchor x="307" y="-35" name="below"/>
  <anchor x="132" y="-10" name="belowcedilla"/>
  <anchor x="307" y="0" name="belowx"/>
  <anchor x="307" y="656" name="aboveUCx"/>
  <outline>
    <contour>
      <point x="100" y="655" type="line"/>
      <point x="100" y="0" type="line"/>
      <point x="161" y="0" type="line"/>
      <point x="161" y="655" type="line"/>
    </contour>
    <contour>
      <point x="453" y="655" type="line"/>
      <point x="453" y="0" type="line"/>
      <point x="514" y="0" type="line"/>
      <point x="514" y="655" type="line"/>
    </contour>
    <contour>
      <point x="133" y="305" type="line"/>
      <point x="478" y="305" type="line"/>
      <point x="478" y="356" type="line"/>
      <point x="133" y="356" type="line"/>
    </contour>
  </outline>
</glyph>
<glyph name="I" format="2">
  <advance width="614"/>
  <unicode hex="0049"/>
  <anchor x="307" y="-35" name="below"/>
  <anchor x="307" y="-9" name="belowogonek"/>
  <anchor x="307" y="691" name="aboveUC"/>
  <anchor x="307" y="661" name="aboveUCx"/>
  <outline>
    <contour>
      <point x="277" y="655" type="line"/>
      <point x="277" y="0" type="line"/>
      <point x="338" y="0" type="line"/>
      <point x="338" y="655" type="line"/>
    </contour>
    <contour>
      <point x="139" y="629" type="line"/>
      <point x="307" y="602" type="line"/>
      <point x="475" y="629" type="line"/>
      <point x="475" y="655" type="line"/>
      <point x="139" y="655" type="line"/>
    </contour>
    <contour>
      <point x="139" y="26" type="line"/>
      <point x="139" y="0" type="line"/>
      <point x="475" y="0" type="line"/>
      <point x="475" y="26" type="line"/>
      <point x="307" y="53" type="line"/>
    </contour>
  </outline>
</glyph>
<glyph name="J" format="2">
  <advance width="614"/>
  <unicode hex="004A"/>
  <anchor x="472" y="691" name="aboveUC"/>
  <anchor x="472" y="651" name="aboveUCx"/>
  <outline>
    <contour>
      <point x="319" y="-10" type="curve" smooth="yes"/>
      <point x="447.9896907216495" y="-10.0"/>
      <point x="503" y="66.90476190476191"/>
      <point x="503" y="180" type="curve" smooth="yes"/>
      <point x="503" y="655" type="line"/>
      <point x="442" y="655" type="line"/>
      <point x="442" y="182" type="line" smooth="yes"/>
      <point x="442" y="87.33333333333334"/>
      <point x="401.3587786259542" y="40.0"/>
      <point x="321" y="40" type="curve" smooth="yes"/>
      <point x="266.44635193133047" y="40.0"/>
      <point x="217" y="56"/>
      <point x="98" y="175" type="curve"/>
      <point x="58" y="134" type="line"/>
      <point x="187" y="13"/>
      <point x="240.02583025830256" y="-10.0"/>
    </contour>
  </outline>
</glyph>
<glyph name="K" format="2">
  <advance width="614"/>
  <unicode hex="004B"/>
  <anchor x="321" y="-35" name="below"/>
  <anchor x="321" y="0" name="belowx"/>
  <outline>
    <contour>
      <point x="164" y="655" type="line"/>
      <point x="103" y="655" type="line"/>
      <point x="103" y="0" type="line"/>
      <point x="164" y="0" type="line"/>
    </contour>
    <contour>
      <point x="157" y="331" type="line"/>
      <point x="224" y="323" type="line"/>
      <point x="570" y="653" type="line"/>
      <point x="570" y="655" type="line"/>
      <point x="490" y="655" type="line"/>
    </contour>
    <contour>
      <point x="157" y="331" type="line"/>
      <point x="499" y="0" type="line"/>
      <point x="585" y="0" type="line"/>
      <point x="585" y="2" type="line"/>
      <point x="219" y="350" type="line"/>
    </contour>
  </outline>
</glyph>
<glyph name="L" format="2">
  <advance width="614"/>
  <unicode hex="004C"/>
  <anchor x="138" y="691" name="aboveUC"/>
  <anchor x="337" y="-35" name="below"/>
  <anchor x="344" y="655" name="topright"/>
  <outline>
    <contour>
      <point x="103" y="655" type="line"/>
      <point x="103" y="0" type="line"/>
      <point x="164" y="0" type="line"/>
      <point x="164" y="655" type="line"/>
    </contour>
    <contour>
      <point x="112" y="0" type="line"/>
      <point x="539" y="0" type="line"/>
      <point x="539" y="50" type="line"/>
      <point x="112" y="50" type="line"/>
    </contour>
  </outline>
</glyph>
<glyph name="M" format="2">
  <advance width="614"/>
  <unicode hex="004D"/>
  <anchor x="307" y="691" name="aboveUC"/>
  <anchor x="307" y="656" name="aboveUCx"/>
  <anchor x="307" y="-35" name="below"/>
  <anchor x="307" y="0" name="belowx"/>
  <outline>
    <contour>
      <point x="522" y="655" type="line"/>
      <point x="468" y="655" type="line"/>
      <point x="488" y="0" type="line"/>
      <point x="547" y="0" type="line"/>
    </contour>
    <contour>
      <point x="146" y="655" type="line"/>
      <point x="92" y="655" type="line"/>
      <point x="67" y="0" type="line"/>
      <point x="126" y="0" type="line"/>
    </contour>
    <contour>
      <point x="493" y="655" type="line"/>
      <point x="443" y="655" type="line"/>
      <point x="289" y="247" type="line"/>
      <point x="329" y="247" type="line"/>
      <point x="171" y="655" type="line"/>
      <point x="115" y="655" type="line"/>
      <point x="297" y="185" type="line"/>
      <point x="318" y="185" type="line"/>
    </contour>
  </outline>
</glyph>
<glyph name="N" format="2">
  <advance width="614"/>
  <unicode hex="004E"/>
  <anchor x="313" y="691" name="aboveUC"/>
  <anchor x="313" y="656" name="aboveUCx"/>
  <anchor x="307" y="-35" name="below"/>
  <anchor x="307" y="0" name="belowx"/>
  <outline>
    <contour>
      <point x="140" y="639" type="line"/>
      <point x="426" y="0" type="line"/>
      <point x="480" y="0" type="line"/>
      <point x="481" y="16" type="line"/>
      <point x="196" y="655" type="line"/>
      <point x="142" y="655" type="line"/>
    </contour>
    <contour>
      <point x="517" y="0" type="line"/>
      <point x="517" y="655" type="line"/>
      <point x="459" y="655" type="line"/>
      <point x="464" y="0" type="line"/>
    </contour>
    <contour>
      <point x="155" y="0" type="line"/>
      <point x="150" y="655" type="line"/>
      <point x="97" y="655" type="line"/>
      <point x="97" y="0" type="line"/>
    </contour>
  </outline>
</glyph>
<glyph name="P" format="2">
  <advance width="614"/>
  <unicode hex="0050"/>
  <anchor x="324" y="691" name="aboveUC"/>
  <outline>
    <contour>
      <point x="134" y="655" type="line"/>
      <point x="134" y="604" type="line"/>
      <point x="318" y="604" type="line" smooth="yes"/>
      <point x="439" y="604"/>
      <point x="504" y="546"/>
      <point x="504" y="446" type="curve" smooth="yes"/>
      <point x="504" y="349"/>
      <point x="434" y="286"/>
      <point x="310" y="286" type="curve" smooth="yes"/>
      <point x="134" y="286" type="line"/>
      <point x="134" y="236" type="line"/>
      <point x="306" y="236" type="line" smooth="yes"/>
      <point x="466" y="236"/>
      <point x="566" y="315"/>
      <point x="566" y="448" type="curve" smooth="yes"/>
      <point x="566" y="576"/>
      <point x="478" y="655"/>
      <point x="322" y="655" type="curve" smooth="yes"/>
    </contour>
    <contour>
      <point x="103" y="655" type="line"/>
      <point x="103" y="0" type="line"/>
      <point x="164" y="0" type="line"/>
      <point x="164" y="655" type="line"/>
    </contour>
  </outline>
</glyph>
<glyph name="R" format="2">
  <advance width="614"/>
  <unicode hex="0052"/>
  <anchor x="333" y="691" name="aboveUC"/>
  <anchor x="321" y="-35" name="below"/>
  <anchor x="321" y="0" name="belowx"/>
  <outline>
    <contour>
      <point x="148" y="655" type="line"/>
      <point x="148" y="605" type="line"/>
      <point x="325" y="605" type="line" smooth="yes"/>
      <point x="425" y="605"/>
      <point x="472" y="553"/>
      <point x="472" y="478" type="curve" smooth="yes"/>
      <point x="472" y="395"/>
      <point x="428" y="340"/>
      <point x="220" y="317" type="curve" smooth="yes"/>
      <point x="148" y="309" type="line"/>
      <point x="148" y="276" type="line"/>
      <point x="286" y="276" type="line"/>
      <point x="286" y="287" type="line"/>
      <point x="497" y="313"/>
      <point x="534" y="389"/>
      <point x="534" y="483" type="curve" smooth="yes"/>
      <point x="534" y="586"/>
      <point x="456" y="655"/>
      <point x="337" y="655" type="curve" smooth="yes"/>
    </contour>
    <contour>
      <point x="103" y="655" type="line"/>
      <point x="103" y="0" type="line"/>
      <point x="164" y="0" type="line"/>
      <point x="164" y="655" type="line"/>
    </contour>
    <contour>
      <point x="572" y="4" type="line"/>
      <point x="406" y="191" type="line" smooth="yes"/>
      <point x="348" y="257"/>
      <point x="330" y="267"/>
      <point x="286" y="282" type="curve"/>
      <point x="148" y="282" type="line"/>
      <point x="148" y="272" type="line"/>
      <point x="250" y="263"/>
      <point x="276" y="253"/>
      <point x="338" y="181" type="curve" smooth="yes"/>
      <point x="494" y="0" type="line"/>
      <point x="572" y="0" type="line"/>
    </contour>
  </outline>
</glyph>
<glyph name="T" format="2">
  <advance width="614"/>
  <unicode hex="0054"/>
  <anchor x="307" y="691" name="aboveUC"/>
  <anchor x="307" y="-35" name="below"/>
  <anchor x="307" y="-10" name="belowcedilla"/>
  <outline>
    <contour>
      <point x="277" y="636" type="line"/>
      <point x="277" y="0" type="line"/>
      <point x="338" y="0" type="line"/>
      <point x="338" y="636" type="line"/>
    </contour>
    <contour>
      <point x="56" y="604" type="line"/>
      <point x="558" y="604" type="line"/>
      <point x="558" y="655" type="line"/>
      <point x="56" y="655" type="line"/>
    </contour>
  </outline>
</glyph>
<glyph name="U" format="2">
  <advance width="614"/>
  <unicode hex="0055"/>
  <anchor x="307" y="691" name="aboveUC"/>
  <anchor x="307" y="656" name="aboveUCx"/>
  <anchor x="307" y="-40" name="below"/>
  <anchor x="326" y="-15" name="belowogonek"/>
  <outline>
    <contour>
      <point x="472" y="234" type="line" smooth="yes"/>
      <point x="472" y="97"/>
      <point x="417" y="36"/>
      <point x="307" y="36" type="curve" smooth="yes"/>
      <point x="201" y="36"/>
      <point x="143" y="99"/>
      <point x="143" y="234" type="curve" smooth="yes"/>
      <point x="143" y="655" type="line"/>
      <point x="82" y="655" type="line"/>
      <point x="82" y="234" type="line" smooth="yes"/>
      <point x="82" y="69"/>
      <point x="162" y="-15"/>
      <point x="306" y="-15" type="curve" smooth="yes"/>
      <point x="453" y="-15"/>
      <point x="532" y="67"/>
      <point x="532" y="234" type="curve" smooth="yes"/>
      <point x="532" y="655" type="line"/>
      <point x="472" y="655" type="line"/>
    </contour>
  </outline>
</glyph>
<glyph name="V" format="2">
  <advance width="614"/>
  <unicode hex="0056"/>
  <anchor x="307" y="-35" name="below"/>
  <outline>
    <contour>
      <point x="507" y="655" type="line"/>
      <point x="296" y="30" type="line"/>
      <point x="299" y="0" type="line"/>
      <point x="343" y="0" type="line"/>
      <point x="568" y="655" type="line"/>
    </contour>
    <contour>
      <point x="46" y="655" type="line"/>
      <point x="271" y="0" type="line"/>
      <point x="319" y="0" type="line"/>
      <point x="324" y="26" type="line"/>
      <point x="109" y="655" type="line"/>
    </contour>
  </outline>
</glyph>
<glyph name="W" format="2">
  <advance width="614"/>
  <unicode hex="0057"/>
  <anchor x="307" y="691" name="aboveUC"/>
  <anchor x="307" y="651" name="aboveUCx"/>
  <outline>
    <contour>
      <point x="471" y="0" type="line"/>
      <point x="563" y="655" type="line"/>
      <point x="505" y="655" type="line"/>
      <point x="427" y="27" type="line"/>
      <point x="430" y="0" type="line"/>
    </contour>
    <contour>
      <point x="186" y="0" type="line"/>
      <point x="190" y="27" type="line"/>
      <point x="113" y="655" type="line"/>
      <point x="51" y="655" type="line"/>
      <point x="143" y="0" type="line"/>
    </contour>
    <contour>
      <point x="437" y="0" type="line"/>
      <point x="440" y="27" type="line"/>
      <point x="320" y="531" type="line"/>
      <point x="296" y="531" type="line"/>
      <point x="175" y="27" type="line"/>
      <point x="177" y="0" type="line"/>
      <point x="216" y="0" type="line"/>
      <point x="318" y="429" type="line"/>
      <point x="293" y="429" type="line"/>
      <point x="396" y="0" type="line"/>
    </contour>
  </outline>
</glyph>
<glyph name="X" format="2">
  <advance width="614"/>
  <unicode hex="0058"/>
  <anchor x="307" y="691" name="aboveUC"/>
  <anchor x="307" y="656" name="aboveUCx"/>
  <anchor x="307" y="-35" name="below"/>
  <anchor x="307" y="0" name="belowx"/>
  <outline>
    <contour>
      <point x="57" y="0" type="line"/>
      <point x="125" y="0" type="line"/>
      <point x="317" y="314" type="line"/>
      <point x="322" y="314" type="line"/>
      <point x="538" y="655" type="line"/>
      <point x="467" y="655" type="line"/>
      <point x="291" y="359" type="line"/>
      <point x="285" y="359" type="line"/>
    </contour>
    <contour>
      <point x="557" y="0" type="line"/>
      <point x="327" y="359" type="line"/>
      <point x="321" y="359" type="line"/>
      <point x="145" y="655" type="line"/>
      <point x="71" y="655" type="line"/>
      <point x="285" y="314" type="line"/>
      <point x="290" y="314" type="line"/>
      <point x="481" y="0" type="line"/>
    </contour>
  </outline>
</glyph>
<glyph name="Y" format="2">
  <advance width="614"/>
  <unicode hex="0059"/>
  <anchor x="306" y="691" name="aboveUC"/>
  <anchor x="306" y="656" name="aboveUCx"/>
  <anchor x="307" y="-35" name="below"/>
  <outline>
    <contour>
      <point x="317" y="325" type="line"/>
      <point x="125" y="655" type="line"/>
      <point x="53" y="655" type="line"/>
      <point x="313" y="219" type="line"/>
    </contour>
    <contour>
      <point x="277" y="297" type="line"/>
      <point x="277" y="0" type="line"/>
      <point x="338" y="0" type="line"/>
      <point x="338" y="297" type="line"/>
    </contour>
    <contour>
      <point x="301" y="327" type="line"/>
      <point x="303" y="225" type="line"/>
      <point x="561" y="655" type="line"/>
      <point x="491" y="655" type="line"/>
    </contour>
  </outline>
</glyph>
<glyph name="Z" format="2">
  <advance width="614"/>
  <unicode hex="005A"/>
  <anchor x="306" y="691" name="aboveUC"/>
  <anchor x="306" y="-35" name="below"/>
  <anchor x="306" y="-10" name="belowcedilla"/>
  <outline>
    <contour>
      <point x="73" y="0" type="line"/>
      <point x="542" y="0" type="line"/>
      <point x="542" y="50" type="line"/>
      <point x="124" y="50" type="line"/>
      <point x="73" y="18" type="line"/>
    </contour>
    <contour>
      <point x="73" y="16" type="line"/>
      <point x="153" y="16" type="line"/>
      <point x="153" y="80" type="line"/>
      <point x="133" y="25" type="line"/>
      <point x="524" y="618" type="line"/>
      <point x="524" y="639" type="line"/>
      <point x="443" y="639" type="line"/>
      <point x="443" y="574" type="line"/>
      <point x="462" y="629" type="line"/>
      <point x="73" y="36" type="line"/>
    </contour>
    <contour>
      <point x="92" y="604" type="line"/>
      <point x="480" y="604" type="line"/>
      <point x="524" y="634" type="line"/>
      <point x="524" y="655" type="line"/>
      <point x="92" y="655" type="line"/>
    </contour>
  </outline>
</glyph>
<glyph name="backslash" format="2">
  <advance width="614"/>
  <unicode hex="005C"/>
  <outline>
    <contour>
      <point x="42.0" y="755" type="line"/>
      <point x="505.0" y="-100" type="line"/>
      <point x="572.0" y="-100" type="line"/>
      <point x="107.0" y="755" type="line"/>
    </contour>
  </outline>
</glyph>
<glyph name="bracketright" format="2">
  <advance width="614"/>
  <unicode hex="005D"/>
  <outline>
    <contour>
      <point x="348" y="-129" type="line"/>
      <point x="409" y="-129" type="line"/>
      <point x="409" y="783" type="line"/>
      <point x="348" y="783" type="line"/>
    </contour>
    <contour>
      <point x="374" y="-78" type="line"/>
      <point x="100" y="-78" type="line"/>
      <point x="100" y="-129" type="line"/>
      <point x="374" y="-129" type="line"/>
    </contour>
    <contour>
      <point x="374" y="783" type="line"/>
      <point x="100" y="783" type="line"/>
      <point x="100" y="732" type="line"/>
      <point x="374" y="732" type="line"/>
    </contour>
  </outline>
</glyph>
<glyph name="underscore" format="2">
  <advance width="614"/>
  <unicode hex="005F"/>
  <outline>
    <contour>
      <point x="78" y="-26" type="line"/>
      <point x="78" y="-81" type="line"/>
      <point x="536" y="-81" type="line"/>
      <point x="536" y="-26" type="line"/>
    </contour>
  </outline>
</glyph>
<glyph name="b" format="2">
  <advance width="614"/>
  <unicode hex="0062"/>
  <anchor x="306" y="-35" name="below"/>
  <outline>
    <contour>
      <point x="159" y="710" type="line"/>
      <point x="100" y="710" type="line"/>
      <point x="100" y="-2" type="line"/>
      <point x="128" y="-2" type="line"/>
      <point x="159" y="44" type="line"/>
    </contour>
    <contour>
      <point x="128" y="113" type="curve"/>
      <point x="116" y="64" type="line"/>
      <point x="177.38075158197802" y="12.681666710149528"/>
      <point x="240.3015873015873" y="-8.0"/>
      <point x="307" y="-8" type="curve" smooth="yes"/>
      <point x="444" y="-8.0"/>
      <point x="548.0" y="100.0"/>
      <point x="548" y="233" type="curve" smooth="yes"/>
      <point x="548.0" y="373.0"/>
      <point x="454" y="468.0"/>
      <point x="340" y="468" type="curve" smooth="yes"/>
      <point x="269.2783505154639" y="468.0"/>
      <point x="216.3240735036096" y="441.3690837124443"/>
      <point x="144" y="359" type="curve"/>
      <point x="131" y="285" type="line"/>
      <point x="224.40337503402057" y="392.4640981574215"/>
      <point x="276.4472361809045" y="418.0"/>
      <point x="332" y="418" type="curve" smooth="yes"/>
      <point x="413" y="418.0"/>
      <point x="488.0" y="346.0"/>
      <point x="488" y="234" type="curve" smooth="yes"/>
      <point x="488.0" y="137.0"/>
      <point x="422" y="42.0"/>
      <point x="294" y="42" type="curve" smooth="yes"/>
      <point x="243.390243902439" y="42.0"/>
      <point x="189.44603675275602" y="62.63439610429835"/>
    </contour>
  </outline>
</glyph>
<glyph name="c" format="2">
  <advance width="614"/>
  <unicode hex="0063"/>
  <anchor x="308" y="-15" name="belowcedilla"/>
  <anchor x="330" y="472" name="aboveLCx"/>
  <anchor x="323" y="-40" name="below"/>
  <anchor x="330" y="507" name="aboveLC"/>
  <outline>
    <contour>
      <point x="324" y="425" type="curve" smooth="yes"/>
      <point x="371.0" y="425.0"/>
      <point x="416" y="415"/>
      <point x="509" y="356" type="curve"/>
      <point x="536" y="401" type="line"/>
      <point x="442" y="463"/>
      <point x="383" y="475"/>
      <point x="326" y="475" type="curve" smooth="yes"/>
      <point x="186" y="475"/>
      <point x="77.0" y="373.0"/>
      <point x="77" y="235" type="curve" smooth="yes"/>
      <point x="77" y="76"/>
      <point x="180" y="-15"/>
      <point x="315" y="-15" type="curve" smooth="yes"/>
      <point x="379.0" y="-15.0"/>
      <point x="439" y="0"/>
      <point x="537" y="56" type="curve"/>
      <point x="513" y="98" type="line"/>
      <point x="422" y="48"/>
      <point x="366.0" y="35.0"/>
      <point x="315" y="35" type="curve" smooth="yes"/>
      <point x="212" y="35"/>
      <point x="137" y="118"/>
      <point x="137" y="233" type="curve" smooth="yes"/>
      <point x="137" y="345"/>
      <point x="213" y="425"/>
    </contour>
  </outline>
</glyph>
<glyph name="d" format="2">
  <advance width="614"/>
  <unicode hex="0064"/>
  <anchor x="300" y="-35" name="below"/>
  <anchor x="620" y="787" name="topright"/>
  <outline>
    <contour>
      <point x="465" y="0" type="line"/>
      <point x="514" y="0" type="line"/>
      <point x="514" y="710" type="line"/>
      <point x="455" y="710" type="line"/>
      <point x="455" y="104" type="line"/>
      <point x="455" y="104" type="line"/>
    </contour>
    <contour>
      <point x="274" y="-8" type="curve" smooth="yes"/>
      <point x="344.7216494845361" y="-8.0"/>
      <point x="397.6759264963904" y="18.630916287555692"/>
      <point x="470" y="101" type="curve"/>
      <point x="483" y="175" type="line"/>
      <point x="389.5966249659794" y="67.53590184257847"/>
      <point x="337.5527638190955" y="42.0"/>
      <point x="282" y="42" type="curve" smooth="yes"/>
      <point x="201" y="42.0"/>
      <point x="126.0" y="114.0"/>
      <point x="126" y="226" type="curve" smooth="yes"/>
      <point x="126.0" y="333.0"/>
      <point x="190" y="418"/>
      <point x="301" y="418" type="curve" smooth="yes"/>
      <point x="343" y="418"/>
      <point x="407" y="400"/>
      <point x="488" y="302" type="curve"/>
      <point x="475" y="377" type="line"/>
      <point x="405.6363069722189" y="451.3900475950116"/>
      <point x="345" y="468"/>
      <point x="296" y="468" type="curve" smooth="yes"/>
      <point x="165" y="468"/>
      <point x="66.0" y="367.0"/>
      <point x="66" y="227" type="curve" smooth="yes"/>
      <point x="66.0" y="87.0"/>
      <point x="160" y="-8.0"/>
    </contour>
  </outline>
</glyph>
<glyph name="e" format="2">
  <advance width="614"/>
  <unicode hex="0065"/>
  <anchor x="319" y="-35" name="below"/>
  <anchor x="383" y="-10" name="belowogonek"/>
  <anchor x="318" y="472" name="aboveLCx"/>
  <anchor x="318" y="507" name="aboveLC"/>
  <outline>
    <contour>
      <point x="345" y="46" type="line" smooth="yes"/>
      <point x="208" y="49"/>
      <point x="143.0" y="109"/>
      <point x="143.0" y="220.0" type="curve" smooth="yes"/>
      <point x="143.0" y="351"/>
      <point x="223.0" y="425.0"/>
      <point x="318" y="425" type="curve" smooth="yes"/>
      <point x="410.0" y="425.0"/>
      <point x="473.0" y="370.0"/>
      <point x="473" y="226" type="curve"/>
      <point x="489" y="255" type="line"/>
      <point x="103" y="255" type="line"/>
      <point x="103" y="206" type="line"/>
      <point x="531" y="206" type="line"/>
      <point x="532" y="213"/>
      <point x="533.0" y="221"/>
      <point x="533" y="231" type="curve" smooth="yes"/>
      <point x="533.0" y="398.0"/>
      <point x="448.0" y="475.0"/>
      <point x="318" y="475" type="curve" smooth="yes"/>
      <point x="187.0" y="475.0"/>
      <point x="83.0" y="372"/>
      <point x="83.0" y="220.0" type="curve" smooth="yes"/>
      <point x="83.0" y="83"/>
      <point x="160" y="0"/>
      <point x="331" y="-3" type="curve" smooth="yes"/>
      <point x="448" y="-5" type="line"/>
      <point x="450" y="44" type="line"/>
    </contour>
  </outline>
</glyph>
<glyph name="f" format="2">
  <advance width="614"/>
  <unicode hex="0066"/>
  <outline>
    <contour>
      <point x="78" y="410" type="line"/>
      <point x="505" y="410" type="line"/>
      <point x="505" y="460" type="line"/>
      <point x="78" y="460" type="line"/>
    </contour>
    <contour>
      <point x="239" y="537" type="curve" smooth="yes"/>
      <point x="239" y="435" type="line"/>
      <point x="239" y="435" type="line"/>
      <point x="239" y="0" type="line"/>
      <point x="298" y="0" type="line"/>
      <point x="298" y="435" type="line"/>
      <point x="298" y="435" type="line"/>
      <point x="298" y="534" type="line" smooth="yes"/>
      <point x="298" y="617"/>
      <point x="326" y="653"/>
      <point x="422" y="659" type="curve" smooth="yes"/>
      <point x="544" y="667" type="line"/>
      <point x="540" y="719" type="line"/>
      <point x="415" y="711" type="line" smooth="yes"/>
      <point x="288" y="703"/>
      <point x="239" y="650"/>
    </contour>
  </outline>
</glyph>
<glyph name="g" format="2">
  <advance width="614"/>
  <unicode hex="0067"/>
  <anchor x="302" y="502" name="aboveLC"/>
  <anchor x="302" y="467" name="aboveLCx"/>
  <outline>
    <contour>
      <point x="455" y="-22" type="line" smooth="yes"/>
      <point x="455" y="-128.53571428571428"/>
      <point x="415" y="-173"/>
      <point x="306" y="-179" type="curve" smooth="yes"/>
      <point x="137" y="-188" type="line"/>
      <point x="140" y="-239" type="line"/>
      <point x="315" y="-230" type="line" smooth="yes"/>
      <point x="454" y="-223"/>
      <point x="514" y="-160.30316742081448"/>
      <point x="514" y="-19" type="curve" smooth="yes"/>
      <point x="514" y="462" type="line"/>
      <point x="486" y="462" type="line"/>
      <point x="455" y="421" type="line"/>
    </contour>
    <contour>
      <point x="66" y="239" type="curve" smooth="yes"/>
      <point x="66.0" y="106.0"/>
      <point x="160" y="16.0"/>
      <point x="274" y="16" type="curve" smooth="yes"/>
      <point x="344.7216494845361" y="16.0"/>
      <point x="397.6759264963904" y="42.63091628755569"/>
      <point x="470" y="125" type="curve"/>
      <point x="483" y="199" type="line"/>
      <point x="389.5966249659794" y="91.53590184257847"/>
      <point x="337.5527638190955" y="66.0"/>
      <point x="282" y="66" type="curve" smooth="yes"/>
      <point x="201" y="66.0"/>
      <point x="126.0" y="133.0"/>
      <point x="126" y="238" type="curve" smooth="yes"/>
      <point x="126.0" y="329.0"/>
      <point x="192" y="418.0"/>
      <point x="320" y="418" type="curve" smooth="yes"/>
      <point x="370.609756097561" y="418.0"/>
      <point x="424.553963247244" y="397.36560389570167"/>
      <point x="486" y="347" type="curve"/>
      <point x="498" y="396" type="line"/>
      <point x="436.619248418022" y="447.31833328985044"/>
      <point x="373.6984126984127" y="468.0"/>
      <point x="307" y="468" type="curve" smooth="yes"/>
      <point x="170" y="468.0"/>
      <point x="66.0" y="365.0"/>
    </contour>
  </outline>
</glyph>
<glyph name="h" format="2">
  <advance width="614"/>
  <unicode hex="0068"/>
  <anchor x="311" y="-35" name="below"/>
  <anchor x="311" y="0" name="belowx"/>
  <anchor x="134" y="-10" name="belowcedilla"/>
  <anchor x="134" y="740" name="aboveLC"/>
  <anchor x="134" y="679" name="aboveLCx"/>
  <outline>
    <contour>
      <point x="162" y="710" type="line"/>
      <point x="103" y="710" type="line"/>
      <point x="103" y="0" type="line"/>
      <point x="162" y="0" type="line"/>
    </contour>
    <contour>
      <point x="150" y="277" type="line"/>
      <point x="262" y="385"/>
      <point x="307" y="413"/>
      <point x="361" y="413" type="curve" smooth="yes"/>
      <point x="426" y="413"/>
      <point x="454" y="380"/>
      <point x="454" y="313" type="curve" smooth="yes"/>
      <point x="454" y="0" type="line"/>
      <point x="513" y="0" type="line"/>
      <point x="513" y="323" type="line" smooth="yes"/>
      <point x="513" y="407"/>
      <point x="466" y="465"/>
      <point x="371" y="465" type="curve" smooth="yes"/>
      <point x="297" y="465.0"/>
      <point x="244" y="430"/>
      <point x="139" y="323" type="curve"/>
    </contour>
  </outline>
</glyph>
<glyph name="i" format="2">
  <advance width="614"/>
  <unicode hex="0069"/>
  <anchor x="320" y="-35" name="below"/>
  <anchor x="321" y="-10" name="belowogonek"/>
  <outline>
    <contour>
      <point x="293" y="460" type="line"/>
      <point x="293" y="0" type="line"/>
      <point x="352" y="0" type="line"/>
      <point x="352" y="460" type="line"/>
    </contour>
    <contour>
      <point x="143" y="460" type="line"/>
      <point x="143" y="410" type="line"/>
      <point x="326" y="410" type="line"/>
      <point x="326" y="460" type="line"/>
    </contour>
    <contour>
      <point x="123" y="50" type="line"/>
      <point x="123" y="0" type="line"/>
      <point x="522" y="0" type="line"/>
      <point x="522" y="50" type="line"/>
    </contour>
    <contour>
      <point x="306" y="614" type="curve" smooth="yes"/>
      <point x="344" y="614"/>
      <point x="368" y="633"/>
      <point x="368" y="666" type="curve" smooth="yes"/>
      <point x="368" y="700"/>
      <point x="348" y="721"/>
      <point x="308" y="721" type="curve" smooth="yes"/>
      <point x="270" y="721"/>
      <point x="246" y="697"/>
      <point x="246" y="669" type="curve" smooth="yes"/>
      <point x="246" y="632"/>
      <point x="273" y="614"/>
    </contour>
  </outline>
</glyph>
<glyph name="j" format="2">
  <advance width="614"/>
  <unicode hex="006A"/>
  <outline>
    <contour>
      <point x="395" y="-74" type="curve" smooth="yes"/>
      <point x="395" y="460" type="line"/>
      <point x="336" y="460" type="line"/>
      <point x="336" y="-69" type="line" smooth="yes"/>
      <point x="336" y="-143"/>
      <point x="305" y="-172"/>
      <point x="228" y="-178" type="curve" smooth="yes"/>
      <point x="99" y="-188" type="line"/>
      <point x="102" y="-239" type="line"/>
      <point x="231" y="-230" type="line" smooth="yes"/>
      <point x="349" y="-222"/>
      <point x="395" y="-174"/>
    </contour>
    <contour>
      <point x="125" y="460" type="line"/>
      <point x="125" y="410" type="line"/>
      <point x="357" y="410" type="line"/>
      <point x="357" y="460" type="line"/>
    </contour>
    <contour>
      <point x="348" y="614" type="curve" smooth="yes"/>
      <point x="386" y="614"/>
      <point x="410" y="633"/>
      <point x="410" y="666" type="curve" smooth="yes"/>
      <point x="410" y="700"/>
      <point x="390" y="721"/>
      <point x="350" y="721" type="curve" smooth="yes"/>
      <point x="312" y="721"/>
      <point x="288" y="697"/>
      <point x="288" y="669" type="curve" smooth="yes"/>
      <point x="288" y="632"/>
      <point x="315" y="614"/>
    </contour>
  </outline>
</glyph>
<glyph name="k" format="2">
  <advance width="614"/>
  <unicode hex="006B"/>
  <anchor x="300" y="-35" name="below"/>
  <anchor x="300" y="0" name="belowx"/>
  <outline>
    <contour>
      <point x="183" y="710" type="line"/>
      <point x="124" y="710" type="line"/>
      <point x="124" y="0" type="line"/>
      <point x="183" y="0" type="line"/>
    </contour>
    <contour>
      <point x="175" y="249" type="line"/>
      <point x="217" y="219" type="line"/>
      <point x="538" y="458" type="line"/>
      <point x="538" y="460" type="line"/>
      <point x="459" y="460" type="line"/>
    </contour>
    <contour>
      <point x="175" y="237" type="line"/>
      <point x="455" y="0" type="line"/>
      <point x="539" y="0" type="line"/>
      <point x="539" y="2" type="line"/>
      <point x="221" y="271" type="line"/>
      <point x="175" y="249" type="line"/>
    </contour>
  </outline>
</glyph>
<glyph name="l" format="2">
  <advance width="614"/>
  <unicode hex="006C"/>
  <anchor x="296" y="-35" name="below"/>
  <anchor x="273" y="752" name="aboveLC"/>
  <anchor x="273" y="716" name="aboveLCx"/>
  <anchor x="474" y="787" name="topright"/>
  <outline>
    <contour>
      <point x="61" y="710" type="line"/>
      <point x="61" y="660" type="line"/>
      <point x="287" y="660" type="line"/>
      <point x="287" y="710" type="line"/>
    </contour>
    <contour>
      <point x="254" y="147" type="line" smooth="yes"/>
      <point x="254.0" y="44"/>
      <point x="292" y="7"/>
      <point x="399" y="0" type="curve" smooth="yes"/>
      <point x="513" y="-7" type="line"/>
      <point x="517" y="44" type="line"/>
      <point x="408" y="51" type="line" smooth="yes"/>
      <point x="341" y="55"/>
      <point x="313.0" y="81.0"/>
      <point x="313" y="156" type="curve" smooth="yes"/>
      <point x="313" y="710" type="line"/>
      <point x="254" y="710" type="line"/>
    </contour>
  </outline>
</glyph>
<glyph name="m" format="2">
  <advance width="614"/>
  <unicode hex="006D"/>
  <anchor x="310" y="502" name="aboveLC"/>
  <anchor x="309" y="-35" name="below"/>
  <outline>
    <contour>
      <point x="107" y="460" type="line"/>
      <point x="58" y="460" type="line"/>
      <point x="58" y="0" type="line"/>
      <point x="116" y="0" type="line"/>
      <point x="116" y="297" type="line"/>
      <point x="194" y="396"/>
      <point x="223" y="415"/>
      <point x="249" y="415" type="curve" smooth="yes"/>
      <point x="270" y="415"/>
      <point x="278" y="406"/>
      <point x="278" y="385" type="curve" smooth="yes"/>
      <point x="278" y="0" type="line"/>
      <point x="336" y="0" type="line"/>
      <point x="336" y="297" type="line"/>
      <point x="414" y="396"/>
      <point x="443" y="415"/>
      <point x="469" y="415" type="curve" smooth="yes"/>
      <point x="490" y="415"/>
      <point x="498" y="407"/>
      <point x="498" y="384" type="curve" smooth="yes"/>
      <point x="498" y="0" type="line"/>
      <point x="556" y="0" type="line"/>
      <point x="556" y="382" type="line" smooth="yes"/>
      <point x="556" y="442"/>
      <point x="529" y="464"/>
      <point x="483" y="464" type="curve" smooth="yes"/>
      <point x="441" y="464"/>
      <point x="392" y="436"/>
      <point x="337" y="358" type="curve"/>
      <point x="336" y="358" type="line"/>
      <point x="336" y="382" type="line" smooth="yes"/>
      <point x="336" y="442"/>
      <point x="309" y="465"/>
      <point x="263" y="465" type="curve" smooth="yes"/>
      <point x="224" y="465"/>
      <point x="174" y="435"/>
      <point x="115" y="351" type="curve"/>
      <point x="114" y="351" type="line"/>
    </contour>
  </outline>
</glyph>
<glyph name="n" format="2">
  <advance width="614"/>
  <unicode hex="006E"/>
  <anchor x="306" y="502" name="aboveLC"/>
  <anchor x="314" y="-35" name="below"/>
  <anchor x="314" y="0" name="belowx"/>
  <outline>
    <contour>
      <point x="152" y="460" type="line"/>
      <point x="103" y="460" type="line"/>
      <point x="103" y="0" type="line"/>
      <point x="162" y="0" type="line"/>
      <point x="162" y="335" type="line"/>
      <point x="162" y="336" type="line"/>
    </contour>
    <contour>
      <point x="150" y="277" type="line"/>
      <point x="262.0" y="385.0"/>
      <point x="307.0" y="413.0"/>
      <point x="361" y="413" type="curve" smooth="yes"/>
      <point x="426" y="413"/>
      <point x="454" y="380"/>
      <point x="454" y="313" type="curve" smooth="yes"/>
      <point x="454" y="0" type="line"/>
      <point x="513" y="0" type="line"/>
      <point x="513" y="323" type="line" smooth="yes"/>
      <point x="513" y="407"/>
      <point x="466" y="465"/>
      <point x="371" y="465" type="curve" smooth="yes"/>
      <point x="297.3652173913043" y="465.0"/>
      <point x="244.4488967545837" y="430.4574471689567"/>
      <point x="139" y="323" type="curve"/>
    </contour>
  </outline>
</glyph>
<glyph name="p" format="2">
  <advance width="614"/>
  <unicode hex="0070"/>
  <anchor x="329" y="502" name="aboveLC"/>
  <outline>
    <contour>
      <point x="100" y="-230" type="line"/>
      <point x="159" y="-230" type="line"/>
      <point x="159" y="336" type="line"/>
      <point x="159" y="336" type="line"/>
      <point x="149" y="460" type="line"/>
      <point x="100" y="460" type="line"/>
    </contour>
    <contour>
      <point x="340" y="468" type="curve" smooth="yes"/>
      <point x="269.0" y="468.0"/>
      <point x="216" y="441"/>
      <point x="144" y="359" type="curve"/>
      <point x="131" y="285" type="line"/>
      <point x="224" y="392"/>
      <point x="276.0" y="418.0"/>
      <point x="332" y="418" type="curve" smooth="yes"/>
      <point x="413.0" y="418.0"/>
      <point x="488.0" y="346.0"/>
      <point x="488" y="234" type="curve" smooth="yes"/>
      <point x="488.0" y="127.0"/>
      <point x="424" y="42"/>
      <point x="313" y="42" type="curve" smooth="yes"/>
      <point x="271" y="42"/>
      <point x="207" y="60"/>
      <point x="126" y="158" type="curve"/>
      <point x="139" y="83" type="line"/>
      <point x="208" y="9"/>
      <point x="269" y="-8"/>
      <point x="318" y="-8" type="curve" smooth="yes"/>
      <point x="449" y="-8"/>
      <point x="548.0" y="93.0"/>
      <point x="548" y="233" type="curve" smooth="yes"/>
      <point x="548.0" y="373.0"/>
      <point x="454.0" y="468.0"/>
    </contour>
  </outline>
</glyph>
<glyph name="q" format="2">
  <advance width="614"/>
  <unicode hex="0071"/>
  <outline>
    <contour>
      <point x="455" y="-230" type="line"/>
      <point x="514" y="-230" type="line"/>
      <point x="514" y="462" type="line"/>
      <point x="486" y="462" type="line"/>
      <point x="455" y="416" type="line"/>
    </contour>
    <contour>
      <point x="66" y="227" type="curve" smooth="yes"/>
      <point x="66.0" y="87.0"/>
      <point x="160" y="-8.0"/>
      <point x="274" y="-8" type="curve" smooth="yes"/>
      <point x="344.7216494845361" y="-8.0"/>
      <point x="397.6759264963904" y="18.630916287555692"/>
      <point x="470" y="101" type="curve"/>
      <point x="483" y="175" type="line"/>
      <point x="389.5966249659794" y="67.53590184257847"/>
      <point x="337.5527638190955" y="42.0"/>
      <point x="282" y="42" type="curve" smooth="yes"/>
      <point x="201" y="42.0"/>
      <point x="126.0" y="114.0"/>
      <point x="126" y="226" type="curve" smooth="yes"/>
      <point x="126.0" y="323.0"/>
      <point x="192" y="418.0"/>
      <point x="320" y="418" type="curve" smooth="yes"/>
      <point x="370.609756097561" y="418.0"/>
      <point x="424.553963247244" y="397.36560389570167"/>
      <point x="486" y="347" type="curve"/>
      <point x="498" y="396" type="line"/>
      <point x="436.619248418022" y="447.31833328985044"/>
      <point x="373.6984126984127" y="468.0"/>
      <point x="307" y="468" type="curve" smooth="yes"/>
      <point x="170" y="468.0"/>
      <point x="66.0" y="360.0"/>
    </contour>
  </outline>
</glyph>
<glyph name="r" format="2">
  <advance width="614"/>
  <unicode hex="0072"/>
  <anchor x="297" y="502" name="aboveLC"/>
  <anchor x="213" y="-35" name="below"/>
  <outline>
    <contour>
      <point x="233" y="460" type="line"/>
      <point x="179" y="460" type="line"/>
      <point x="179" y="0" type="line"/>
      <point x="238" y="0" type="line"/>
      <point x="238" y="247" type="line"/>
      <point x="238" y="247" type="line"/>
    </contour>
    <contour>
      <point x="223" y="200" type="line"/>
      <point x="361" y="382"/>
      <point x="372" y="392"/>
      <point x="460" y="398" type="curve" smooth="yes"/>
      <point x="558" y="405" type="line"/>
      <point x="555" y="463" type="line"/>
      <point x="451" y="457" type="line" smooth="yes"/>
      <point x="371" y="452"/>
      <point x="335" y="432"/>
      <point x="223" y="265" type="curve"/>
    </contour>
    <contour>
      <point x="69" y="460" type="line"/>
      <point x="69" y="410" type="line"/>
      <point x="232" y="410" type="line"/>
      <point x="232" y="460" type="line"/>
    </contour>
    <contour>
      <point x="49" y="50" type="line"/>
      <point x="49" y="0" type="line"/>
      <point x="398" y="0" type="line"/>
      <point x="398" y="50" type="line"/>
    </contour>
  </outline>
</glyph>
<glyph name="s" format="2">
  <advance width="614"/>
  <unicode hex="0073"/>
  <anchor x="325" y="507" name="aboveLC"/>
  <anchor x="298" y="-40" name="below"/>
  <anchor x="303" y="-15" name="belowcedilla"/>
  <anchor x="325" y="472" name="aboveLCx"/>
  <outline>
    <contour>
      <point x="514" y="124" type="curve" smooth="yes"/>
      <point x="514" y="190"/>
      <point x="488" y="223"/>
      <point x="359" y="256" type="curve" smooth="yes"/>
      <point x="281" y="276" type="line" smooth="yes"/>
      <point x="191" y="299"/>
      <point x="177" y="321"/>
      <point x="177" y="354" type="curve" smooth="yes"/>
      <point x="177.0" y="391.44117647058823"/>
      <point x="210.0" y="421.0"/>
      <point x="333" y="421" type="curve" smooth="yes"/>
      <point x="376" y="421"/>
      <point x="432" y="414"/>
      <point x="488" y="400" type="curve"/>
      <point x="499" y="453" type="line"/>
      <point x="446" y="464"/>
      <point x="376" y="472"/>
      <point x="333" y="472" type="curve" smooth="yes"/>
      <point x="177" y="472"/>
      <point x="117" y="419"/>
      <point x="117" y="348" type="curve" smooth="yes"/>
      <point x="117" y="286"/>
      <point x="141" y="252"/>
      <point x="273" y="218" type="curve" smooth="yes"/>
      <point x="351" y="198" type="line" smooth="yes"/>
      <point x="436" y="176"/>
      <point x="454" y="154"/>
      <point x="454" y="118" type="curve" smooth="yes"/>
      <point x="454.0" y="72.575"/>
      <point x="414.0" y="39.0"/>
      <point x="289" y="39" type="curve" smooth="yes"/>
      <point x="244" y="39"/>
      <point x="177" y="47"/>
      <point x="114" y="62" type="curve"/>
      <point x="102" y="8" type="line"/>
      <point x="180" y="-8"/>
      <point x="242" y="-12"/>
      <point x="289" y="-12" type="curve" smooth="yes"/>
      <point x="451" y="-12"/>
      <point x="514" y="47"/>
    </contour>
  </outline>
</glyph>
<glyph name="t" format="2">
  <advance width="614"/>
  <unicode hex="0074"/>
  <anchor x="410" y="787" name="topright"/>
  <anchor x="334" y="-35" name="below"/>
  <anchor x="322" y="-10" name="belowcedilla"/>
  <outline>
    <contour>
      <point x="229" y="167" type="line" smooth="yes"/>
      <point x="229" y="44.6751592356688"/>
      <point x="266" y="6"/>
      <point x="374" y="0" type="curve" smooth="yes"/>
      <point x="530" y="-8" type="line"/>
      <point x="533" y="43" type="line"/>
      <point x="386" y="51" type="line" smooth="yes"/>
      <point x="310" y="55"/>
      <point x="288" y="81.3931623931624"/>
      <point x="288" y="178" type="curve" smooth="yes"/>
      <point x="288" y="410" type="line"/>
      <point x="503" y="410" type="line"/>
      <point x="503" y="460" type="line"/>
      <point x="288" y="460" type="line"/>
      <point x="288" y="637" type="line"/>
      <point x="229" y="637" type="line"/>
      <point x="229" y="460" type="line"/>
      <point x="68" y="460" type="line"/>
      <point x="68" y="410" type="line"/>
      <point x="229" y="410" type="line"/>
    </contour>
  </outline>
</glyph>
<glyph name="u" format="2">
  <advance width="614"/>
  <unicode hex="0075"/>
  <anchor x="307" y="502" name="aboveLC"/>
  <anchor x="296" y="-35" name="below"/>
  <anchor x="483" y="-10" name="belowogonek"/>
  <anchor x="307" y="461" name="aboveLCx"/>
  <outline>
    <contour>
      <point x="511" y="0" type="line"/>
      <point x="511" y="460" type="line"/>
      <point x="452" y="460" type="line"/>
      <point x="452" y="125" type="line"/>
      <point x="452" y="125" type="line"/>
      <point x="456" y="0" type="line"/>
    </contour>
    <contour>
      <point x="464" y="183" type="line"/>
      <point x="352" y="75"/>
      <point x="307" y="47"/>
      <point x="253" y="47" type="curve" smooth="yes"/>
      <point x="188" y="47"/>
      <point x="160" y="80"/>
      <point x="160" y="147" type="curve" smooth="yes"/>
      <point x="160" y="460" type="line"/>
      <point x="101" y="460" type="line"/>
      <point x="101" y="137" type="line" smooth="yes"/>
      <point x="101" y="53"/>
      <point x="148" y="-5"/>
      <point x="243" y="-5" type="curve" smooth="yes"/>
      <point x="316.6347826086957" y="-5.0"/>
      <point x="369.5511032454163" y="29.542552831043295"/>
      <point x="475" y="137" type="curve"/>
    </contour>
  </outline>
</glyph>
<glyph name="v" format="2">
  <advance width="614"/>
  <unicode hex="0076"/>
  <anchor x="306" y="-35" name="below"/>
  <outline>
    <contour>
      <point x="486" y="460" type="line"/>
      <point x="294" y="25" type="line"/>
      <point x="297" y="0" type="line"/>
      <point x="340" y="0" type="line"/>
      <point x="549" y="460" type="line"/>
    </contour>
    <contour>
      <point x="65" y="460" type="line"/>
      <point x="275" y="0" type="line"/>
      <point x="322" y="0" type="line"/>
      <point x="324" y="25" type="line"/>
      <point x="133" y="460" type="line"/>
    </contour>
  </outline>
</glyph>
<glyph name="w" format="2">
  <advance width="614"/>
  <unicode hex="0077"/>
  <anchor x="307" y="502" name="aboveLC"/>
  <anchor x="307" y="462" name="aboveLCx"/>
  <outline>
    <contour>
      <point x="460" y="0" type="line"/>
      <point x="564" y="460" type="line"/>
      <point x="509" y="460" type="line"/>
      <point x="420" y="30" type="line"/>
      <point x="409" y="0" type="line"/>
    </contour>
    <contour>
      <point x="192" y="0" type="line"/>
      <point x="195" y="28" type="line"/>
      <point x="106" y="460" type="line"/>
      <point x="50" y="460" type="line"/>
      <point x="152" y="0" type="line"/>
    </contour>
    <contour>
      <point x="441" y="0" type="line"/>
      <point x="435" y="30" type="line"/>
      <point x="317" y="390" type="line"/>
      <point x="299" y="390" type="line"/>
      <point x="181" y="28" type="line"/>
      <point x="176" y="0" type="line"/>
      <point x="217" y="0" type="line"/>
      <point x="320" y="307" type="line"/>
      <point x="294" y="307" type="line"/>
      <point x="395" y="0" type="line"/>
    </contour>
  </outline>
</glyph>
<glyph name="x" format="2">
  <advance width="614"/>
  <unicode hex="0078"/>
  <anchor x="307" y="502" name="aboveLC"/>
  <anchor x="306" y="-35" name="below"/>
  <anchor x="306" y="0" name="belowx"/>
  <anchor x="307" y="467" name="aboveLCx"/>
  <outline>
    <contour>
      <point x="77" y="0" type="line"/>
      <point x="146" y="0" type="line"/>
      <point x="321" y="221" type="line"/>
      <point x="327" y="221" type="line"/>
      <point x="522" y="460" type="line"/>
      <point x="453" y="460" type="line"/>
      <point x="288" y="252" type="line"/>
      <point x="282" y="252" type="line"/>
    </contour>
    <contour>
      <point x="539" y="0" type="line"/>
      <point x="331" y="252" type="line"/>
      <point x="327" y="252" type="line"/>
      <point x="166" y="460" type="line"/>
      <point x="91" y="460" type="line"/>
      <point x="286" y="221" type="line"/>
      <point x="290" y="221" type="line"/>
      <point x="465" y="0" type="line"/>
    </contour>
  </outline>
</glyph>
<glyph name="y" format="2">
  <advance width="614"/>
  <unicode hex="0079"/>
  <anchor x="313" y="502" name="aboveLC"/>
  <anchor x="464" y="-35" name="below"/>
  <anchor x="313" y="467" name="aboveLCx"/>
  <outline>
    <contour>
      <point x="67" y="460" type="line"/>
      <point x="286" y="-38" type="line"/>
      <point x="311" y="-38" type="line"/>
      <point x="318" y="31" type="line"/>
      <point x="135" y="460" type="line"/>
    </contour>
    <contour>
      <point x="290" y="-138" type="curve" smooth="yes"/>
      <point x="551" y="460" type="line"/>
      <point x="487" y="460" type="line"/>
      <point x="306" y="26" type="line"/>
      <point x="306" y="26" type="line"/>
      <point x="236" y="-124" type="line" smooth="yes"/>
      <point x="218.0876016514108" y="-162.38371074697682"/>
      <point x="197.0083737344919" y="-174.3153487508162"/>
      <point x="146" y="-177" type="curve" smooth="yes"/>
      <point x="51" y="-182" type="line"/>
      <point x="53" y="-233" type="line"/>
      <point x="151" y="-228" type="line" smooth="yes"/>
      <point x="211" y="-225"/>
      <point x="260" y="-206"/>
    </contour>
  </outline>
</glyph>
<glyph name="z" format="2">
  <advance width="614"/>
  <unicode hex="007A"/>
  <anchor x="324" y="502" name="aboveLC"/>
  <anchor x="324" y="-35" name="below"/>
  <anchor x="324" y="-10" name="belowcedilla"/>
  <outline>
    <contour>
      <point x="90" y="0" type="line"/>
      <point x="539" y="0" type="line"/>
      <point x="539" y="51" type="line"/>
      <point x="130" y="51" type="line"/>
      <point x="90" y="18" type="line"/>
    </contour>
    <contour>
      <point x="90" y="15" type="line"/>
      <point x="181" y="15" type="line"/>
      <point x="181" y="81" type="line"/>
      <point x="157" y="29" type="line"/>
      <point x="523" y="418" type="line"/>
      <point x="523" y="445" type="line"/>
      <point x="438" y="445" type="line"/>
      <point x="438" y="377" type="line"/>
      <point x="459" y="429" type="line"/>
      <point x="90" y="41" type="line"/>
    </contour>
    <contour>
      <point x="103" y="410" type="line"/>
      <point x="474" y="410" type="line"/>
      <point x="523" y="445" type="line"/>
      <point x="523" y="460" type="line"/>
      <point x="103" y="460" type="line"/>
    </contour>
  </outline>
</glyph>
<glyph name="braceleft" format="2">
  <advance width="614"/>
  <unicode hex="007B"/>
  <outline>
    <contour>
      <point x="205.0" y="685" type="curve" smooth="yes"/>
      <point x="205.0" y="662.0"/>
      <point x="218" y="635"/>
      <point x="256" y="592" type="curve" smooth="yes"/>
      <point x="305" y="535" type="line" smooth="yes"/>
      <point x="337" y="497"/>
      <point x="342.0" y="487.0"/>
      <point x="342" y="472" type="curve" smooth="yes"/>
      <point x="342.0" y="449.0"/>
      <point x="328.0" y="427.0"/>
      <point x="79" y="361" type="curve"/>
      <point x="79" y="322" type="line"/>
      <point x="110" y="322" type="line"/>
      <point x="380" y="396.0"/>
      <point x="404.0" y="430.0"/>
      <point x="404.0" y="472" type="curve" smooth="yes"/>
      <point x="404.0" y="493"/>
      <point x="400" y="510"/>
      <point x="347" y="571" type="curve" smooth="yes"/>
      <point x="298" y="628" type="line" smooth="yes"/>
      <point x="270" y="661"/>
      <point x="264" y="673"/>
      <point x="264" y="685" type="curve" smooth="yes"/>
      <point x="264" y="700.0"/>
      <point x="272" y="712"/>
      <point x="307" y="717" type="curve" smooth="yes"/>
      <point x="530" y="748" type="line"/>
      <point x="523" y="797" type="line"/>
      <point x="300" y="766" type="line" smooth="yes"/>
      <point x="230" y="756"/>
      <point x="205" y="727.0"/>
    </contour>
    <contour>
      <point x="79" y="301" type="line"/>
      <point x="149" y="301" type="line"/>
      <point x="149" y="361" type="line"/>
      <point x="79" y="361" type="line"/>
    </contour>
    <contour>
      <point x="205.0" y="-23.0" type="curve" smooth="yes"/>
      <point x="205.0" y="-65.0"/>
      <point x="230" y="-94"/>
      <point x="300" y="-104" type="curve" smooth="yes"/>
      <point x="523" y="-135" type="line"/>
      <point x="530" y="-86" type="line"/>
      <point x="307" y="-55" type="line" smooth="yes"/>
      <point x="272" y="-50"/>
      <point x="264.0" y="-38.0"/>
      <point x="264" y="-23" type="curve" smooth="yes"/>
      <point x="264" y="-11"/>
      <point x="270" y="1"/>
      <point x="298" y="34" type="curve" smooth="yes"/>
      <point x="347" y="91" type="line" smooth="yes"/>
      <point x="400" y="152"/>
      <point x="404.0" y="169.0"/>
      <point x="404.0" y="190.0" type="curve" smooth="yes"/>
      <point x="404.0" y="232.0"/>
      <point x="380.0" y="266.0"/>
      <point x="110" y="340" type="curve"/>
      <point x="79" y="340" type="line"/>
      <point x="79" y="301" type="line"/>
      <point x="328.0" y="235.0"/>
      <point x="342.0" y="213.0"/>
      <point x="342" y="190" type="curve" smooth="yes"/>
      <point x="342.0" y="175.0"/>
      <point x="337" y="165"/>
      <point x="305" y="127" type="curve" smooth="yes"/>
      <point x="256" y="70" type="line" smooth="yes"/>
      <point x="218" y="27"/>
      <point x="205.0" y="0.0"/>
    </contour>
  </outline>
</glyph>
<glyph name="braceright" format="2">
  <advance width="614"/>
  <unicode hex="007D"/>
  <outline>
    <contour>
      <point x="409.0" y="-23.0" type="curve" smooth="yes"/>
      <point x="409.0" y="0.0"/>
      <point x="396" y="27"/>
      <point x="358" y="70" type="curve" smooth="yes"/>
      <point x="309" y="127" type="line" smooth="yes"/>
      <point x="277" y="165"/>
      <point x="272.0" y="175.0"/>
      <point x="272" y="190" type="curve" smooth="yes"/>
      <point x="272.0" y="213.0"/>
      <point x="286.0" y="235.0"/>
      <point x="535" y="301" type="curve"/>
      <point x="535" y="340" type="line"/>
      <point x="504" y="340" type="line"/>
      <point x="234.0" y="266.0"/>
      <point x="210.0" y="232.0"/>
      <point x="210.0" y="190.0" type="curve" smooth="yes"/>
      <point x="210.0" y="169.0"/>
      <point x="214" y="152"/>
      <point x="267" y="91" type="curve" smooth="yes"/>
      <point x="316" y="34" type="line" smooth="yes"/>
      <point x="344" y="1"/>
      <point x="350" y="-11"/>
      <point x="350" y="-23" type="curve" smooth="yes"/>
      <point x="350.0" y="-38.0"/>
      <point x="342" y="-50"/>
      <point x="307" y="-55" type="curve" smooth="yes"/>
      <point x="84" y="-86" type="line"/>
      <point x="91" y="-135" type="line"/>
      <point x="314" y="-104" type="line" smooth="yes"/>
      <point x="384" y="-94"/>
      <point x="409.0" y="-65.0"/>
    </contour>
    <contour>
      <point x="535" y="361" type="line"/>
      <point x="465" y="361" type="line"/>
      <point x="465" y="301" type="line"/>
      <point x="535" y="301" type="line"/>
    </contour>
    <contour>
      <point x="409.0" y="685.0" type="curve" smooth="yes"/>
      <point x="409.0" y="727.0"/>
      <point x="384" y="756"/>
      <point x="314" y="766" type="curve" smooth="yes"/>
      <point x="91" y="797" type="line"/>
      <point x="84" y="748" type="line"/>
      <point x="307" y="717" type="line" smooth="yes"/>
      <point x="342" y="712"/>
      <point x="350.0" y="700.0"/>
      <point x="350" y="685" type="curve" smooth="yes"/>
      <point x="350" y="673"/>
      <point x="344" y="661"/>
      <point x="316" y="628" type="curve" smooth="yes"/>
      <point x="267" y="571" type="line" smooth="yes"/>
      <point x="214" y="510"/>
      <point x="210.0" y="493.0"/>
      <point x="210.0" y="472.0" type="curve" smooth="yes"/>
      <point x="210.0" y="430.0"/>
      <point x="234.0" y="396.0"/>
      <point x="504" y="322" type="curve"/>
      <point x="535" y="322" type="line"/>
      <point x="535" y="361" type="line"/>
      <point x="286.0" y="427.0"/>
      <point x="272.0" y="449.0"/>
      <point x="272" y="472" type="curve" smooth="yes"/>
      <point x="272.0" y="487.0"/>
      <point x="277" y="497"/>
      <point x="309" y="535" type="curve" smooth="yes"/>
      <point x="358" y="592" type="line" smooth="yes"/>
      <point x="396" y="635"/>
      <point x="409.0" y="662.0"/>
    </contour>
  </outline>
</glyph>
<glyph name="asciitilde" format="2">
  <advance width="614"/>
  <unicode hex="007E"/>
  <outline>
    <contour>
      <point x="572" y="419" type="curve"/>
      <point x="524" y="439" type="line"/>
      <point x="475" y="325"/>
      <point x="461" y="292"/>
      <point x="435" y="292" type="curve" smooth="yes"/>
      <point x="413" y="292.0"/>
      <point x="397" y="298"/>
      <point x="317" y="359" type="curve" smooth="yes"/>
      <point x="242" y="416"/>
      <point x="214.0" y="432.0"/>
      <point x="185" y="432" type="curve" smooth="yes"/>
      <point x="137" y="432"/>
      <point x="99" y="399"/>
      <point x="42" y="244" type="curve"/>
      <point x="90" y="224" type="line"/>
      <point x="139" y="338"/>
      <point x="153" y="371"/>
      <point x="179" y="371" type="curve" smooth="yes"/>
      <point x="201.0" y="371.0"/>
      <point x="217" y="365"/>
      <point x="297" y="304" type="curve" smooth="yes"/>
      <point x="372" y="247"/>
      <point x="400.0" y="231.0"/>
      <point x="429" y="231" type="curve" smooth="yes"/>
      <point x="477" y="231"/>
      <point x="515" y="264"/>
    </contour>
  </outline>
</glyph>
<glyph name="exclamdown" format="2">
  <advance width="614"/>
  <unicode hex="00A1"/>
  <outline>
    <contour>
      <point x="324" y="483" type="line"/>
      <point x="290" y="483" type="line"/>
      <point x="247" y="0" type="line"/>
      <point x="366" y="0" type="line"/>
    </contour>
    <contour>
      <point x="308" y="725" type="curve" smooth="yes"/>
      <point x="270.0" y="725.0"/>
      <point x="246.0" y="706.0"/>
      <point x="246" y="673" type="curve" smooth="yes"/>
      <point x="246.0" y="639.0"/>
      <point x="266.0" y="618.0"/>
      <point x="306" y="618" type="curve" smooth="yes"/>
      <point x="344.0" y="618.0"/>
      <point x="368.0" y="642.0"/>
      <point x="368" y="670" type="curve" smooth="yes"/>
      <point x="368.0" y="707.0"/>
      <point x="341.0" y="725.0"/>
    </contour>
  </outline>
</glyph>
<glyph name="cent" format="2">
  <advance width="614"/>
  <unicode hex="00A2"/>
  <outline>
    <contour>
      <point x="361" y="464" type="line"/>
      <point x="361" y="632" type="line"/>
      <point x="304" y="632" type="line"/>
      <point x="304" y="464" type="line"/>
    </contour>
    <contour>
      <point x="304" y="-142" type="line"/>
      <point x="361" y="-142" type="line"/>
      <point x="361" y="34" type="line"/>
      <point x="304" y="34" type="line"/>
    </contour>
    <contour>
      <point x="324" y="440" type="curve" smooth="yes"/>
      <point x="371" y="440"/>
      <point x="416" y="430"/>
      <point x="509" y="371" type="curve"/>
      <point x="536" y="418" type="line"/>
      <point x="433" y="480"/>
      <point x="385" y="490"/>
      <point x="326" y="490" type="curve" smooth="yes"/>
      <point x="186" y="490"/>
      <point x="77" y="388"/>
      <point x="77" y="250" type="curve" smooth="yes"/>
      <point x="77" y="91"/>
      <point x="180" y="0"/>
      <point x="315" y="0" type="curve" smooth="yes"/>
      <point x="379" y="0"/>
      <point x="439" y="15"/>
      <point x="537" y="71" type="curve"/>
      <point x="513" y="113" type="line"/>
      <point x="422" y="63"/>
      <point x="366" y="50"/>
      <point x="315" y="50" type="curve" smooth="yes"/>
      <point x="212" y="50"/>
      <point x="137" y="133"/>
      <point x="137" y="248" type="curve" smooth="yes"/>
      <point x="137" y="360"/>
      <point x="213" y="440"/>
    </contour>
  </outline>
</glyph>
<glyph name="sterling" format="2">
  <advance width="614"/>
  <unicode hex="00A3"/>
  <outline>
    <contour>
      <point x="81" y="0" type="line"/>
      <point x="546" y="0" type="line"/>
      <point x="546" y="51" type="line"/>
      <point x="122" y="51" type="line"/>
      <point x="81" y="39" type="line"/>
    </contour>
    <contour>
      <point x="87" y="248" type="line"/>
      <point x="258" y="248" type="line"/>
      <point x="258" y="248" type="line"/>
      <point x="506" y="248" type="line"/>
      <point x="506" y="296" type="line"/>
      <point x="258" y="296" type="line"/>
      <point x="258" y="296" type="line"/>
      <point x="87" y="296" type="line"/>
    </contour>
    <contour>
      <point x="300" y="272" type="curve" smooth="yes"/>
      <point x="300" y="312"/>
      <point x="289" y="337"/>
      <point x="216" y="409" type="curve" smooth="yes"/>
      <point x="174" y="453"/>
      <point x="166" y="484"/>
      <point x="166" y="517" type="curve" smooth="yes"/>
      <point x="166" y="572"/>
      <point x="218" y="619"/>
      <point x="301" y="619" type="curve" smooth="yes"/>
      <point x="379" y="619"/>
      <point x="441" y="577"/>
      <point x="479" y="505" type="curve"/>
      <point x="530" y="534" type="line"/>
      <point x="487" y="618"/>
      <point x="407" y="670"/>
      <point x="303" y="670" type="curve" smooth="yes"/>
      <point x="178" y="670"/>
      <point x="103" y="595"/>
      <point x="103" y="516" type="curve" smooth="yes"/>
      <point x="103" y="466"/>
      <point x="114" y="432"/>
      <point x="170" y="375" type="curve" smooth="yes"/>
      <point x="233" y="310"/>
      <point x="239" y="301"/>
      <point x="239" y="273" type="curve" smooth="yes"/>
      <point x="239" y="229"/>
      <point x="223" y="193"/>
      <point x="81" y="51" type="curve"/>
      <point x="81" y="32" type="line"/>
      <point x="137" y="32" type="line"/>
      <point x="287" y="191"/>
      <point x="300" y="220"/>
    </contour>
  </outline>
</glyph>
<glyph name="yen" format="2">
  <advance width="614"/>
  <unicode hex="00A5"/>
  <outline>
    <contour>
      <point x="52" y="655" type="line"/>
      <point x="317" y="236" type="line"/>
      <point x="317" y="324" type="line"/>
      <point x="122" y="655" type="line"/>
    </contour>
    <contour>
      <point x="85" y="274" type="line"/>
      <point x="288" y="274" type="line"/>
      <point x="288" y="322" type="line"/>
      <point x="85" y="322" type="line"/>
    </contour>
    <contour>
      <point x="85" y="140" type="line"/>
      <point x="527" y="140" type="line"/>
      <point x="527" y="188" type="line"/>
      <point x="85" y="188" type="line"/>
    </contour>
    <contour>
      <point x="297" y="240" type="line"/>
      <point x="562" y="655" type="line"/>
      <point x="495" y="655" type="line"/>
      <point x="300" y="326" type="line"/>
    </contour>
    <contour>
      <point x="324" y="274" type="line"/>
      <point x="527" y="274" type="line"/>
      <point x="527" y="322" type="line"/>
      <point x="324" y="322" type="line"/>
    </contour>
    <contour>
      <point x="278" y="294" type="line"/>
      <point x="278" y="0.0" type="line"/>
      <point x="333" y="0.0" type="line"/>
      <point x="333" y="294" type="line"/>
    </contour>
  </outline>
</glyph>
<glyph name="section" format="2">
  <advance width="614"/>
  <unicode hex="00A7"/>
  <outline>
    <contour>
      <point x="549" y="220" type="curve" smooth="yes"/>
      <point x="549.0" y="294.0"/>
      <point x="523" y="334"/>
      <point x="401" y="389" type="curve" smooth="yes"/>
      <point x="278" y="444" type="line" smooth="yes"/>
      <point x="186" y="485"/>
      <point x="174.0" y="507"/>
      <point x="174" y="542" type="curve" smooth="yes"/>
      <point x="174" y="589.0"/>
      <point x="203" y="619"/>
      <point x="310.0" y="619.0" type="curve" smooth="yes"/>
      <point x="362" y="619.0"/>
      <point x="410" y="612"/>
      <point x="485" y="593" type="curve"/>
      <point x="496" y="646" type="line"/>
      <point x="420" y="663"/>
      <point x="375" y="670.0"/>
      <point x="310.0" y="670.0" type="curve" smooth="yes"/>
      <point x="169" y="670"/>
      <point x="114.0" y="617.0"/>
      <point x="114" y="536" type="curve" smooth="yes"/>
      <point x="114.0" y="483.0"/>
      <point x="136" y="447"/>
      <point x="226" y="406" type="curve" smooth="yes"/>
      <point x="348" y="351" type="line" smooth="yes"/>
      <point x="468" y="297"/>
      <point x="487.0" y="268.0"/>
      <point x="487" y="214" type="curve" smooth="yes"/>
      <point x="487.0" y="161.0"/>
      <point x="463" y="129"/>
      <point x="270" y="38" type="curve"/>
      <point x="315" y="13" type="line"/>
      <point x="510" y="98"/>
      <point x="549.0" y="143"/>
    </contour>
    <contour>
      <point x="64.0" y="210.0" type="curve" smooth="yes"/>
      <point x="64.0" y="136.0"/>
      <point x="90.0" y="96.0"/>
      <point x="212.0" y="41.0" type="curve" smooth="yes"/>
      <point x="335.0" y="-14.0" type="line" smooth="yes"/>
      <point x="427.0" y="-55.0"/>
      <point x="439.0" y="-77.0"/>
      <point x="439.0" y="-112.0" type="curve" smooth="yes"/>
      <point x="439.0" y="-159.0"/>
      <point x="410.0" y="-189.0"/>
      <point x="303.0" y="-189.0" type="curve" smooth="yes"/>
      <point x="251.0" y="-189.0"/>
      <point x="203.0" y="-182.0"/>
      <point x="128.0" y="-163.0" type="curve"/>
      <point x="117.0" y="-216.0" type="line"/>
      <point x="193.0" y="-233.0"/>
      <point x="238.0" y="-240.0"/>
      <point x="303.0" y="-240.0" type="curve" smooth="yes"/>
      <point x="444.0" y="-240.0"/>
      <point x="499.0" y="-187.0"/>
      <point x="499.0" y="-106.0" type="curve" smooth="yes"/>
      <point x="499.0" y="-53.0"/>
      <point x="477.0" y="-17.0"/>
      <point x="387.0" y="24.0" type="curve" smooth="yes"/>
      <point x="265.0" y="79.0" type="line" smooth="yes"/>
      <point x="145.0" y="133.0"/>
      <point x="126.0" y="162.0"/>
      <point x="126.0" y="216.0" type="curve" smooth="yes"/>
      <point x="126.0" y="269.0"/>
      <point x="150.0" y="301.0"/>
      <point x="343.0" y="392.0" type="curve"/>
      <point x="298.0" y="417.0" type="line"/>
      <point x="103.0" y="332.0"/>
      <point x="64.0" y="287.0"/>
    </contour>
  </outline>
</glyph>
<glyph name="copyright" format="2">
  <advance width="614"/>
  <unicode hex="00A9"/>
  <outline>
    <contour>
      <point x="104" y="328" type="curve" smooth="yes"/>
      <point x="104" y="605"/>
      <point x="181" y="680"/>
      <point x="307" y="680" type="curve" smooth="yes"/>
      <point x="434" y="680"/>
      <point x="510" y="605"/>
      <point x="510" y="328" type="curve" smooth="yes"/>
      <point x="510" y="51"/>
      <point x="434" y="-25"/>
      <point x="307" y="-25" type="curve" smooth="yes"/>
      <point x="181" y="-25"/>
      <point x="104" y="51"/>
    </contour>
    <contour>
      <point x="557" y="328" type="curve" smooth="yes"/>
      <point x="557" y="630"/>
      <point x="462" y="725"/>
      <point x="307" y="725" type="curve" smooth="yes"/>
      <point x="153" y="725"/>
      <point x="57" y="630"/>
      <point x="57" y="328" type="curve" smooth="yes"/>
      <point x="57" y="26"/>
      <point x="153" y="-70"/>
      <point x="307" y="-70" type="curve" smooth="yes"/>
      <point x="462" y="-70"/>
      <point x="557" y="26"/>
    </contour>
    <contour>
      <point x="308" y="97" type="curve" smooth="yes"/>
      <point x="350" y="97.0"/>
      <point x="385" y="107"/>
      <point x="444" y="184" type="curve"/>
      <point x="411" y="211" type="line"/>
      <point x="363" y="147"/>
      <point x="340" y="140.0"/>
      <point x="314" y="140" type="curve" smooth="yes"/>
      <point x="268" y="140.0"/>
      <point x="236.0" y="200.0"/>
      <point x="236" y="328" type="curve" smooth="yes"/>
      <point x="236.0" y="445.0"/>
      <point x="270" y="515.0"/>
      <point x="317" y="515" type="curve" smooth="yes"/>
      <point x="342" y="515.0"/>
      <point x="358" y="506"/>
      <point x="403" y="449" type="curve"/>
      <point x="436" y="479" type="line"/>
      <point x="385" y="546"/>
      <point x="358" y="558.0"/>
      <point x="317" y="558" type="curve" smooth="yes"/>
      <point x="240" y="558.0"/>
      <point x="183.0" y="467.0"/>
      <point x="183" y="326" type="curve" smooth="yes"/>
      <point x="183.0" y="184.0"/>
      <point x="227" y="97.0"/>
    </contour>
  </outline>
</glyph>
<glyph name="ordfeminine" format="2">
  <advance width="614"/>
  <unicode hex="00AA"/>
  <outline>
    <contour>
      <point x="126" y="234" type="line"/>
      <point x="126" y="187" type="line"/>
      <point x="505" y="187" type="line"/>
      <point x="505" y="234" type="line"/>
    </contour>
    <contour>
      <point x="231" y="370" type="curve" smooth="yes"/>
      <point x="184" y="370.0"/>
      <point x="163.0" y="390"/>
      <point x="163" y="426" type="curve" smooth="yes"/>
      <point x="163.0" y="465"/>
      <point x="181" y="486"/>
      <point x="254" y="495" type="curve" smooth="yes"/>
      <point x="413" y="515" type="line"/>
      <point x="413" y="555" type="line"/>
      <point x="243" y="535" type="line" smooth="yes"/>
      <point x="141" y="523"/>
      <point x="111.0" y="489"/>
      <point x="111" y="423" type="curve" smooth="yes"/>
      <point x="111.0" y="360"/>
      <point x="159" y="325.0"/>
      <point x="225" y="325" type="curve" smooth="yes"/>
      <point x="282" y="325.0"/>
      <point x="329" y="346"/>
      <point x="381" y="388" type="curve"/>
      <point x="392" y="388" type="line"/>
      <point x="397" y="442" type="line"/>
      <point x="322" y="384"/>
      <point x="281" y="370.0"/>
    </contour>
    <contour>
      <point x="445" y="412" type="curve" smooth="yes"/>
      <point x="445" y="573" type="line" smooth="yes"/>
      <point x="445" y="657"/>
      <point x="407.8679245283019" y="692.0"/>
      <point x="281" y="692" type="curve" smooth="yes"/>
      <point x="254" y="692"/>
      <point x="198" y="686"/>
      <point x="144" y="676" type="curve"/>
      <point x="150" y="633" type="line"/>
      <point x="204" y="643"/>
      <point x="252" y="648"/>
      <point x="279" y="648" type="curve" smooth="yes"/>
      <point x="368.0" y="648.0"/>
      <point x="392" y="629"/>
      <point x="392" y="575" type="curve" smooth="yes"/>
      <point x="392" y="401" type="line"/>
      <point x="392" y="388" type="line"/>
      <point x="402" y="350"/>
      <point x="431" y="327"/>
      <point x="481" y="327" type="curve" smooth="yes"/>
      <point x="507" y="327" type="line"/>
      <point x="510" y="371" type="line"/>
      <point x="483" y="372" type="line" smooth="yes"/>
      <point x="456" y="373"/>
      <point x="445.0" y="388.0"/>
    </contour>
  </outline>
</glyph>
<glyph name="guillemetleft" format="2">
  <advance width="614"/>
  <unicode hex="00AB"/>
  <outline>
    <contour>
      <point x="115.0" y="224" type="line"/>
      <point x="304.0" y="410" type="line"/>
      <point x="304.0" y="471" type="line"/>
      <point x="69.0" y="254" type="line"/>
      <point x="69.0" y="206" type="line"/>
    </contour>
    <contour>
      <point x="115.0" y="242" type="line"/>
      <point x="69.0" y="252" type="line"/>
      <point x="69.0" y="203" type="line"/>
      <point x="304.0" y="-15" type="line"/>
      <point x="304.0" y="49" type="line"/>
    </contour>
    <contour>
      <point x="342.0" y="224" type="line"/>
      <point x="531.0" y="410" type="line"/>
      <point x="531.0" y="471" type="line"/>
      <point x="296.0" y="254" type="line"/>
      <point x="296.0" y="206" type="line"/>
    </contour>
    <contour>
      <point x="342.0" y="242" type="line"/>
      <point x="296.0" y="252" type="line"/>
      <point x="296.0" y="203" type="line"/>
      <point x="531.0" y="-15" type="line"/>
      <point x="531.0" y="49" type="line"/>
    </contour>
  </outline>
</glyph>
<glyph name="registered" format="2">
  <advance width="614"/>
  <unicode hex="00AE"/>
  <outline>
    <contour>
      <point x="68" y="465" type="curve" smooth="yes"/>
      <point x="68" y="310"/>
      <point x="160" y="208"/>
      <point x="307" y="208" type="curve" smooth="yes"/>
      <point x="452" y="208"/>
      <point x="546" y="311"/>
      <point x="546" y="467" type="curve" smooth="yes"/>
      <point x="546" y="626"/>
      <point x="453" y="725"/>
      <point x="307" y="725" type="curve" smooth="yes"/>
      <point x="161" y="725"/>
      <point x="68" y="624"/>
    </contour>
    <contour>
      <point x="307" y="243" type="curve" smooth="yes"/>
      <point x="186" y="243"/>
      <point x="108" y="329"/>
      <point x="108" y="467" type="curve" smooth="yes"/>
      <point x="108" y="605"/>
      <point x="184" y="689"/>
      <point x="307" y="689" type="curve" smooth="yes"/>
      <point x="431" y="689"/>
      <point x="507" y="604"/>
      <point x="507" y="465" type="curve" smooth="yes"/>
      <point x="507" y="328"/>
      <point x="431" y="243"/>
    </contour>
    <contour>
      <point x="253" y="604" type="line"/>
      <point x="253" y="567" type="line"/>
      <point x="323" y="567" type="line" smooth="yes"/>
      <point x="356.0" y="567.0"/>
      <point x="372.0" y="555.0"/>
      <point x="372" y="530" type="curve" smooth="yes"/>
      <point x="372" y="503"/>
      <point x="356" y="487"/>
      <point x="282" y="479" type="curve" smooth="yes"/>
      <point x="253" y="476" type="line"/>
      <point x="253" y="453" type="line"/>
      <point x="316" y="453" type="line"/>
      <point x="316" y="457" type="line"/>
      <point x="400" y="468"/>
      <point x="415" y="498"/>
      <point x="415" y="535" type="curve" smooth="yes"/>
      <point x="415.0" y="578.0"/>
      <point x="383.0" y="604.0"/>
      <point x="332" y="604" type="curve" smooth="yes"/>
    </contour>
    <contour>
      <point x="217" y="604" type="line"/>
      <point x="217" y="343" type="line"/>
      <point x="259" y="343" type="line"/>
      <point x="259" y="604" type="line"/>
    </contour>
    <contour>
      <point x="420" y="345" type="line"/>
      <point x="364" y="419" type="line" smooth="yes"/>
      <point x="345" y="444"/>
      <point x="335" y="450"/>
      <point x="316" y="455" type="curve"/>
      <point x="253" y="455" type="line"/>
      <point x="247" y="451" type="line"/>
      <point x="282" y="448"/>
      <point x="292" y="445"/>
      <point x="313" y="415" type="curve" smooth="yes"/>
      <point x="365" y="343" type="line"/>
      <point x="420" y="343" type="line"/>
    </contour>
  </outline>
</glyph>
<glyph name="degree" format="2">
  <advance width="614"/>
  <unicode hex="00B0"/>
  <outline>
    <contour>
      <point x="105" y="492" type="curve" smooth="yes"/>
      <point x="105" y="373"/>
      <point x="189" y="294"/>
      <point x="307" y="294" type="curve" smooth="yes"/>
      <point x="426" y="294"/>
      <point x="509" y="374"/>
      <point x="509" y="493" type="curve" smooth="yes"/>
      <point x="509" y="613"/>
      <point x="427" y="692"/>
      <point x="308" y="692" type="curve" smooth="yes"/>
      <point x="190" y="692"/>
      <point x="105" y="612"/>
    </contour>
    <contour>
      <point x="307" y="650" type="curve" smooth="yes"/>
      <point x="392" y="650"/>
      <point x="458" y="587"/>
      <point x="458" y="492" type="curve" smooth="yes"/>
      <point x="458" y="398"/>
      <point x="394" y="336"/>
      <point x="308" y="336" type="curve" smooth="yes"/>
      <point x="220" y="336"/>
      <point x="157" y="399"/>
      <point x="157" y="493" type="curve" smooth="yes"/>
      <point x="157" y="588"/>
      <point x="219" y="650"/>
    </contour>
  </outline>
</glyph>
<glyph name="plusminus" format="2">
  <advance width="614"/>
  <unicode hex="00B1"/>
  <outline>
    <contour>
      <point x="541" y="0" type="line"/>
      <point x="541" y="51" type="line"/>
      <point x="73" y="51" type="line"/>
      <point x="73" y="0" type="line"/>
    </contour>
    <contour>
      <point x="277" y="655" type="line"/>
      <point x="277" y="224" type="line"/>
      <point x="336" y="224" type="line"/>
      <point x="336" y="655" type="line"/>
    </contour>
    <contour>
      <point x="73" y="415" type="line"/>
      <point x="541" y="415" type="line"/>
      <point x="541" y="466" type="line"/>
      <point x="73" y="466" type="line"/>
    </contour>
  </outline>
</glyph>
<glyph name="paragraph" format="2">
  <advance width="614"/>
  <unicode hex="00B6"/>
  <outline>
    <contour>
      <point x="451" y="655" type="line"/>
      <point x="451" y="0" type="line"/>
      <point x="509" y="0" type="line"/>
      <point x="509" y="655" type="line"/>
    </contour>
    <contour>
      <point x="344" y="298" type="line"/>
      <point x="344" y="631" type="line"/>
      <point x="360" y="655" type="line"/>
      <point x="321" y="655.0" type="line" smooth="yes"/>
      <point x="150.0" y="655.0"/>
      <point x="86.0" y="585.0"/>
      <point x="86" y="482" type="curve" smooth="yes"/>
      <point x="86" y="361"/>
      <point x="159" y="298"/>
      <point x="340" y="298" type="curve" smooth="yes"/>
    </contour>
    <contour>
      <point x="334" y="609" type="line"/>
      <point x="489" y="609" type="line"/>
      <point x="489" y="655" type="line"/>
      <point x="334" y="655" type="line"/>
      <point x="334" y="640" type="line"/>
    </contour>
  </outline>
</glyph>
<glyph name="ordmasculine" format="2">
  <advance width="614"/>
  <unicode hex="00BA"/>
  <outline>
    <contour>
      <point x="126" y="234" type="line"/>
      <point x="126" y="187" type="line"/>
      <point x="491" y="187" type="line"/>
      <point x="491" y="234" type="line"/>
    </contour>
    <contour>
      <point x="307" y="322" type="curve" smooth="yes"/>
      <point x="412.0" y="322.0"/>
      <point x="497.0" y="396.7835051546392"/>
      <point x="497" y="508" type="curve" smooth="yes"/>
      <point x="497.0" y="617.25"/>
      <point x="414.0" y="692.0"/>
      <point x="309" y="692" type="curve" smooth="yes"/>
      <point x="203.0" y="692.0"/>
      <point x="119.0" y="616.2746113989637"/>
      <point x="119" y="507" type="curve" smooth="yes"/>
      <point x="119.0" y="396.7668393782383"/>
      <point x="202.0" y="322.0"/>
    </contour>
    <contour>
      <point x="308" y="366" type="curve" smooth="yes"/>
      <point x="231.0" y="366.0"/>
      <point x="169.0" y="421.843537414966"/>
      <point x="169" y="506" type="curve" smooth="yes"/>
      <point x="169.0" y="592.1466666666668"/>
      <point x="231.0" y="648.0"/>
      <point x="307" y="648" type="curve" smooth="yes"/>
      <point x="384.0" y="648.0"/>
      <point x="447.0" y="591.2432432432432"/>
      <point x="447" y="508" type="curve" smooth="yes"/>
      <point x="447.0" y="421.8859060402684"/>
      <point x="384.0" y="366.0"/>
    </contour>
  </outline>
</glyph>
<glyph name="questiondown" format="2">
  <advance width="614"/>
  <unicode hex="00BF"/>
  <outline>
    <contour>
      <point x="354.0" y="483.0" type="line"/>
      <point x="347.0" y="400.0"/>
      <point x="342.0" y="393.0"/>
      <point x="316.0" y="379.0" type="curve" smooth="yes"/>
      <point x="225.0" y="331.0" type="line" smooth="yes"/>
      <point x="115.0" y="273.0"/>
      <point x="83.0" y="235.0"/>
      <point x="83.0" y="154.0" type="curve" smooth="yes"/>
      <point x="83.0" y="46.0"/>
      <point x="155.0" y="-15.0"/>
      <point x="276.0" y="-15.0" type="curve" smooth="yes"/>
      <point x="355.0" y="-15.0"/>
      <point x="414.0" y="-2.0"/>
      <point x="546.0" y="55.0" type="curve"/>
      <point x="523.0" y="106.0" type="line"/>
      <point x="389.0" y="49.0"/>
      <point x="332.0" y="36.0"/>
      <point x="284.0" y="36.0" type="curve" smooth="yes"/>
      <point x="199.0" y="36.0"/>
      <point x="146.0" y="72.0"/>
      <point x="146.0" y="153.0" type="curve" smooth="yes"/>
      <point x="146.0" y="207.0"/>
      <point x="169.0" y="241.0"/>
      <point x="250.0" y="282.0" type="curve" smooth="yes"/>
      <point x="357.0" y="336.0" type="line" smooth="yes"/>
      <point x="393.0" y="354.0"/>
      <point x="401.0" y="360.0"/>
      <point x="401.0" y="382.0" type="curve" smooth="yes"/>
      <point x="401.0" y="393.0"/>
      <point x="398.0" y="418.0"/>
      <point x="390.0" y="483.0" type="curve"/>
    </contour>
    <contour>
      <point x="377.0" y="725.0" type="curve" smooth="yes"/>
      <point x="339.0" y="725.0"/>
      <point x="315.0" y="706.0"/>
      <point x="315.0" y="673.0" type="curve" smooth="yes"/>
      <point x="315.0" y="639.0"/>
      <point x="335.0" y="618.0"/>
      <point x="375.0" y="618.0" type="curve" smooth="yes"/>
      <point x="413.0" y="618.0"/>
      <point x="437.0" y="642.0"/>
      <point x="437.0" y="670.0" type="curve" smooth="yes"/>
      <point x="437.0" y="707.0"/>
      <point x="410.0" y="725.0"/>
    </contour>
  </outline>
</glyph>
<glyph name="Aring" format="2">
  <advance width="614"/>
  <unicode hex="00C5"/>
  <outline>
    <contour>
      <point x="126" y="201" type="line"/>
      <point x="475" y="201" type="line"/>
      <point x="446" y="252" type="line"/>
      <point x="145" y="252" type="line"/>
    </contour>
    <contour>
      <point x="109" y="0" type="line"/>
      <point x="182" y="222" type="line"/>
      <point x="182" y="222" type="line"/>
      <point x="315" y="627" type="line"/>
      <point x="311" y="640" type="line"/>
      <point x="271" y="655" type="line"/>
      <point x="46" y="0" type="line"/>
    </contour>
    <contour>
      <point x="568" y="0" type="line"/>
      <point x="345" y="655" type="line"/>
      <point x="300" y="640" type="line"/>
      <point x="293" y="631" type="line"/>
      <point x="429" y="224" type="line"/>
      <point x="429" y="224" type="line"/>
      <point x="504" y="0" type="line"/>
    </contour>
    <contour>
      <point x="305" y="609" type="curve" smooth="yes"/>
      <point x="395" y="609"/>
      <point x="453" y="654"/>
      <point x="453" y="723" type="curve" smooth="yes"/>
      <point x="453" y="792"/>
      <point x="396" y="834"/>
      <point x="307" y="834" type="curve" smooth="yes"/>
      <point x="217" y="834"/>
      <point x="159" y="789"/>
      <point x="159" y="721" type="curve" smooth="yes"/>
      <point x="159" y="651"/>
      <point x="216" y="609"/>
    </contour>
    <contour>
      <point x="306" y="653" type="curve" smooth="yes"/>
      <point x="237" y="653"/>
      <point x="206" y="678"/>
      <point x="206" y="720" type="curve" smooth="yes"/>
      <point x="206" y="767"/>
      <point x="238" y="790"/>
      <point x="306" y="790" type="curve" smooth="yes"/>
      <point x="374" y="790"/>
      <point x="405" y="765"/>
      <point x="405" y="724" type="curve" smooth="yes"/>
      <point x="405" y="676"/>
      <point x="373" y="653"/>
    </contour>
  </outline>
</glyph>
<glyph name="AE" format="2">
  <advance width="614"/>
  <unicode hex="00C6"/>
  <outline>
    <contour>
      <point x="58.0" y="0.0" type="line"/>
      <point x="278.0" y="626" type="line"/>
      <point x="278.0" y="655" type="line"/>
      <point x="229.0" y="655" type="line"/>
      <point x="-9.0" y="0.0" type="line"/>
    </contour>
    <contour>
      <point x="106.0" y="200" type="line"/>
      <point x="332.0" y="200" type="line"/>
      <point x="332.0" y="251" type="line"/>
      <point x="137.0" y="251" type="line"/>
    </contour>
    <contour>
      <point x="231.0" y="604" type="line"/>
      <point x="335.0" y="604" type="line"/>
      <point x="335.0" y="655" type="line"/>
      <point x="231.0" y="655" type="line"/>
    </contour>
    <contour>
      <point x="302.0" y="655" type="line"/>
      <point x="302.0" y="0.0" type="line"/>
      <point x="363.0" y="0.0" type="line"/>
      <point x="363.0" y="655" type="line"/>
    </contour>
    <contour>
      <point x="316.0" y="604" type="line"/>
      <point x="591.0" y="604" type="line"/>
      <point x="591.0" y="655" type="line"/>
      <point x="316.0" y="655" type="line"/>
    </contour>
    <contour>
      <point x="316.0" y="0.0" type="line"/>
      <point x="591.0" y="0.0" type="line"/>
      <point x="591.0" y="51" type="line"/>
      <point x="316.0" y="51" type="line"/>
    </contour>
    <contour>
      <point x="316.0" y="306" type="line"/>
      <point x="563.0" y="306" type="line"/>
      <point x="563.0" y="357" type="line"/>
      <point x="316.0" y="357" type="line"/>
    </contour>
  </outline>
</glyph>
<glyph name="Ccedilla" format="2">
  <advance width="614"/>
  <unicode hex="00C7"/>
  <outline>
    <contour>
      <point x="319.0" y="-15.0" type="curve" smooth="yes"/>
      <point x="394.0" y="-15.0"/>
      <point x="460" y="10"/>
      <point x="556" y="88" type="curve"/>
      <point x="525" y="128" type="line"/>
      <point x="436" y="57"/>
      <point x="380.0" y="36.0"/>
      <point x="327.0" y="36.0" type="curve" smooth="yes"/>
      <point x="206" y="36"/>
      <point x="121" y="130"/>
      <point x="121" y="328" type="curve" smooth="yes"/>
      <point x="121.0" y="510.0"/>
      <point x="209.26699029126215" y="619.0"/>
      <point x="330.0" y="619.0" type="curve" smooth="yes"/>
      <point x="376.0" y="619.0"/>
      <point x="425" y="603"/>
      <point x="516" y="529" type="curve"/>
      <point x="551" y="576" type="line"/>
      <point x="451" y="650"/>
      <point x="402.0" y="670.0"/>
      <point x="330.0" y="670.0" type="curve" smooth="yes"/>
      <point x="174.2825278810409" y="670.0"/>
      <point x="58.0" y="535.0"/>
      <point x="58" y="326" type="curve" smooth="yes"/>
      <point x="58" y="115"/>
      <point x="149" y="-15"/>
    </contour>
    <contour>
      <point x="311" y="16" type="line"/>
      <point x="270" y="-98" type="line"/>
      <point x="276" y="-108" type="line"/>
      <point x="408" y="-112"/>
      <point x="421" y="-131"/>
      <point x="421.0" y="-157.0" type="curve" smooth="yes"/>
      <point x="421.0" y="-183.0"/>
      <point x="405.0" y="-205.0"/>
      <point x="213" y="-221" type="curve"/>
      <point x="228" y="-270" type="line"/>
      <point x="464.0" y="-250.0"/>
      <point x="481.0" y="-203.0"/>
      <point x="481.0" y="-155.0" type="curve" smooth="yes"/>
      <point x="481.0" y="-107.0"/>
      <point x="456.0" y="-76.0"/>
      <point x="317" y="-65" type="curve"/>
      <point x="313" y="-106" type="line"/>
      <point x="354" y="16" type="line"/>
    </contour>
  </outline>
</glyph>
<glyph name="Eth" format="2">
  <advance width="614"/>
  <unicode hex="00D0"/>
  <outline>
    <contour>
      <point x="34" y="308" type="line"/>
      <point x="321" y="308" type="line"/>
      <point x="321" y="352" type="line"/>
      <point x="34" y="352" type="line"/>
    </contour>
    <contour>
      <point x="120" y="655" type="line"/>
      <point x="120" y="0" type="line"/>
      <point x="152" y="0" type="line"/>
      <point x="181" y="27" type="line"/>
      <point x="181" y="622" type="line"/>
      <point x="181" y="655" type="line"/>
    </contour>
    <contour>
      <point x="200" y="655" type="curve" smooth="yes"/>
      <point x="149" y="655" type="line"/>
      <point x="149" y="604" type="line"/>
      <point x="213" y="604" type="line" smooth="yes"/>
      <point x="382" y="604"/>
      <point x="496" y="513"/>
      <point x="496" y="335" type="curve" smooth="yes"/>
      <point x="496" y="150"/>
      <point x="382" y="51"/>
      <point x="182" y="51" type="curve" smooth="yes"/>
      <point x="149" y="51" type="line"/>
      <point x="149" y="0" type="line"/>
      <point x="160" y="0" type="line" smooth="yes"/>
      <point x="411" y="0"/>
      <point x="559" y="120"/>
      <point x="559" y="337" type="curve" smooth="yes"/>
      <point x="559" y="542"/>
      <point x="419" y="655"/>
    </contour>
  </outline>
</glyph>
<glyph name="multiply" format="2">
  <advance width="614"/>
  <unicode hex="00D7"/>
  <outline>
    <contour>
      <point x="103" y="487" type="line"/>
      <point x="285" y="305" type="line"/>
      <point x="468" y="122" type="line"/>
      <point x="510" y="164" type="line"/>
      <point x="326" y="347" type="line"/>
      <point x="145" y="528" type="line"/>
    </contour>
    <contour>
      <point x="136" y="120" type="line"/>
      <point x="322" y="306" type="line"/>
      <point x="513" y="497" type="line"/>
      <point x="477" y="533" type="line"/>
      <point x="288" y="344" type="line"/>
      <point x="100" y="156" type="line"/>
    </contour>
  </outline>
</glyph>
<glyph name="Thorn" format="2">
  <advance width="614"/>
  <unicode hex="00DE"/>
  <outline>
    <contour>
      <point x="134" y="497" type="line"/>
      <point x="134" y="446" type="line"/>
      <point x="356" y="446" type="line" smooth="yes"/>
      <point x="452" y="446"/>
      <point x="504" y="403"/>
      <point x="504" y="328" type="curve" smooth="yes"/>
      <point x="504" y="255"/>
      <point x="447" y="208"/>
      <point x="348" y="208" type="curve" smooth="yes"/>
      <point x="134" y="208" type="line"/>
      <point x="134" y="158" type="line"/>
      <point x="344" y="158" type="line" smooth="yes"/>
      <point x="480" y="158"/>
      <point x="566" y="222"/>
      <point x="566" y="330" type="curve" smooth="yes"/>
      <point x="566" y="433"/>
      <point x="491" y="497"/>
      <point x="360" y="497" type="curve" smooth="yes"/>
    </contour>
    <contour>
      <point x="103" y="655" type="line"/>
      <point x="103" y="0" type="line"/>
      <point x="164" y="0" type="line"/>
      <point x="164" y="655" type="line"/>
    </contour>
  </outline>
</glyph>
<glyph name="germandbls" format="2">
  <advance width="614"/>
  <unicode hex="00DF"/>
  <outline>
    <contour>
      <point x="516.0" y="578" type="curve" smooth="yes"/>
      <point x="516" y="659"/>
      <point x="444" y="725"/>
      <point x="329" y="725" type="curve" smooth="yes"/>
      <point x="189" y="725"/>
      <point x="97" y="631"/>
      <point x="97.0" y="482.0" type="curve" smooth="yes"/>
      <point x="97" y="0.0" type="line"/>
      <point x="156" y="0.0" type="line"/>
      <point x="156.0" y="482.0" type="line" smooth="yes"/>
      <point x="156" y="602"/>
      <point x="219" y="674"/>
      <point x="328" y="674.0" type="curve" smooth="yes"/>
      <point x="402" y="674"/>
      <point x="453" y="634"/>
      <point x="453" y="573.0" type="curve" smooth="yes"/>
      <point x="453" y="530"/>
      <point x="441" y="493"/>
      <point x="308" y="374.0" type="curve"/>
      <point x="308" y="356.0" type="line"/>
      <point x="352" y="349.0" type="line"/>
      <point x="500" y="471"/>
      <point x="516" y="512"/>
    </contour>
    <contour>
      <point x="501.0" y="127" type="curve" smooth="yes"/>
      <point x="501.0" y="85.0"/>
      <point x="476" y="57"/>
      <point x="411" y="52" type="curve" smooth="yes"/>
      <point x="318" y="45.0" type="line"/>
      <point x="322" y="-6.0" type="line"/>
      <point x="417" y="0" type="line" smooth="yes"/>
      <point x="518" y="6"/>
      <point x="564.0" y="57"/>
      <point x="564" y="128.0" type="curve" smooth="yes"/>
      <point x="564" y="203"/>
      <point x="541" y="252"/>
      <point x="347" y="393.0" type="curve"/>
      <point x="308" y="364.0" type="line"/>
      <point x="308" y="351.0" type="line"/>
      <point x="481" y="225"/>
      <point x="501" y="179"/>
    </contour>
  </outline>
</glyph>
<glyph name="ae" format="2">
  <advance width="614"/>
  <unicode hex="00E6"/>
  <outline>
    <contour>
      <point x="160" y="45" type="curve" smooth="yes"/>
      <point x="118" y="45"/>
      <point x="98" y="74"/>
      <point x="98" y="126" type="curve" smooth="yes"/>
      <point x="98" y="177"/>
      <point x="114" y="200"/>
      <point x="188" y="217" type="curve" smooth="yes"/>
      <point x="298" y="242" type="line"/>
      <point x="298" y="286" type="line"/>
      <point x="175" y="261" type="line" smooth="yes"/>
      <point x="76" y="241"/>
      <point x="38" y="199"/>
      <point x="38" y="122" type="curve" smooth="yes"/>
      <point x="38.0" y="40.0"/>
      <point x="79.0" y="-5"/>
      <point x="153" y="-5" type="curve" smooth="yes"/>
      <point x="203" y="-5"/>
      <point x="242" y="16"/>
      <point x="294" y="62" type="curve"/>
      <point x="330" y="62" type="line"/>
      <point x="290" y="115" type="line"/>
      <point x="223" y="62"/>
      <point x="199" y="45"/>
    </contour>
    <contour>
      <point x="326" y="207" type="line"/>
      <point x="326" y="319" type="line" smooth="yes"/>
      <point x="326" y="426"/>
      <point x="300" y="470"/>
      <point x="211" y="470" type="curve" smooth="yes"/>
      <point x="178" y="470"/>
      <point x="134" y="466"/>
      <point x="77" y="456" type="curve"/>
      <point x="84" y="407" type="line"/>
      <point x="142" y="417"/>
      <point x="180" y="420"/>
      <point x="206" y="420" type="curve" smooth="yes"/>
      <point x="257" y="420"/>
      <point x="272" y="395"/>
      <point x="272" y="322" type="curve" smooth="yes"/>
      <point x="272" y="220" type="line"/>
    </contour>
    <contour>
      <point x="272" y="220" type="line"/>
      <point x="272" y="83"/>
      <point x="323" y="-1"/>
      <point x="460" y="-4" type="curve" smooth="yes"/>
      <point x="511" y="-5" type="line"/>
      <point x="513" y="44" type="line"/>
      <point x="471" y="45" type="line" smooth="yes"/>
      <point x="368" y="47"/>
      <point x="331" y="109"/>
      <point x="331" y="220" type="curve" smooth="yes"/>
      <point x="331" y="348"/>
      <point x="379" y="420"/>
      <point x="435" y="420" type="curve" smooth="yes"/>
      <point x="484" y="420"/>
      <point x="521" y="359"/>
      <point x="521" y="226" type="curve"/>
      <point x="537" y="255" type="line"/>
      <point x="291" y="255" type="line"/>
      <point x="291" y="206" type="line"/>
      <point x="579" y="206" type="line"/>
      <point x="580" y="213"/>
      <point x="581" y="221"/>
      <point x="581" y="231" type="curve" smooth="yes"/>
      <point x="581" y="390"/>
      <point x="519" y="470"/>
      <point x="435" y="470" type="curve" smooth="yes"/>
      <point x="352" y="470"/>
      <point x="284" y="369"/>
      <point x="284" y="220" type="curve"/>
    </contour>
  </outline>
</glyph>
<glyph name="ccedilla" format="2">
  <advance width="614"/>
  <unicode hex="00E7"/>
  <outline>
    <contour>
      <point x="324" y="425" type="curve" smooth="yes"/>
      <point x="371.0" y="425.0"/>
      <point x="416" y="415"/>
      <point x="509" y="356" type="curve"/>
      <point x="536" y="401" type="line"/>
      <point x="442" y="463"/>
      <point x="383" y="475"/>
      <point x="326" y="475" type="curve" smooth="yes"/>
      <point x="186" y="475"/>
      <point x="77.0" y="373.0"/>
      <point x="77" y="235" type="curve" smooth="yes"/>
      <point x="77" y="76"/>
      <point x="180" y="-15"/>
      <point x="315" y="-15" type="curve" smooth="yes"/>
      <point x="379.0" y="-15.0"/>
      <point x="439" y="0"/>
      <point x="537" y="56" type="curve"/>
      <point x="513" y="98" type="line"/>
      <point x="422" y="48"/>
      <point x="366.0" y="35.0"/>
      <point x="315" y="35" type="curve" smooth="yes"/>
      <point x="212" y="35"/>
      <point x="137" y="118"/>
      <point x="137" y="233" type="curve" smooth="yes"/>
      <point x="137" y="345"/>
      <point x="213" y="425"/>
    </contour>
    <contour>
      <point x="294" y="16" type="line"/>
      <point x="253" y="-98" type="line"/>
      <point x="259" y="-108" type="line"/>
      <point x="391" y="-112"/>
      <point x="404" y="-131"/>
      <point x="404.0" y="-157.0" type="curve" smooth="yes"/>
      <point x="404.0" y="-183.0"/>
      <point x="388.0" y="-205.0"/>
      <point x="196" y="-221" type="curve"/>
      <point x="211" y="-270" type="line"/>
      <point x="447.0" y="-250.0"/>
      <point x="464.0" y="-203.0"/>
      <point x="464.0" y="-155.0" type="curve" smooth="yes"/>
      <point x="464.0" y="-107.0"/>
      <point x="439.0" y="-76.0"/>
      <point x="300" y="-65" type="curve"/>
      <point x="296" y="-106" type="line"/>
      <point x="337" y="16" type="line"/>
    </contour>
  </outline>
</glyph>
<glyph name="eth" format="2">
  <advance width="614"/>
  <unicode hex="00F0"/>
  <outline>
    <contour>
      <point x="456" y="739" type="line"/>
      <point x="340" y="640" type="line"/>
      <point x="340" y="640" type="line"/>
      <point x="212" y="530" type="line"/>
      <point x="244" y="495" type="line"/>
      <point x="377" y="610" type="line"/>
      <point x="377" y="610" type="line"/>
      <point x="487" y="705" type="line"/>
    </contour>
    <contour>
      <point x="483" y="327" type="line"/>
      <point x="483" y="119"/>
      <point x="401" y="35"/>
      <point x="292.0" y="35.0" type="curve" smooth="yes"/>
      <point x="200" y="35"/>
      <point x="131" y="104"/>
      <point x="131" y="211" type="curve" smooth="yes"/>
      <point x="131" y="312"/>
      <point x="194" y="376"/>
      <point x="303" y="376" type="curve" smooth="yes"/>
      <point x="360" y="376"/>
      <point x="412" y="364"/>
      <point x="518" y="299" type="curve"/>
      <point x="519" y="345" type="line"/>
      <point x="440" y="406"/>
      <point x="371" y="426"/>
      <point x="297" y="426" type="curve" smooth="yes"/>
      <point x="159" y="426"/>
      <point x="71" y="331"/>
      <point x="71" y="213" type="curve" smooth="yes"/>
      <point x="71" y="69"/>
      <point x="161" y="-15"/>
      <point x="290.0" y="-15.0" type="curve" smooth="yes"/>
      <point x="439" y="-15"/>
      <point x="543" y="97"/>
      <point x="543" y="326" type="curve" smooth="yes"/>
      <point x="543" y="490"/>
      <point x="479" y="576"/>
      <point x="386" y="647" type="curve"/>
      <point x="386" y="647" type="line"/>
      <point x="334" y="688"/>
      <point x="273" y="710"/>
      <point x="201" y="725" type="curve"/>
      <point x="187" y="678" type="line"/>
      <point x="263" y="662"/>
      <point x="304" y="644"/>
      <point x="342" y="613" type="curve"/>
      <point x="342" y="613" type="line"/>
      <point x="434" y="550"/>
      <point x="483" y="473"/>
      <point x="483" y="328" type="curve"/>
    </contour>
  </outline>
</glyph>
<glyph name="divide" format="2">
  <advance width="614"/>
  <unicode hex="00F7"/>
  <outline>
    <contour>
      <point x="73.0" y="301" type="line"/>
      <point x="541" y="301" type="line"/>
      <point x="541" y="352" type="line"/>
      <point x="73.0" y="352" type="line"/>
    </contour>
    <contour>
      <point x="308" y="82" type="curve" smooth="yes"/>
      <point x="341" y="82"/>
      <point x="362" y="101"/>
      <point x="362" y="135" type="curve" smooth="yes"/>
      <point x="362" y="166"/>
      <point x="343" y="186"/>
      <point x="308" y="186" type="curve" smooth="yes"/>
      <point x="274" y="186"/>
      <point x="254.0" y="167"/>
      <point x="254.0" y="134" type="curve" smooth="yes"/>
      <point x="254.0" y="102"/>
      <point x="272" y="82"/>
    </contour>
    <contour>
      <point x="308" y="466" type="curve" smooth="yes"/>
      <point x="341" y="466"/>
      <point x="362" y="485"/>
      <point x="362" y="519" type="curve" smooth="yes"/>
      <point x="362" y="550"/>
      <point x="343" y="570"/>
      <point x="308" y="570" type="curve" smooth="yes"/>
      <point x="274" y="570"/>
      <point x="254.0" y="551"/>
      <point x="254.0" y="518" type="curve" smooth="yes"/>
      <point x="254.0" y="486"/>
      <point x="272" y="466"/>
    </contour>
  </outline>
</glyph>
<glyph name="oslash" format="2">
  <advance width="614"/>
  <unicode hex="00F8"/>
  <outline>
    <contour>
      <point x="543" y="228" type="curve" smooth="yes"/>
      <point x="543.0" y="370.0"/>
      <point x="441" y="475"/>
      <point x="309" y="475" type="curve" smooth="yes"/>
      <point x="169" y="475"/>
      <point x="71" y="374"/>
      <point x="71" y="232" type="curve" smooth="yes"/>
      <point x="71" y="90.0"/>
      <point x="173" y="-15"/>
      <point x="305" y="-15" type="curve" smooth="yes"/>
      <point x="445" y="-15"/>
      <point x="543" y="86"/>
    </contour>
    <contour>
      <point x="131" y="230" type="curve" smooth="yes"/>
      <point x="131.0" y="346.0"/>
      <point x="203" y="425"/>
      <point x="307" y="425" type="curve" smooth="yes"/>
      <point x="413" y="425"/>
      <point x="483" y="345"/>
      <point x="483" y="230" type="curve" smooth="yes"/>
      <point x="483.0" y="114.0"/>
      <point x="411" y="35"/>
      <point x="307" y="35" type="curve" smooth="yes"/>
      <point x="201" y="35"/>
      <point x="131" y="115"/>
    </contour>
    <contour>
      <point x="411" y="409" type="line"/>
      <point x="406" y="402" type="line"/>
      <point x="445" y="375" type="line"/>
      <point x="453" y="385" type="line"/>
      <point x="455" y="385" type="line"/>
      <point x="571" y="531" type="line"/>
      <point x="503" y="531" type="line"/>
      <point x="413" y="409" type="line"/>
    </contour>
    <contour>
      <point x="157" y="71" type="line"/>
      <point x="145" y="55" type="line"/>
      <point x="144" y="55" type="line"/>
      <point x="43" y="-71" type="line"/>
      <point x="111" y="-71" type="line"/>
      <point x="185" y="32" type="line"/>
      <point x="188" y="32" type="line"/>
      <point x="195" y="42" type="line"/>
    </contour>
  </outline>
</glyph>
<glyph name="thorn" format="2">
  <advance width="614"/>
  <unicode hex="00FE"/>
  <outline>
    <contour>
      <point x="340" y="468" type="curve" smooth="yes"/>
      <point x="269" y="468"/>
      <point x="216" y="441"/>
      <point x="144" y="359" type="curve"/>
      <point x="131" y="285" type="line"/>
      <point x="224" y="392"/>
      <point x="276" y="418"/>
      <point x="332" y="418" type="curve" smooth="yes"/>
      <point x="413" y="418"/>
      <point x="488" y="346"/>
      <point x="488" y="234" type="curve" smooth="yes"/>
      <point x="488" y="127"/>
      <point x="424" y="42"/>
      <point x="313" y="42" type="curve" smooth="yes"/>
      <point x="271" y="42"/>
      <point x="207" y="60"/>
      <point x="126" y="158" type="curve"/>
      <point x="139" y="83" type="line"/>
      <point x="208" y="9"/>
      <point x="269" y="-8"/>
      <point x="318" y="-8" type="curve" smooth="yes"/>
      <point x="449" y="-8"/>
      <point x="548" y="93"/>
      <point x="548" y="233" type="curve" smooth="yes"/>
      <point x="548" y="373"/>
      <point x="454" y="468"/>
    </contour>
    <contour>
      <point x="100" y="-230" type="line"/>
      <point x="159" y="-230" type="line"/>
      <point x="159" y="710" type="line"/>
      <point x="100" y="710" type="line"/>
    </contour>
  </outline>
</glyph>
<glyph name="Aogonek" format="2">
  <advance width="614"/>
  <unicode hex="0104"/>
  <outline>
    <contour>
      <point x="126" y="201" type="line"/>
      <point x="475" y="201" type="line"/>
      <point x="446" y="252" type="line"/>
      <point x="145" y="252" type="line"/>
    </contour>
    <contour>
      <point x="109" y="0" type="line"/>
      <point x="182" y="222" type="line"/>
      <point x="182" y="222" type="line"/>
      <point x="315" y="627" type="line"/>
      <point x="311" y="655" type="line"/>
      <point x="271" y="655" type="line"/>
      <point x="46" y="0" type="line"/>
    </contour>
    <contour>
      <point x="568" y="0" type="line"/>
      <point x="345" y="655" type="line"/>
      <point x="300" y="655" type="line"/>
      <point x="293" y="631" type="line"/>
      <point x="429" y="224" type="line"/>
      <point x="429" y="224" type="line"/>
      <point x="504" y="0" type="line"/>
    </contour>
    <contour>
      <point x="433" y="-154" type="curve" smooth="yes"/>
      <point x="433" y="-202"/>
      <point x="456" y="-226"/>
      <point x="524" y="-230" type="curve" smooth="yes"/>
      <point x="617" y="-235" type="line"/>
      <point x="621" y="-192" type="line"/>
      <point x="536" y="-187" type="line" smooth="yes"/>
      <point x="499" y="-185"/>
      <point x="488" y="-168"/>
      <point x="488" y="-139" type="curve" smooth="yes"/>
      <point x="488" y="-114"/>
      <point x="496" y="-76"/>
      <point x="562" y="12" type="curve"/>
      <point x="523" y="12" type="line"/>
      <point x="441" y="-92"/>
      <point x="433" y="-126"/>
    </contour>
  </outline>
</glyph>
<glyph name="aogonek" format="2">
  <advance width="614"/>
  <unicode hex="0105"/>
  <outline>
    <contour>
      <point x="223" y="45" type="curve" smooth="yes"/>
      <point x="164" y="45"/>
      <point x="137" y="74"/>
      <point x="137" y="126" type="curve" smooth="yes"/>
      <point x="137.0" y="171.0"/>
      <point x="153" y="204"/>
      <point x="244" y="216" type="curve" smooth="yes"/>
      <point x="442" y="242" type="line"/>
      <point x="442" y="286" type="line"/>
      <point x="238" y="261" type="line" smooth="yes"/>
      <point x="119" y="246"/>
      <point x="77.0" y="209.0"/>
      <point x="77" y="122" type="curve" smooth="yes"/>
      <point x="77" y="41"/>
      <point x="135" y="-5"/>
      <point x="216" y="-5" type="curve" smooth="yes"/>
      <point x="286" y="-5"/>
      <point x="345" y="21"/>
      <point x="409" y="73" type="curve"/>
      <point x="416" y="73" type="line"/>
      <point x="428" y="139" type="line"/>
      <point x="333" y="66"/>
      <point x="284" y="45"/>
    </contour>
    <contour>
      <point x="475" y="102" type="curve" smooth="yes"/>
      <point x="475" y="319" type="line" smooth="yes"/>
      <point x="475" y="422"/>
      <point x="432" y="465"/>
      <point x="284" y="465" type="curve" smooth="yes"/>
      <point x="237" y="465"/>
      <point x="174" y="458"/>
      <point x="116" y="446" type="curve"/>
      <point x="123" y="397" type="line"/>
      <point x="181" y="408"/>
      <point x="243" y="415"/>
      <point x="282" y="415" type="curve" smooth="yes"/>
      <point x="388" y="415"/>
      <point x="416" y="391"/>
      <point x="416" y="322" type="curve" smooth="yes"/>
      <point x="416" y="89" type="line"/>
      <point x="416" y="73" type="line"/>
      <point x="428" y="21"/>
      <point x="460" y="0"/>
      <point x="531" y="-2" type="curve" smooth="yes"/>
      <point x="563" y="-3" type="line"/>
      <point x="567" y="44" type="line"/>
      <point x="522" y="47" type="line" smooth="yes"/>
      <point x="484" y="50"/>
      <point x="475" y="61"/>
    </contour>
    <contour>
      <point x="371" y="-154" type="curve" smooth="yes"/>
      <point x="371" y="-202"/>
      <point x="394" y="-226"/>
      <point x="462" y="-230" type="curve" smooth="yes"/>
      <point x="555" y="-235" type="line"/>
      <point x="559" y="-192" type="line"/>
      <point x="474" y="-187" type="line" smooth="yes"/>
      <point x="437" y="-185"/>
      <point x="426" y="-168"/>
      <point x="426" y="-139" type="curve" smooth="yes"/>
      <point x="426" y="-114"/>
      <point x="434" y="-76"/>
      <point x="500" y="12" type="curve"/>
      <point x="461" y="12" type="line"/>
      <point x="379" y="-92"/>
      <point x="371" y="-126"/>
    </contour>
  </outline>
</glyph>
<glyph name="dcroat" format="2">
  <advance width="614"/>
  <unicode hex="0111"/>
  <anchor x="322" y="-35" name="below"/>
  <outline>
    <contour>
      <point x="238" y="535" type="line"/>
      <point x="583" y="535" type="line"/>
      <point x="583" y="583" type="line"/>
      <point x="238" y="583" type="line"/>
    </contour>
    <contour>
      <point x="448" y="0" type="line"/>
      <point x="497" y="0" type="line"/>
      <point x="497" y="710" type="line"/>
      <point x="438" y="710" type="line"/>
      <point x="438" y="104" type="line"/>
      <point x="438" y="104" type="line"/>
    </contour>
    <contour>
      <point x="264" y="-8" type="curve" smooth="yes"/>
      <point x="332" y="-8"/>
      <point x="382" y="20"/>
      <point x="453" y="101" type="curve"/>
      <point x="466" y="175" type="line"/>
      <point x="374" y="69"/>
      <point x="326" y="42"/>
      <point x="272" y="42" type="curve" smooth="yes"/>
      <point x="196" y="42"/>
      <point x="126" y="106"/>
      <point x="126" y="206" type="curve" smooth="yes"/>
      <point x="126" y="301"/>
      <point x="186" y="378"/>
      <point x="291" y="378" type="curve" smooth="yes"/>
      <point x="332" y="378"/>
      <point x="391" y="359"/>
      <point x="471" y="262" type="curve"/>
      <point x="458" y="337" type="line"/>
      <point x="390" y="410"/>
      <point x="333" y="428"/>
      <point x="286" y="428" type="curve" smooth="yes"/>
      <point x="161" y="428"/>
      <point x="66" y="335"/>
      <point x="66" y="207" type="curve" smooth="yes"/>
      <point x="66" y="79"/>
      <point x="155" y="-8"/>
    </contour>
  </outline>
</glyph>
<glyph name="Eogonek" format="2">
  <advance width="614"/>
  <unicode hex="0118"/>
  <outline>
    <contour>
      <point x="103" y="655" type="line"/>
      <point x="103" y="0" type="line"/>
      <point x="164" y="0" type="line"/>
      <point x="164" y="655" type="line"/>
    </contour>
    <contour>
      <point x="116" y="604" type="line"/>
      <point x="533" y="604" type="line"/>
      <point x="533" y="655" type="line"/>
      <point x="116" y="655" type="line"/>
    </contour>
    <contour>
      <point x="116" y="0" type="line"/>
      <point x="542" y="0" type="line"/>
      <point x="542" y="51" type="line"/>
      <point x="116" y="51" type="line"/>
    </contour>
    <contour>
      <point x="116" y="306" type="line"/>
      <point x="469" y="306" type="line"/>
      <point x="469" y="357" type="line"/>
      <point x="116" y="357" type="line"/>
    </contour>
    <contour>
      <point x="356" y="-154" type="curve" smooth="yes"/>
      <point x="356" y="-202"/>
      <point x="379" y="-226"/>
      <point x="447" y="-230" type="curve" smooth="yes"/>
      <point x="540" y="-235" type="line"/>
      <point x="544" y="-192" type="line"/>
      <point x="459" y="-187" type="line" smooth="yes"/>
      <point x="422" y="-185"/>
      <point x="411" y="-168"/>
      <point x="411" y="-139" type="curve" smooth="yes"/>
      <point x="411" y="-114"/>
      <point x="419" y="-76"/>
      <point x="485" y="12" type="curve"/>
      <point x="446" y="12" type="line"/>
      <point x="364" y="-92"/>
      <point x="356" y="-126"/>
    </contour>
  </outline>
</glyph>
<glyph name="eogonek" format="2">
  <advance width="614"/>
  <unicode hex="0119"/>
  <anchor x="321" y="498" name="aboveLCx"/>
  <anchor x="321" y="531" name="aboveLC"/>
  <outline>
    <contour>
      <point x="297" y="-154" type="curve" smooth="yes"/>
      <point x="297" y="-202"/>
      <point x="320" y="-226"/>
      <point x="388" y="-230" type="curve" smooth="yes"/>
      <point x="481" y="-235" type="line"/>
      <point x="485" y="-192" type="line"/>
      <point x="400" y="-187" type="line" smooth="yes"/>
      <point x="363" y="-185"/>
      <point x="352" y="-168"/>
      <point x="352" y="-139" type="curve" smooth="yes"/>
      <point x="352" y="-117"/>
      <point x="366" y="-86"/>
      <point x="448" y="-5" type="curve"/>
      <point x="432" y="3" type="line"/>
      <point x="416" y="11" type="line"/>
      <point x="310" y="-87"/>
      <point x="297" y="-126"/>
    </contour>
    <contour>
      <point x="345" y="46" type="line" smooth="yes"/>
      <point x="208" y="49"/>
      <point x="143.0" y="109.0"/>
      <point x="143.0" y="220.0" type="curve" smooth="yes"/>
      <point x="143.0" y="351.0"/>
      <point x="223.0" y="425.0"/>
      <point x="318" y="425" type="curve" smooth="yes"/>
      <point x="410.0" y="425.0"/>
      <point x="473.0" y="370.0"/>
      <point x="473" y="226" type="curve"/>
      <point x="489" y="255" type="line"/>
      <point x="103" y="255" type="line"/>
      <point x="103" y="206" type="line"/>
      <point x="531" y="206" type="line"/>
      <point x="532" y="213"/>
      <point x="533.0" y="221.0"/>
      <point x="533" y="231" type="curve" smooth="yes"/>
      <point x="533.0" y="398.0"/>
      <point x="448.0" y="475.0"/>
      <point x="318" y="475" type="curve" smooth="yes"/>
      <point x="187.0" y="475.0"/>
      <point x="83.0" y="372.0"/>
      <point x="83.0" y="220.0" type="curve" smooth="yes"/>
      <point x="83.0" y="83.0"/>
      <point x="160" y="0"/>
      <point x="331" y="-3" type="curve" smooth="yes"/>
      <point x="448" y="-5" type="line"/>
      <point x="450" y="44" type="line"/>
    </contour>
  </outline>
</glyph>
<glyph name="Hbar" format="2">
  <advance width="614"/>
  <unicode hex="0126"/>
  <outline>
    <contour>
      <point x="34" y="477" type="line"/>
      <point x="139" y="477" type="line"/>
      <point x="140" y="477" type="line"/>
      <point x="476" y="477" type="line"/>
      <point x="476" y="477" type="line"/>
      <point x="580" y="477" type="line"/>
      <point x="580" y="521" type="line"/>
      <point x="478" y="521" type="line"/>
      <point x="478" y="521" type="line"/>
      <point x="137" y="521" type="line"/>
      <point x="137" y="521" type="line"/>
      <point x="34" y="521" type="line"/>
    </contour>
    <contour>
      <point x="120" y="655" type="line"/>
      <point x="120" y="0" type="line"/>
      <point x="181" y="0" type="line"/>
      <point x="181" y="655" type="line"/>
    </contour>
    <contour>
      <point x="433" y="655" type="line"/>
      <point x="433" y="0" type="line"/>
      <point x="494" y="0" type="line"/>
      <point x="494" y="655" type="line"/>
    </contour>
    <contour>
      <point x="143" y="285" type="line"/>
      <point x="468" y="285" type="line"/>
      <point x="468" y="336" type="line"/>
      <point x="143" y="336" type="line"/>
    </contour>
  </outline>
</glyph>
<glyph name="hbar" format="2">
  <advance width="614"/>
  <unicode hex="0127"/>
  <outline>
    <contour>
      <point x="179" y="710" type="line"/>
      <point x="120" y="710" type="line"/>
      <point x="120" y="0" type="line"/>
      <point x="179" y="0" type="line"/>
    </contour>
    <contour>
      <point x="379" y="535" type="line"/>
      <point x="379" y="583" type="line"/>
      <point x="34" y="583" type="line"/>
      <point x="34" y="535" type="line"/>
    </contour>
    <contour>
      <point x="167" y="240" type="line"/>
      <point x="275" y="344"/>
      <point x="311" y="376"/>
      <point x="361" y="376" type="curve" smooth="yes"/>
      <point x="426" y="376"/>
      <point x="454.0" y="343.0"/>
      <point x="454" y="276" type="curve" smooth="yes"/>
      <point x="454" y="0" type="line"/>
      <point x="513" y="0" type="line"/>
      <point x="513" y="286" type="line" smooth="yes"/>
      <point x="513.0" y="370.0"/>
      <point x="466" y="428"/>
      <point x="371" y="428" type="curve" smooth="yes"/>
      <point x="302" y="428"/>
      <point x="258" y="390"/>
      <point x="156" y="286" type="curve"/>
    </contour>
  </outline>
</glyph>
<glyph name="Iogonek" format="2">
  <advance width="614"/>
  <unicode hex="012E"/>
  <outline>
    <contour>
      <point x="277" y="655" type="line"/>
      <point x="277" y="0" type="line"/>
      <point x="338" y="0" type="line"/>
      <point x="338" y="655" type="line"/>
    </contour>
    <contour>
      <point x="139" y="629" type="line"/>
      <point x="307" y="602" type="line"/>
      <point x="475" y="629" type="line"/>
      <point x="475" y="655" type="line"/>
      <point x="139" y="655" type="line"/>
    </contour>
    <contour>
      <point x="139" y="26" type="line"/>
      <point x="139" y="0" type="line"/>
      <point x="475" y="0" type="line"/>
      <point x="475" y="26" type="line"/>
      <point x="307" y="53" type="line"/>
    </contour>
    <contour>
      <point x="206" y="-153" type="curve" smooth="yes"/>
      <point x="206" y="-201"/>
      <point x="229" y="-225"/>
      <point x="297" y="-229" type="curve" smooth="yes"/>
      <point x="390" y="-234" type="line"/>
      <point x="394" y="-191" type="line"/>
      <point x="309" y="-186" type="line" smooth="yes"/>
      <point x="272" y="-184"/>
      <point x="261" y="-167"/>
      <point x="261" y="-138" type="curve" smooth="yes"/>
      <point x="261" y="-113"/>
      <point x="269" y="-75"/>
      <point x="335" y="13" type="curve"/>
      <point x="296" y="13" type="line"/>
      <point x="214" y="-91"/>
      <point x="206" y="-125"/>
    </contour>
  </outline>
</glyph>
<glyph name="iogonek" format="2">
  <advance width="614"/>
  <unicode hex="012F"/>
  <outline>
    <contour>
      <point x="293" y="460" type="line"/>
      <point x="293" y="0" type="line"/>
      <point x="352" y="0" type="line"/>
      <point x="352" y="460" type="line"/>
    </contour>
    <contour>
      <point x="143" y="460" type="line"/>
      <point x="143" y="410" type="line"/>
      <point x="326" y="410" type="line"/>
      <point x="326" y="460" type="line"/>
    </contour>
    <contour>
      <point x="123" y="50" type="line"/>
      <point x="123" y="0" type="line"/>
      <point x="522" y="0" type="line"/>
      <point x="522" y="50" type="line"/>
    </contour>
    <contour>
      <point x="306" y="614" type="curve" smooth="yes"/>
      <point x="344" y="614"/>
      <point x="368" y="633"/>
      <point x="368" y="666" type="curve" smooth="yes"/>
      <point x="368" y="700"/>
      <point x="348" y="721"/>
      <point x="308" y="721" type="curve" smooth="yes"/>
      <point x="270" y="721"/>
      <point x="246" y="697"/>
      <point x="246" y="669" type="curve" smooth="yes"/>
      <point x="246" y="632"/>
      <point x="273" y="614"/>
    </contour>
    <contour>
      <point x="220" y="-154" type="curve" smooth="yes"/>
      <point x="220" y="-202"/>
      <point x="243" y="-226"/>
      <point x="311" y="-230" type="curve" smooth="yes"/>
      <point x="404" y="-235" type="line"/>
      <point x="408" y="-192" type="line"/>
      <point x="323" y="-187" type="line" smooth="yes"/>
      <point x="286" y="-185"/>
      <point x="275" y="-168"/>
      <point x="275" y="-139" type="curve" smooth="yes"/>
      <point x="275" y="-114"/>
      <point x="283" y="-76"/>
      <point x="349" y="12" type="curve"/>
      <point x="310" y="12" type="line"/>
      <point x="228" y="-92"/>
      <point x="220" y="-126"/>
    </contour>
  </outline>
</glyph>
<glyph name="dotlessi" format="2">
  <advance width="614"/>
  <unicode hex="0131"/>
  <anchor x="324" y="-35" name="below"/>
  <anchor x="317" y="502" name="aboveLC"/>
  <anchor x="324" y="-10" name="belowogonek"/>
  <outline>
    <contour>
      <point x="293" y="460" type="line"/>
      <point x="293" y="0" type="line"/>
      <point x="352" y="0" type="line"/>
      <point x="352" y="460" type="line"/>
    </contour>
    <contour>
      <point x="143" y="460" type="line"/>
      <point x="143" y="410" type="line"/>
      <point x="323" y="410" type="line"/>
      <point x="323" y="460" type="line"/>
    </contour>
    <contour>
      <point x="123" y="50" type="line"/>
      <point x="123" y="0" type="line"/>
      <point x="522" y="0" type="line"/>
      <point x="522" y="50" type="line"/>
    </contour>
  </outline>
</glyph>
<glyph name="Lslash" format="2">
  <advance width="614"/>
  <unicode hex="0141"/>
  <outline>
    <contour>
      <point x="47" y="196" type="line"/>
      <point x="161" y="274" type="line"/>
      <point x="161" y="274" type="line"/>
      <point x="402" y="439" type="line"/>
      <point x="402" y="494" type="line"/>
      <point x="158" y="327" type="line"/>
      <point x="158" y="327" type="line"/>
      <point x="47" y="251" type="line"/>
    </contour>
    <contour>
      <point x="133" y="655" type="line"/>
      <point x="133" y="0" type="line"/>
      <point x="194" y="0" type="line"/>
      <point x="194" y="655" type="line"/>
    </contour>
    <contour>
      <point x="142" y="0" type="line"/>
      <point x="539" y="0" type="line"/>
      <point x="539" y="50" type="line"/>
      <point x="142" y="50" type="line"/>
    </contour>
  </outline>
</glyph>
<glyph name="lslash" format="2">
  <advance width="614"/>
  <unicode hex="0142"/>
  <outline>
    <contour>
      <point x="282" y="342" type="line"/>
      <point x="473" y="437" type="line"/>
      <point x="473" y="492" type="line"/>
      <point x="282" y="397" type="line"/>
    </contour>
    <contour>
      <point x="101" y="262" type="line"/>
      <point x="282" y="352" type="line"/>
      <point x="282" y="407" type="line"/>
      <point x="101" y="317" type="line"/>
    </contour>
    <contour>
      <point x="61" y="710" type="line"/>
      <point x="61" y="660" type="line"/>
      <point x="287" y="660" type="line"/>
      <point x="287" y="710" type="line"/>
    </contour>
    <contour>
      <point x="254" y="147" type="line" smooth="yes"/>
      <point x="254" y="44"/>
      <point x="292" y="7"/>
      <point x="399" y="0" type="curve" smooth="yes"/>
      <point x="513" y="-7" type="line"/>
      <point x="517" y="44" type="line"/>
      <point x="408" y="51" type="line" smooth="yes"/>
      <point x="341" y="55"/>
      <point x="313" y="81"/>
      <point x="313" y="156" type="curve" smooth="yes"/>
      <point x="313" y="710" type="line"/>
      <point x="254" y="710" type="line"/>
    </contour>
  </outline>
</glyph>
<glyph name="Eng" format="2">
  <advance width="614"/>
  <unicode hex="014A"/>
  <outline>
    <contour>
      <point x="140" y="639" type="line"/>
      <point x="475" y="-89" type="line"/>
      <point x="481" y="-89" type="line"/>
      <point x="481" y="36" type="line"/>
      <point x="196" y="655" type="line"/>
      <point x="142" y="655" type="line"/>
    </contour>
    <contour>
      <point x="155" y="0" type="line"/>
      <point x="150" y="655" type="line"/>
      <point x="97" y="655" type="line"/>
      <point x="97" y="0" type="line"/>
    </contour>
    <contour>
      <point x="464" y="-69" type="line" smooth="yes"/>
      <point x="464.0" y="-145"/>
      <point x="431" y="-172"/>
      <point x="350" y="-178" type="curve" smooth="yes"/>
      <point x="221" y="-188" type="line"/>
      <point x="224" y="-239" type="line"/>
      <point x="353" y="-230" type="line" smooth="yes"/>
      <point x="471" y="-222"/>
      <point x="517" y="-174"/>
      <point x="517" y="-74" type="curve" smooth="yes"/>
      <point x="517" y="655" type="line"/>
      <point x="459" y="655" type="line"/>
      <point x="464" y="-61" type="line"/>
    </contour>
  </outline>
</glyph>
<glyph name="eng" format="2">
  <advance width="614"/>
  <unicode hex="014B"/>
  <outline>
    <contour>
      <point x="513" y="-74" type="curve" smooth="yes"/>
      <point x="513" y="323" type="line" smooth="yes"/>
      <point x="513" y="407"/>
      <point x="466" y="465"/>
      <point x="371" y="465" type="curve" smooth="yes"/>
      <point x="297" y="465"/>
      <point x="244" y="430"/>
      <point x="139" y="323" type="curve"/>
      <point x="150" y="277" type="line"/>
      <point x="262" y="385"/>
      <point x="307" y="413"/>
      <point x="361" y="413" type="curve" smooth="yes"/>
      <point x="426" y="413"/>
      <point x="454" y="380"/>
      <point x="454" y="313" type="curve" smooth="yes"/>
      <point x="454" y="-69" type="line" smooth="yes"/>
      <point x="454.0" y="-143.0"/>
      <point x="423" y="-172"/>
      <point x="346" y="-178" type="curve" smooth="yes"/>
      <point x="217" y="-188" type="line"/>
      <point x="220" y="-239" type="line"/>
      <point x="349" y="-230" type="line" smooth="yes"/>
      <point x="467" y="-222"/>
      <point x="513.0" y="-174.0"/>
    </contour>
    <contour>
      <point x="152" y="460" type="line"/>
      <point x="103" y="460" type="line"/>
      <point x="103" y="0" type="line"/>
      <point x="162" y="0" type="line"/>
      <point x="162" y="335" type="line"/>
      <point x="162" y="336" type="line"/>
    </contour>
  </outline>
</glyph>
<glyph name="OE" format="2">
  <advance width="614"/>
  <unicode hex="0152"/>
  <outline>
    <contour>
      <point x="365" y="0" type="line"/>
      <point x="365" y="655" type="line"/>
      <point x="313" y="655" type="line"/>
      <point x="304" y="628" type="line"/>
      <point x="304" y="33" type="line"/>
      <point x="304" y="0" type="line"/>
    </contour>
    <contour>
      <point x="265" y="0" type="curve" smooth="yes"/>
      <point x="316" y="0" type="line"/>
      <point x="316" y="51" type="line"/>
      <point x="252" y="51" type="line" smooth="yes"/>
      <point x="155" y="51"/>
      <point x="89" y="142"/>
      <point x="89" y="320" type="curve" smooth="yes"/>
      <point x="89" y="505"/>
      <point x="160" y="604"/>
      <point x="283" y="604" type="curve" smooth="yes"/>
      <point x="316" y="604" type="line"/>
      <point x="316" y="655" type="line"/>
      <point x="305" y="655" type="line" smooth="yes"/>
      <point x="129" y="655"/>
      <point x="26" y="535"/>
      <point x="26" y="318" type="curve" smooth="yes"/>
      <point x="26" y="113"/>
      <point x="119" y="0"/>
    </contour>
    <contour>
      <point x="318.0" y="604" type="line"/>
      <point x="593.0" y="604" type="line"/>
      <point x="593.0" y="655" type="line"/>
      <point x="318.0" y="655" type="line"/>
    </contour>
    <contour>
      <point x="318.0" y="0.0" type="line"/>
      <point x="593.0" y="0.0" type="line"/>
      <point x="593.0" y="51" type="line"/>
      <point x="318.0" y="51" type="line"/>
    </contour>
    <contour>
      <point x="318.0" y="306" type="line"/>
      <point x="565.0" y="306" type="line"/>
      <point x="565.0" y="357" type="line"/>
      <point x="318.0" y="357" type="line"/>
    </contour>
  </outline>
</glyph>
<glyph name="oe" format="2">
  <advance width="614"/>
  <unicode hex="0153"/>
  <outline>
    <contour>
      <point x="188" y="-15" type="curve" smooth="yes"/>
      <point x="275" y="-15"/>
      <point x="338" y="82"/>
      <point x="338" y="228" type="curve" smooth="yes"/>
      <point x="338" y="374"/>
      <point x="277" y="475"/>
      <point x="192" y="475" type="curve" smooth="yes"/>
      <point x="98" y="475"/>
      <point x="32" y="374"/>
      <point x="32" y="232" type="curve" smooth="yes"/>
      <point x="32" y="82"/>
      <point x="97" y="-15"/>
    </contour>
    <contour>
      <point x="190" y="35" type="curve" smooth="yes"/>
      <point x="132" y="35"/>
      <point x="92" y="112"/>
      <point x="92" y="230" type="curve" smooth="yes"/>
      <point x="92" y="346"/>
      <point x="132" y="425"/>
      <point x="190" y="425" type="curve" smooth="yes"/>
      <point x="248" y="425"/>
      <point x="288" y="343"/>
      <point x="288" y="230" type="curve" smooth="yes"/>
      <point x="288" y="109"/>
      <point x="248" y="35"/>
    </contour>
    <contour>
      <point x="298" y="220" type="curve" smooth="yes"/>
      <point x="298" y="83"/>
      <point x="341" y="-2"/>
      <point x="458" y="-4" type="curve" smooth="yes"/>
      <point x="509" y="-5" type="line"/>
      <point x="511" y="44" type="line"/>
      <point x="469" y="45" type="line" smooth="yes"/>
      <point x="379" y="47"/>
      <point x="347" y="109"/>
      <point x="347" y="220" type="curve" smooth="yes"/>
      <point x="347" y="351"/>
      <point x="391" y="425"/>
      <point x="443" y="425" type="curve" smooth="yes"/>
      <point x="487" y="425"/>
      <point x="521" y="362"/>
      <point x="521" y="226" type="curve"/>
      <point x="537" y="255" type="line"/>
      <point x="307" y="255" type="line"/>
      <point x="307" y="206" type="line"/>
      <point x="579" y="206" type="line"/>
      <point x="580" y="213"/>
      <point x="581" y="221"/>
      <point x="581" y="231" type="curve" smooth="yes"/>
      <point x="581" y="393"/>
      <point x="522" y="475"/>
      <point x="443" y="475" type="curve" smooth="yes"/>
      <point x="363" y="475"/>
      <point x="298" y="372"/>
    </contour>
  </outline>
</glyph>
<glyph name="Scedilla" format="2">
  <advance width="614"/>
  <unicode hex="015E"/>
  <outline>
    <contour>
      <point x="310" y="38" type="curve" smooth="yes"/>
      <point x="257" y="38"/>
      <point x="175" y="59"/>
      <point x="94" y="92" type="curve"/>
      <point x="75" y="38" type="line"/>
      <point x="163" y="3"/>
      <point x="237" y="-13"/>
      <point x="310" y="-13" type="curve" smooth="yes"/>
      <point x="448" y="-13"/>
      <point x="535" y="53"/>
      <point x="535" y="173" type="curve" smooth="yes"/>
      <point x="535" y="263"/>
      <point x="488" y="314"/>
      <point x="364" y="354" type="curve" smooth="yes"/>
      <point x="290" y="378" type="line" smooth="yes"/>
      <point x="198" y="408"/>
      <point x="166" y="447"/>
      <point x="166" y="510" type="curve" smooth="yes"/>
      <point x="166" y="569"/>
      <point x="209" y="617"/>
      <point x="318" y="617" type="curve" smooth="yes"/>
      <point x="367.468085106383" y="617.0"/>
      <point x="425.74533654619995" y="606.7452647247164"/>
      <point x="504" y="580" type="curve"/>
      <point x="519" y="634" type="line"/>
      <point x="438.26206361931594" y="658.2213809142053"/>
      <point x="386.68341708542715" y="668.0"/>
      <point x="318" y="668" type="curve" smooth="yes"/>
      <point x="170" y="668"/>
      <point x="103" y="587"/>
      <point x="103" y="506" type="curve" smooth="yes"/>
      <point x="103" y="420"/>
      <point x="151" y="359"/>
      <point x="278" y="319" type="curve" smooth="yes"/>
      <point x="352" y="296" type="line" smooth="yes"/>
      <point x="439" y="269"/>
      <point x="472" y="228"/>
      <point x="472" y="171" type="curve" smooth="yes"/>
      <point x="472" y="90"/>
      <point x="418" y="38"/>
    </contour>
    <contour>
      <point x="295" y="16" type="line"/>
      <point x="254" y="-98" type="line"/>
      <point x="260" y="-108" type="line"/>
      <point x="392" y="-112"/>
      <point x="405" y="-131"/>
      <point x="405.0" y="-157.0" type="curve" smooth="yes"/>
      <point x="405.0" y="-183.0"/>
      <point x="389.0" y="-205.0"/>
      <point x="197" y="-221" type="curve"/>
      <point x="212" y="-270" type="line"/>
      <point x="448.0" y="-250.0"/>
      <point x="465.0" y="-203.0"/>
      <point x="465.0" y="-155.0" type="curve" smooth="yes"/>
      <point x="465.0" y="-107.0"/>
      <point x="440.0" y="-76.0"/>
      <point x="301" y="-65" type="curve"/>
      <point x="297" y="-106" type="line"/>
      <point x="338" y="16" type="line"/>
    </contour>
  </outline>
</glyph>
<glyph name="Tcedilla" format="2">
  <advance width="614"/>
  <unicode hex="0162"/>
  <outline>
    <contour>
      <point x="277" y="636" type="line"/>
      <point x="277" y="0" type="line"/>
      <point x="338" y="0" type="line"/>
      <point x="338" y="636" type="line"/>
    </contour>
    <contour>
      <point x="56" y="604" type="line"/>
      <point x="558" y="604" type="line"/>
      <point x="558" y="655" type="line"/>
      <point x="56" y="655" type="line"/>
    </contour>
    <contour>
      <point x="293" y="21" type="line"/>
      <point x="252" y="-93" type="line"/>
      <point x="258" y="-103" type="line"/>
      <point x="390" y="-107"/>
      <point x="403" y="-126"/>
      <point x="403.0" y="-152.0" type="curve" smooth="yes"/>
      <point x="403.0" y="-178.0"/>
      <point x="387.0" y="-200.0"/>
      <point x="195" y="-216" type="curve"/>
      <point x="210" y="-265" type="line"/>
      <point x="446.0" y="-245.0"/>
      <point x="463.0" y="-198.0"/>
      <point x="463.0" y="-150.0" type="curve" smooth="yes"/>
      <point x="463.0" y="-102.0"/>
      <point x="438.0" y="-71.0"/>
      <point x="299" y="-60" type="curve"/>
      <point x="295" y="-101" type="line"/>
      <point x="336" y="21" type="line"/>
    </contour>
  </outline>
</glyph>
<glyph name="tcedilla" format="2">
  <advance width="614"/>
  <unicode hex="0163"/>
  <outline>
    <contour>
      <point x="229" y="167" type="line" smooth="yes"/>
      <point x="229.0" y="44.6751592356688"/>
      <point x="266" y="6"/>
      <point x="374" y="0" type="curve" smooth="yes"/>
      <point x="530" y="-8" type="line"/>
      <point x="533" y="43" type="line"/>
      <point x="386" y="51" type="line" smooth="yes"/>
      <point x="310" y="55"/>
      <point x="288.0" y="81.3931623931624"/>
      <point x="288" y="178" type="curve" smooth="yes"/>
      <point x="288" y="410" type="line"/>
      <point x="503" y="410" type="line"/>
      <point x="503" y="460" type="line"/>
      <point x="288" y="460" type="line"/>
      <point x="288" y="637" type="line"/>
      <point x="229" y="637" type="line"/>
      <point x="229" y="460" type="line"/>
      <point x="68" y="460" type="line"/>
      <point x="68" y="410" type="line"/>
      <point x="229" y="410" type="line"/>
    </contour>
    <contour>
      <point x="308" y="21" type="line"/>
      <point x="267" y="-93" type="line"/>
      <point x="273" y="-103" type="line"/>
      <point x="405" y="-107"/>
      <point x="418" y="-126"/>
      <point x="418.0" y="-152.0" type="curve" smooth="yes"/>
      <point x="418.0" y="-178.0"/>
      <point x="402.0" y="-200.0"/>
      <point x="210" y="-216" type="curve"/>
      <point x="225" y="-265" type="line"/>
      <point x="461.0" y="-245.0"/>
      <point x="478.0" y="-198.0"/>
      <point x="478.0" y="-150.0" type="curve" smooth="yes"/>
      <point x="478.0" y="-102.0"/>
      <point x="453.0" y="-71.0"/>
      <point x="314" y="-60" type="curve"/>
      <point x="310" y="-101" type="line"/>
      <point x="351" y="21" type="line"/>
    </contour>
  </outline>
</glyph>
<glyph name="tbar" format="2">
  <advance width="614"/>
  <unicode hex="0167"/>
  <outline>
    <contour>
      <point x="103" y="222" type="line"/>
      <point x="461" y="222" type="line"/>
      <point x="461" y="270" type="line"/>
      <point x="103" y="270" type="line"/>
    </contour>
    <contour>
      <point x="229" y="167" type="line" smooth="yes"/>
      <point x="229" y="45"/>
      <point x="266" y="6"/>
      <point x="374" y="0" type="curve" smooth="yes"/>
      <point x="530" y="-8" type="line"/>
      <point x="533" y="43" type="line"/>
      <point x="386" y="51" type="line" smooth="yes"/>
      <point x="310" y="55"/>
      <point x="288" y="81"/>
      <point x="288" y="178" type="curve" smooth="yes"/>
      <point x="288" y="410" type="line"/>
      <point x="503" y="410" type="line"/>
      <point x="503" y="460" type="line"/>
      <point x="288" y="460" type="line"/>
      <point x="288" y="637" type="line"/>
      <point x="229" y="637" type="line"/>
      <point x="229" y="460" type="line"/>
      <point x="68" y="460" type="line"/>
      <point x="68" y="410" type="line"/>
      <point x="229" y="410" type="line"/>
    </contour>
  </outline>
</glyph>
<glyph name="Uogonek" format="2">
  <advance width="614"/>
  <unicode hex="0172"/>
  <outline>
    <contour>
      <point x="472" y="234" type="line" smooth="yes"/>
      <point x="472" y="97"/>
      <point x="417" y="36"/>
      <point x="307" y="36" type="curve" smooth="yes"/>
      <point x="201" y="36"/>
      <point x="143" y="99"/>
      <point x="143" y="234" type="curve" smooth="yes"/>
      <point x="143" y="655" type="line"/>
      <point x="82" y="655" type="line"/>
      <point x="82" y="234" type="line" smooth="yes"/>
      <point x="82" y="69"/>
      <point x="162" y="-15"/>
      <point x="306" y="-15" type="curve" smooth="yes"/>
      <point x="453" y="-15"/>
      <point x="532" y="67"/>
      <point x="532" y="234" type="curve" smooth="yes"/>
      <point x="532" y="655" type="line"/>
      <point x="472" y="655" type="line"/>
    </contour>
    <contour>
      <point x="225" y="-159" type="curve" smooth="yes"/>
      <point x="225" y="-207"/>
      <point x="248" y="-231"/>
      <point x="316" y="-235" type="curve" smooth="yes"/>
      <point x="409" y="-240" type="line"/>
      <point x="413" y="-197" type="line"/>
      <point x="328" y="-192" type="line" smooth="yes"/>
      <point x="291" y="-190"/>
      <point x="280" y="-173"/>
      <point x="280" y="-144" type="curve" smooth="yes"/>
      <point x="280" y="-119"/>
      <point x="288" y="-81"/>
      <point x="354" y="7" type="curve"/>
      <point x="315" y="7" type="line"/>
      <point x="233" y="-97"/>
      <point x="225" y="-131"/>
    </contour>
  </outline>
</glyph>
<glyph name="uogonek" format="2">
  <advance width="614"/>
  <unicode hex="0173"/>
  <outline>
    <contour>
      <point x="511" y="0" type="line"/>
      <point x="511" y="460" type="line"/>
      <point x="452" y="460" type="line"/>
      <point x="452" y="125" type="line"/>
      <point x="452" y="125" type="line"/>
      <point x="456" y="0" type="line"/>
    </contour>
    <contour>
      <point x="464" y="183" type="line"/>
      <point x="352" y="75"/>
      <point x="307" y="47"/>
      <point x="253" y="47" type="curve" smooth="yes"/>
      <point x="188" y="47"/>
      <point x="160" y="80"/>
      <point x="160" y="147" type="curve" smooth="yes"/>
      <point x="160" y="460" type="line"/>
      <point x="101" y="460" type="line"/>
      <point x="101" y="137" type="line" smooth="yes"/>
      <point x="101" y="53"/>
      <point x="148" y="-5"/>
      <point x="243" y="-5" type="curve" smooth="yes"/>
      <point x="316.6347826086957" y="-5.0"/>
      <point x="369.5511032454163" y="29.542552831043295"/>
      <point x="475" y="137" type="curve"/>
    </contour>
    <contour>
      <point x="382" y="-154" type="curve" smooth="yes"/>
      <point x="382" y="-202"/>
      <point x="405" y="-226"/>
      <point x="473" y="-230" type="curve" smooth="yes"/>
      <point x="566" y="-235" type="line"/>
      <point x="570" y="-192" type="line"/>
      <point x="485" y="-187" type="line" smooth="yes"/>
      <point x="448" y="-185"/>
      <point x="437" y="-168"/>
      <point x="437" y="-139" type="curve" smooth="yes"/>
      <point x="437" y="-114"/>
      <point x="445" y="-76"/>
      <point x="511" y="12" type="curve"/>
      <point x="472" y="12" type="line"/>
      <point x="390" y="-92"/>
      <point x="382" y="-126"/>
    </contour>
  </outline>
</glyph>
<glyph name="Schwa" format="2">
  <advance width="614"/>
  <unicode hex="018F"/>
  <outline>
    <contour>
      <point x="546" y="326" type="curve" smooth="yes"/>
      <point x="546" y="583"/>
      <point x="448" y="664"/>
      <point x="268" y="664" type="curve" smooth="yes"/>
      <point x="233" y="664"/>
      <point x="194" y="661"/>
      <point x="149" y="655" type="curve"/>
      <point x="154" y="603" type="line"/>
      <point x="194" y="609"/>
      <point x="235" y="613"/>
      <point x="270" y="613" type="curve" smooth="yes"/>
      <point x="410" y="613"/>
      <point x="483" y="556"/>
      <point x="483" y="328" type="curve" smooth="yes"/>
      <point x="483" y="101"/>
      <point x="413" y="36"/>
      <point x="299" y="36" type="curve" smooth="yes"/>
      <point x="193" y="36"/>
      <point x="129" y="94"/>
      <point x="129" y="327" type="curve"/>
      <point x="108" y="318" type="line"/>
      <point x="509" y="318" type="line"/>
      <point x="509" y="369" type="line"/>
      <point x="74" y="369" type="line"/>
      <point x="70" y="344"/>
      <point x="69" y="326"/>
      <point x="69" y="311" type="curve" smooth="yes"/>
      <point x="69" y="85"/>
      <point x="147" y="-15"/>
      <point x="299" y="-15" type="curve" smooth="yes"/>
      <point x="440" y="-15"/>
      <point x="546" y="72"/>
    </contour>
  </outline>
</glyph>
<glyph name="Ohorn" format="2">
  <advance width="614"/>
  <unicode hex="01A0"/>
  <anchor x="307" y="696" name="aboveUC"/>
  <anchor x="307" y="661" name="aboveUCx"/>
  <anchor x="308" y="-40" name="below"/>
  <outline>
    <contour>
      <point x="304" y="655" type="line"/>
      <point x="304" y="623" type="line"/>
      <point x="411" y="619" type="line"/>
      <point x="432" y="617"/>
      <point x="447" y="616"/>
      <point x="459" y="616" type="curve" smooth="yes"/>
      <point x="551" y="616"/>
      <point x="597" y="655"/>
      <point x="600" y="768" type="curve"/>
      <point x="540" y="768" type="line"/>
      <point x="536" y="677"/>
      <point x="523" y="655"/>
      <point x="437" y="655" type="curve" smooth="yes"/>
    </contour>
    <contour>
      <point x="307" y="655" type="line"/>
      <point x="158" y="655"/>
      <point x="58" y="534"/>
      <point x="58" y="325" type="curve" smooth="yes"/>
      <point x="58" y="105"/>
      <point x="157" y="-15"/>
      <point x="307" y="-15" type="curve" smooth="yes"/>
      <point x="456" y="-15"/>
      <point x="556" y="108"/>
      <point x="556" y="329" type="curve" smooth="yes"/>
      <point x="556" y="481"/>
      <point x="504" y="572"/>
      <point x="410" y="614" type="curve"/>
      <point x="411" y="619" type="line"/>
    </contour>
    <contour>
      <point x="121" y="327" type="curve" smooth="yes"/>
      <point x="121" y="508"/>
      <point x="191" y="604"/>
      <point x="307" y="604" type="curve" smooth="yes"/>
      <point x="421" y="604"/>
      <point x="493" y="510"/>
      <point x="493" y="327" type="curve" smooth="yes"/>
      <point x="493" y="137"/>
      <point x="422" y="36"/>
      <point x="307" y="36" type="curve" smooth="yes"/>
      <point x="193" y="36"/>
      <point x="121" y="135"/>
    </contour>
  </outline>
</glyph>
<glyph name="ohorn" format="2">
  <advance width="614"/>
  <unicode hex="01A1"/>
  <anchor x="307" y="507" name="aboveLC"/>
  <anchor x="307" y="472" name="aboveLCx"/>
  <anchor x="307" y="-40" name="below"/>
  <outline>
    <contour>
      <point x="309" y="460" type="line"/>
      <point x="169" y="460"/>
      <point x="71" y="362"/>
      <point x="71" y="225" type="curve" smooth="yes"/>
      <point x="71" y="79"/>
      <point x="168" y="-15"/>
      <point x="305" y="-15" type="curve" smooth="yes"/>
      <point x="444" y="-15"/>
      <point x="543" y="79"/>
      <point x="543" y="221" type="curve" smooth="yes"/>
      <point x="543" y="307"/>
      <point x="502" y="372"/>
      <point x="424" y="415" type="curve"/>
    </contour>
    <contour>
      <point x="307" y="35" type="curve" smooth="yes"/>
      <point x="203" y="35"/>
      <point x="131" y="109"/>
      <point x="131" y="223" type="curve" smooth="yes"/>
      <point x="131" y="334"/>
      <point x="203" y="410"/>
      <point x="307" y="410" type="curve" smooth="yes"/>
      <point x="411" y="410"/>
      <point x="483" y="331"/>
      <point x="483" y="223" type="curve" smooth="yes"/>
      <point x="483" y="106"/>
      <point x="411" y="35"/>
    </contour>
    <contour>
      <point x="440" y="421" type="curve" smooth="yes"/>
      <point x="520" y="421"/>
      <point x="561" y="461"/>
      <point x="566" y="572" type="curve"/>
      <point x="508" y="572" type="line"/>
      <point x="504" y="483"/>
      <point x="489" y="460"/>
      <point x="408" y="460" type="curve" smooth="yes"/>
      <point x="309" y="460" type="line"/>
      <point x="309" y="428" type="line"/>
      <point x="424" y="415" type="line"/>
      <point x="426" y="421" type="line"/>
      <point x="430" y="421"/>
      <point x="435" y="421"/>
    </contour>
  </outline>
</glyph>
<glyph name="Uhorn" format="2">
  <advance width="614"/>
  <unicode hex="01AF"/>
  <anchor x="307" y="691" name="aboveUC"/>
  <anchor x="307" y="656" name="aboveUCx"/>
  <anchor x="307" y="-40" name="below"/>
  <outline>
    <contour>
      <point x="531" y="610" type="curve" smooth="yes"/>
      <point x="624" y="610"/>
      <point x="669" y="647"/>
      <point x="672" y="768" type="curve"/>
      <point x="612" y="768" type="line"/>
      <point x="608" y="673"/>
      <point x="595" y="655"/>
      <point x="509" y="655" type="curve" smooth="yes"/>
      <point x="472" y="655" type="line"/>
      <point x="472" y="612" type="line"/>
      <point x="502" y="610"/>
      <point x="507" y="610"/>
    </contour>
    <contour>
      <point x="472" y="234" type="line" smooth="yes"/>
      <point x="472" y="97"/>
      <point x="417" y="36"/>
      <point x="307" y="36" type="curve" smooth="yes"/>
      <point x="201" y="36"/>
      <point x="143" y="99"/>
      <point x="143" y="234" type="curve" smooth="yes"/>
      <point x="143" y="655" type="line"/>
      <point x="82" y="655" type="line"/>
      <point x="82" y="234" type="line" smooth="yes"/>
      <point x="82" y="69"/>
      <point x="162" y="-15"/>
      <point x="306" y="-15" type="curve" smooth="yes"/>
      <point x="453" y="-15"/>
      <point x="532" y="67"/>
      <point x="532" y="234" type="curve" smooth="yes"/>
      <point x="532" y="655" type="line"/>
      <point x="472" y="655" type="line"/>
    </contour>
  </outline>
</glyph>
<glyph name="uhorn" format="2">
  <advance width="614"/>
  <unicode hex="01B0"/>
  <anchor x="307" y="502" name="aboveLC"/>
  <anchor x="296" y="-35" name="below"/>
  <anchor x="307" y="461" name="aboveLCx"/>
  <outline>
    <contour>
      <point x="492" y="419" type="curve" smooth="yes"/>
      <point x="581" y="419"/>
      <point x="626" y="455"/>
      <point x="629" y="572" type="curve"/>
      <point x="571" y="572" type="line"/>
      <point x="567" y="477"/>
      <point x="554" y="460"/>
      <point x="471" y="460" type="curve" smooth="yes"/>
      <point x="452" y="460" type="line"/>
      <point x="452" y="421" type="line"/>
      <point x="465" y="420"/>
      <point x="479" y="419"/>
    </contour>
    <contour>
      <point x="511" y="0" type="line"/>
      <point x="511" y="460" type="line"/>
      <point x="452" y="460" type="line"/>
      <point x="452" y="125" type="line"/>
      <point x="452" y="125" type="line"/>
      <point x="456" y="0" type="line"/>
    </contour>
    <contour>
      <point x="464" y="183" type="line"/>
      <point x="352" y="75"/>
      <point x="307" y="47"/>
      <point x="253" y="47" type="curve" smooth="yes"/>
      <point x="188" y="47"/>
      <point x="160" y="80"/>
      <point x="160" y="147" type="curve" smooth="yes"/>
      <point x="160" y="460" type="line"/>
      <point x="101" y="460" type="line"/>
      <point x="101" y="137" type="line" smooth="yes"/>
      <point x="101" y="53"/>
      <point x="148" y="-5"/>
      <point x="243" y="-5" type="curve" smooth="yes"/>
      <point x="317" y="-5"/>
      <point x="370" y="30"/>
      <point x="475" y="137" type="curve"/>
    </contour>
  </outline>
</glyph>
<glyph name="Oogonek" format="2">
  <advance width="614"/>
  <unicode hex="01EA"/>
  <outline>
    <contour>
      <point x="556" y="329" type="curve" smooth="yes"/>
      <point x="556" y="547"/>
      <point x="458" y="670"/>
      <point x="307" y="670" type="curve" smooth="yes"/>
      <point x="158" y="670"/>
      <point x="58" y="543"/>
      <point x="58" y="325" type="curve" smooth="yes"/>
      <point x="58" y="105"/>
      <point x="157" y="-15"/>
      <point x="307" y="-15" type="curve" smooth="yes"/>
      <point x="456" y="-15"/>
      <point x="556" y="108"/>
    </contour>
    <contour>
      <point x="121" y="327" type="curve" smooth="yes"/>
      <point x="121" y="518"/>
      <point x="191" y="619"/>
      <point x="307" y="619" type="curve" smooth="yes"/>
      <point x="421" y="619"/>
      <point x="493" y="520"/>
      <point x="493" y="327" type="curve" smooth="yes"/>
      <point x="493" y="137"/>
      <point x="422" y="36"/>
      <point x="307" y="36" type="curve" smooth="yes"/>
      <point x="193" y="36"/>
      <point x="121" y="135"/>
    </contour>
    <contour>
      <point x="214" y="-159" type="curve" smooth="yes"/>
      <point x="214" y="-207"/>
      <point x="237" y="-231"/>
      <point x="305" y="-235" type="curve" smooth="yes"/>
      <point x="398" y="-240" type="line"/>
      <point x="402" y="-197" type="line"/>
      <point x="317" y="-192" type="line" smooth="yes"/>
      <point x="280" y="-190"/>
      <point x="269" y="-173"/>
      <point x="269" y="-144" type="curve" smooth="yes"/>
      <point x="269" y="-119"/>
      <point x="277" y="-81"/>
      <point x="343" y="7" type="curve"/>
      <point x="304" y="7" type="line"/>
      <point x="222" y="-97"/>
      <point x="214" y="-131"/>
    </contour>
  </outline>
</glyph>
<glyph name="oogonek" format="2">
  <advance width="614"/>
  <unicode hex="01EB"/>
  <outline>
    <contour>
      <point x="305" y="-15" type="curve" smooth="yes"/>
      <point x="444" y="-15"/>
      <point x="543" y="82"/>
      <point x="543" y="228" type="curve" smooth="yes"/>
      <point x="543" y="374"/>
      <point x="446" y="475"/>
      <point x="309" y="475" type="curve" smooth="yes"/>
      <point x="169" y="475"/>
      <point x="71" y="374"/>
      <point x="71" y="232" type="curve" smooth="yes"/>
      <point x="71" y="82"/>
      <point x="168" y="-15"/>
    </contour>
    <contour>
      <point x="307" y="35" type="curve" smooth="yes"/>
      <point x="203" y="35"/>
      <point x="131" y="112"/>
      <point x="131" y="230" type="curve" smooth="yes"/>
      <point x="131" y="346"/>
      <point x="203" y="425"/>
      <point x="307" y="425" type="curve" smooth="yes"/>
      <point x="411" y="425"/>
      <point x="483" y="343"/>
      <point x="483" y="230" type="curve" smooth="yes"/>
      <point x="483" y="109"/>
      <point x="411" y="35"/>
    </contour>
    <contour>
      <point x="214" y="-159" type="curve" smooth="yes"/>
      <point x="214" y="-207"/>
      <point x="237" y="-231"/>
      <point x="305" y="-235" type="curve" smooth="yes"/>
      <point x="398" y="-240" type="line"/>
      <point x="402" y="-197" type="line"/>
      <point x="317" y="-192" type="line" smooth="yes"/>
      <point x="280" y="-190"/>
      <point x="269" y="-173"/>
      <point x="269" y="-144" type="curve" smooth="yes"/>
      <point x="269" y="-119"/>
      <point x="277" y="-81"/>
      <point x="343" y="7" type="curve"/>
      <point x="304" y="7" type="line"/>
      <point x="222" y="-97"/>
      <point x="214" y="-131"/>
    </contour>
  </outline>
</glyph>
<glyph name="dotlessj" format="2">
  <advance width="614"/>
  <unicode hex="0237"/>
  <anchor x="366" y="502" name="aboveLC"/>
  <outline>
    <contour>
      <point x="395" y="-74" type="curve" smooth="yes"/>
      <point x="395" y="460" type="line"/>
      <point x="336" y="460" type="line"/>
      <point x="336" y="-69" type="line" smooth="yes"/>
      <point x="336" y="-143"/>
      <point x="305" y="-172"/>
      <point x="228" y="-178" type="curve" smooth="yes"/>
      <point x="99" y="-188" type="line"/>
      <point x="102" y="-239" type="line"/>
      <point x="231" y="-230" type="line" smooth="yes"/>
      <point x="349" y="-222"/>
      <point x="395" y="-174"/>
    </contour>
    <contour>
      <point x="125" y="460" type="line"/>
      <point x="125" y="410" type="line"/>
      <point x="366" y="410" type="line"/>
      <point x="366" y="460" type="line"/>
    </contour>
  </outline>
</glyph>
<glyph name="schwa" format="2">
  <advance width="614"/>
  <unicode hex="0259"/>
  <outline>
    <contour>
      <point x="269" y="414" type="line" smooth="yes"/>
      <point x="406" y="411"/>
      <point x="471.0" y="351.0"/>
      <point x="471.0" y="240.0" type="curve" smooth="yes"/>
      <point x="471.0" y="109.0"/>
      <point x="391.0" y="35.0"/>
      <point x="296" y="35" type="curve" smooth="yes"/>
      <point x="204.0" y="35.0"/>
      <point x="141.0" y="90.0"/>
      <point x="141" y="234" type="curve"/>
      <point x="125" y="205" type="line"/>
      <point x="511" y="205" type="line"/>
      <point x="511" y="254" type="line"/>
      <point x="83" y="254" type="line"/>
      <point x="82" y="247"/>
      <point x="81.0" y="239.0"/>
      <point x="81" y="229" type="curve" smooth="yes"/>
      <point x="81.0" y="62.0"/>
      <point x="166.0" y="-15.0"/>
      <point x="296" y="-15" type="curve" smooth="yes"/>
      <point x="427.0" y="-15.0"/>
      <point x="531.0" y="88.0"/>
      <point x="531.0" y="240.0" type="curve" smooth="yes"/>
      <point x="531.0" y="377.0"/>
      <point x="454" y="460"/>
      <point x="283" y="463" type="curve" smooth="yes"/>
      <point x="166" y="465" type="line"/>
      <point x="164" y="416" type="line"/>
    </contour>
  </outline>
</glyph>
<glyph name="ringhalfright" format="2">
  <advance width="614"/>
  <unicode hex="02BE"/>
  <outline>
    <contour>
      <point x="154" y="315" type="line"/>
      <point x="344" y="315"/>
      <point x="418" y="405"/>
      <point x="418" y="521" type="curve" smooth="yes"/>
      <point x="418" y="637"/>
      <point x="344" y="725"/>
      <point x="154" y="725" type="curve"/>
      <point x="154" y="663" type="line"/>
      <point x="300" y="663"/>
      <point x="342" y="607"/>
      <point x="342" y="521" type="curve" smooth="yes"/>
      <point x="342" y="435"/>
      <point x="299" y="377"/>
      <point x="154" y="377" type="curve"/>
    </contour>
  </outline>
</glyph>
<glyph name="gravecmb" format="2">
  <unicode hex="0300"/>
  <anchor x="0" y="502" name="_aboveLC"/>
  <anchor x="0" y="472" name="_aboveLCx"/>
  <outline>
    <contour>
      <point x="82" y="566" type="line"/>
      <point x="-118" y="737" type="line"/>
      <point x="-157" y="694" type="line"/>
      <point x="54" y="535" type="line"/>
    </contour>
  </outline>
</glyph>
